<svg width="451.663" height="34.43" viewBox="0 0 451.663 34.43" xmlns="http://www.w3.org/2000/svg"><g id="svgGroup" stroke-linecap="round" fill-rule="evenodd" font-size="9pt" stroke="#000" stroke-width="0.25mm" fill="#000" style="stroke:#000;stroke-width:0.25mm;fill:#000"><path d="M 311.143 16.48 L 310.943 17.36 L 311.943 16.4 A 14.737 14.737 0 0 0 312.491 15.977 Q 312.766 15.754 313.063 15.496 A 25.33 25.33 0 0 0 313.263 15.32 Q 313.983 14.68 314.543 14.2 A 3.545 3.545 0 0 1 314.808 14.021 Q 315.061 13.865 315.403 13.7 A 14.426 14.426 0 0 1 316.3 13.304 A 12.934 12.934 0 0 1 316.463 13.24 Q 316.983 13.04 317.223 13 A 0.842 0.842 0 0 1 317.281 12.984 Q 317.421 12.948 317.763 12.89 A 22.329 22.329 0 0 1 317.823 12.88 Q 318.19 12.819 318.675 12.804 A 10.406 10.406 0 0 1 318.983 12.8 A 3.16 3.16 0 0 1 319.571 12.852 Q 320.057 12.944 320.403 13.2 A 2.871 2.871 0 0 1 320.805 13.568 Q 321.138 13.93 321.463 14.48 Q 321.835 15.191 321.835 16.059 A 4.264 4.264 0 0 1 321.823 16.38 Q 321.743 17.44 321.183 18.36 Q 320.999 18.507 320.816 18.738 A 3.424 3.424 0 0 0 320.783 18.78 A 1.739 1.739 0 0 0 320.695 18.904 Q 320.583 19.08 320.583 19.2 A 0.596 0.596 0 0 1 320.535 19.35 Q 320.427 19.593 320.091 20.044 A 13.512 13.512 0 0 1 319.863 20.34 Q 319.183 21.2 318.503 21.96 Q 317.783 22.72 316.743 23.46 Q 315.703 24.2 314.683 24.78 A 15.389 15.389 0 0 1 314.017 25.139 Q 313.697 25.3 313.414 25.42 A 6.375 6.375 0 0 1 312.943 25.6 Q 312.698 25.631 312.289 25.696 A 47.42 47.42 0 0 0 312.023 25.74 Q 311.423 25.84 311.103 25.92 Q 310.453 25.855 310.212 25.764 A 0.453 0.453 0 0 1 310.123 25.72 Q 309.956 25.609 309.737 25.153 A 5.378 5.378 0 0 1 309.703 25.08 Q 309.465 24.813 309.371 24.634 A 0.648 0.648 0 0 1 309.323 24.52 Q 309.263 24.32 309.303 24.16 Q 309.501 24.16 309.66 24.14 A 2.205 2.205 0 0 0 309.663 24.14 A 0.352 0.352 0 0 0 309.739 24.122 Q 309.833 24.088 309.863 24 A 0.153 0.153 0 0 1 309.883 23.921 Q 309.915 23.866 309.998 23.841 A 0.363 0.363 0 0 1 310.003 23.84 Q 310.125 23.805 310.263 23.831 A 0.716 0.716 0 0 1 310.303 23.84 Q 311.033 23.878 312.151 23.382 A 9.289 9.289 0 0 0 312.243 23.34 A 12.758 12.758 0 0 0 313.314 22.783 Q 313.848 22.474 314.419 22.087 A 22.38 22.38 0 0 0 314.803 21.82 Q 316.183 20.84 317.503 19.64 Q 318.36 18.519 318.837 17.792 A 12.058 12.058 0 0 0 319.023 17.5 A 6.989 6.989 0 0 0 319.261 17.083 Q 319.481 16.664 319.558 16.344 A 1.65 1.65 0 0 0 319.583 16.22 Q 319.638 15.876 319.561 15.599 A 1.095 1.095 0 0 0 319.463 15.36 Q 319.303 15.04 318.303 15.1 A 3.383 3.383 0 0 0 317.451 15.271 Q 317.064 15.398 316.647 15.617 A 7.631 7.631 0 0 0 316.063 15.96 Q 314.343 17.04 313.303 17.96 Q 312.263 18.88 311.383 20.04 Q 311.068 20.434 310.772 20.983 A 8.696 8.696 0 0 0 310.763 21 A 53.957 53.957 0 0 0 310.552 21.398 Q 310.388 21.71 310.263 21.96 L 310.063 22.36 A 0.164 0.164 0 0 1 310.03 22.451 Q 309.957 22.56 309.717 22.698 A 3.183 3.183 0 0 1 309.603 22.76 A 2.934 2.934 0 0 1 309.332 22.885 Q 309.049 22.998 308.83 23 A 0.86 0.86 0 0 1 308.823 23 A 1.118 1.118 0 0 1 308.725 22.944 Q 308.621 22.878 308.488 22.77 A 4.834 4.834 0 0 1 308.403 22.7 A 1.011 1.011 0 0 1 308.08 22.189 A 1.271 1.271 0 0 1 308.063 22.12 Q 307.837 21.958 307.715 21.849 A 1.339 1.339 0 0 1 307.663 21.8 Q 307.543 21.68 307.503 21.52 Q 307.468 21.312 307.583 20.895 A 4.806 4.806 0 0 1 307.623 20.76 Q 307.777 20.259 308.042 19.203 A 89.228 89.228 0 0 0 308.063 19.12 A 61.898 61.898 0 0 1 308.457 17.515 A 70.029 70.029 0 0 1 308.603 16.96 A 36.205 36.205 0 0 1 308.825 16.165 Q 308.939 15.774 309.051 15.433 A 18.753 18.753 0 0 1 309.183 15.04 A 12.82 12.82 0 0 1 309.282 14.765 Q 309.469 14.268 309.567 14.173 A 0.116 0.116 0 0 1 309.583 14.16 L 309.743 13.8 A 1.804 1.804 0 0 0 309.872 13.357 A 2.457 2.457 0 0 0 309.903 12.96 Q 309.983 12.48 310.163 12.12 A 3.575 3.575 0 0 0 310.237 11.962 Q 310.339 11.731 310.343 11.609 A 0.298 0.298 0 0 0 310.343 11.6 Q 310.501 11.482 310.814 10.662 A 14.713 14.713 0 0 0 310.823 10.64 Q 311.143 9.8 311.623 8.44 Q 311.623 8.32 311.903 7.66 Q 312.095 7.206 312.345 6.639 A 139.694 139.694 0 0 1 312.583 6.1 A 149.509 149.509 0 0 0 313.194 4.705 A 168.275 168.275 0 0 0 313.403 4.22 A 45.955 45.955 0 0 0 313.744 3.405 Q 313.945 2.908 314.103 2.48 Q 314.583 1.8 314.843 1.22 A 3.069 3.069 0 0 1 314.97 0.966 Q 315.107 0.723 315.25 0.603 A 0.54 0.54 0 0 1 315.383 0.52 A 0.82 0.82 0 0 1 315.489 0.506 Q 315.639 0.496 315.833 0.531 A 2.272 2.272 0 0 1 315.883 0.54 A 2.096 2.096 0 0 1 316.328 0.684 A 2.487 2.487 0 0 1 316.483 0.76 A 1.277 1.277 0 0 1 316.897 1.117 A 1.575 1.575 0 0 1 316.983 1.24 Q 317.075 1.393 317.12 1.523 A 0.908 0.908 0 0 1 317.143 1.6 A 0.265 0.265 0 0 1 317.15 1.642 Q 317.164 1.81 317.023 2.18 Q 316.876 2.567 316.474 3.428 A 64.952 64.952 0 0 1 316.403 3.58 Q 316.051 4.33 315.452 5.585 A 894.49 894.49 0 0 1 315.063 6.4 A 83.554 83.554 0 0 0 314.159 8.4 Q 313.628 9.623 313.223 10.68 Q 312.728 11.973 312.346 13.057 A 60.352 60.352 0 0 0 312.023 14 A 78.034 78.034 0 0 1 311.674 15.024 Q 311.533 15.427 311.401 15.791 A 42.447 42.447 0 0 1 311.143 16.48 Z M 26.303 20.56 L 26.063 21.84 L 26.703 21.84 Q 27.023 21.84 27.303 21.94 L 27.583 22.04 A 6.671 6.671 0 0 0 27.863 22.305 A 6.078 6.078 0 0 0 27.903 22.34 Q 28.027 22.448 28.15 22.473 A 0.372 0.372 0 0 0 28.223 22.48 A 0.907 0.907 0 0 1 28.353 22.489 Q 28.685 22.537 28.583 22.86 Q 28.487 23.162 28.165 23.426 A 2.313 2.313 0 0 1 27.983 23.56 Q 27.343 23.987 26.782 24.129 A 2.191 2.191 0 0 1 26.243 24.2 Q 25.463 24.2 24.823 23.56 A 3.229 3.229 0 0 1 24.249 22.732 A 2.851 2.851 0 0 1 24.023 22.04 Q 23.882 21.301 24.113 20.222 A 8.999 8.999 0 0 1 24.183 19.92 A 93.235 93.235 0 0 0 24.254 19.099 Q 24.343 18.012 24.361 17.403 A 12.264 12.264 0 0 0 24.363 17.34 Q 24.376 16.804 24.192 16.618 A 0.336 0.336 0 0 0 23.943 16.52 A 1.002 1.002 0 0 0 23.714 16.552 Q 23.341 16.641 22.687 16.983 A 12.579 12.579 0 0 0 22.543 17.06 A 14.491 14.491 0 0 0 21.656 17.583 Q 21.02 17.988 20.303 18.52 Q 19.063 19.44 17.863 20.56 Q 16.663 21.68 15.863 22.88 Q 15.383 23.48 14.943 23.94 A 2.233 2.233 0 0 1 14.668 24.187 Q 14.508 24.306 14.349 24.37 A 1.012 1.012 0 0 1 14.063 24.44 Q 13.783 24.48 13.483 24.42 A 1.43 1.43 0 0 1 13.053 24.256 A 1.755 1.755 0 0 1 12.903 24.16 A 7.848 7.848 0 0 1 12.755 24.009 Q 12.61 23.855 12.522 23.742 A 1.444 1.444 0 0 1 12.463 23.66 A 0.424 0.424 0 0 1 12.409 23.539 Q 12.363 23.377 12.398 23.117 A 2.156 2.156 0 0 1 12.403 23.08 A 6.618 6.618 0 0 1 12.442 22.853 Q 12.513 22.47 12.663 21.84 Q 12.816 21.35 13.016 20.567 A 56.732 56.732 0 0 0 13.143 20.06 Q 13.423 18.92 13.743 17.8 Q 13.863 17.16 14.083 16.48 A 18.217 18.217 0 0 1 14.366 15.669 A 14.981 14.981 0 0 1 14.543 15.22 Q 14.783 14.64 14.903 14.32 A 40.105 40.105 0 0 1 15.179 13.394 Q 15.31 12.973 15.438 12.602 A 22.5 22.5 0 0 1 15.523 12.36 A 42.821 42.821 0 0 1 15.768 11.693 Q 15.878 11.4 16.002 11.082 A 74.579 74.579 0 0 1 16.263 10.42 Q 16.703 9.32 17.343 7.48 A 5770.521 5770.521 0 0 0 17.757 6.351 Q 18.156 5.261 18.444 4.473 A 1358.357 1358.357 0 0 0 18.683 3.82 Q 19.143 2.56 19.363 1.98 Q 19.544 1.502 19.63 1.201 A 3.726 3.726 0 0 0 19.663 1.08 A 0.905 0.905 0 0 1 19.68 0.896 Q 19.719 0.71 19.843 0.6 A 0.625 0.625 0 0 1 20.167 0.45 A 0.861 0.861 0 0 1 20.303 0.44 A 0.974 0.974 0 0 1 21.068 0.797 A 1.487 1.487 0 0 1 21.203 0.98 A 2.738 2.738 0 0 1 21.537 1.775 A 3.534 3.534 0 0 1 21.623 2.26 Q 21.703 3 21.383 3.64 Q 20.893 4.743 20.356 6.162 A 74.134 74.134 0 0 0 20.023 7.06 Q 19.303 9.04 18.623 10.94 Q 18.102 12.395 17.629 13.509 A 28.726 28.726 0 0 1 17.343 14.16 Q 17.343 14.32 17.223 14.72 Q 17.103 15.12 16.943 15.44 L 16.643 16.04 L 16.503 16.32 Q 16.503 16.468 16.4 16.856 A 9.168 9.168 0 0 1 16.383 16.92 Q 16.263 17.359 16.064 17.996 A 27.032 27.032 0 0 1 16.063 18 A 19.83 19.83 0 0 0 15.979 18.258 Q 15.848 18.67 15.683 19.24 Q 15.463 20 15.383 20.52 Q 15.583 20.16 16.223 19.44 Q 16.82 18.768 17.348 18.27 A 13.003 13.003 0 0 1 17.423 18.2 Q 18.063 17.64 18.863 16.96 Q 19.663 16.28 20.143 15.96 A 103.168 103.168 0 0 0 20.584 15.664 Q 20.807 15.514 21.003 15.38 L 21.383 15.12 Q 21.383 14.96 21.523 14.94 A 1.981 1.981 0 0 1 21.706 14.923 A 2.386 2.386 0 0 1 21.823 14.92 A 0.99 0.99 0 0 0 21.878 14.919 Q 21.958 14.914 21.988 14.896 A 0.04 0.04 0 0 0 22.003 14.88 Q 22.019 14.847 22.022 14.733 A 2.081 2.081 0 0 0 22.023 14.68 Q 22.023 14.486 22.457 14.329 A 2.417 2.417 0 0 1 22.483 14.32 A 5.173 5.173 0 0 1 22.916 14.192 Q 23.14 14.135 23.392 14.089 A 8.857 8.857 0 0 1 23.563 14.06 Q 23.97 13.994 24.282 13.972 A 4.199 4.199 0 0 1 24.583 13.96 A 1.865 1.865 0 0 1 24.886 13.983 Q 25.158 14.028 25.343 14.16 Q 25.623 14.36 26.063 15.04 A 3.2 3.2 0 0 1 26.577 16.094 A 4.033 4.033 0 0 1 26.683 16.58 A 3.595 3.595 0 0 1 26.725 17.133 Q 26.725 17.627 26.592 18.139 A 4.687 4.687 0 0 1 26.503 18.44 A 2.882 2.882 0 0 1 26.494 18.653 Q 26.478 18.867 26.433 19.156 A 11.33 11.33 0 0 1 26.403 19.34 A 7.002 7.002 0 0 0 26.307 20.317 A 7.977 7.977 0 0 0 26.303 20.56 Z M 80.783 20.56 L 80.543 21.84 L 81.183 21.84 Q 81.503 21.84 81.783 21.94 L 82.063 22.04 A 6.671 6.671 0 0 0 82.343 22.305 A 6.078 6.078 0 0 0 82.383 22.34 Q 82.507 22.448 82.63 22.473 A 0.372 0.372 0 0 0 82.703 22.48 A 0.907 0.907 0 0 1 82.833 22.489 Q 83.165 22.537 83.063 22.86 Q 82.967 23.162 82.645 23.426 A 2.313 2.313 0 0 1 82.463 23.56 Q 81.823 23.987 81.262 24.129 A 2.191 2.191 0 0 1 80.723 24.2 Q 79.943 24.2 79.303 23.56 A 3.229 3.229 0 0 1 78.729 22.732 A 2.851 2.851 0 0 1 78.503 22.04 Q 78.362 21.301 78.593 20.222 A 8.999 8.999 0 0 1 78.663 19.92 A 93.235 93.235 0 0 0 78.734 19.099 Q 78.823 18.012 78.841 17.403 A 12.264 12.264 0 0 0 78.843 17.34 Q 78.856 16.804 78.672 16.618 A 0.336 0.336 0 0 0 78.423 16.52 A 1.002 1.002 0 0 0 78.194 16.552 Q 77.821 16.641 77.167 16.983 A 12.579 12.579 0 0 0 77.023 17.06 A 14.491 14.491 0 0 0 76.136 17.583 Q 75.5 17.988 74.783 18.52 Q 73.543 19.44 72.343 20.56 Q 71.143 21.68 70.343 22.88 Q 69.863 23.48 69.423 23.94 A 2.233 2.233 0 0 1 69.148 24.187 Q 68.988 24.306 68.829 24.37 A 1.012 1.012 0 0 1 68.543 24.44 Q 68.263 24.48 67.963 24.42 A 1.43 1.43 0 0 1 67.533 24.256 A 1.755 1.755 0 0 1 67.383 24.16 A 7.848 7.848 0 0 1 67.235 24.009 Q 67.09 23.855 67.002 23.742 A 1.444 1.444 0 0 1 66.943 23.66 A 0.424 0.424 0 0 1 66.889 23.539 Q 66.843 23.377 66.878 23.117 A 2.156 2.156 0 0 1 66.883 23.08 A 6.618 6.618 0 0 1 66.922 22.853 Q 66.993 22.47 67.143 21.84 Q 67.296 21.35 67.496 20.567 A 56.732 56.732 0 0 0 67.623 20.06 Q 67.903 18.92 68.223 17.8 Q 68.343 17.16 68.563 16.48 A 18.217 18.217 0 0 1 68.846 15.669 A 14.981 14.981 0 0 1 69.023 15.22 Q 69.263 14.64 69.383 14.32 A 40.105 40.105 0 0 1 69.659 13.394 Q 69.79 12.973 69.918 12.602 A 22.5 22.5 0 0 1 70.003 12.36 A 42.821 42.821 0 0 1 70.248 11.693 Q 70.358 11.4 70.482 11.082 A 74.579 74.579 0 0 1 70.743 10.42 Q 71.183 9.32 71.823 7.48 A 5770.521 5770.521 0 0 0 72.237 6.351 Q 72.636 5.261 72.924 4.473 A 1358.357 1358.357 0 0 0 73.163 3.82 Q 73.623 2.56 73.843 1.98 Q 74.024 1.502 74.11 1.201 A 3.726 3.726 0 0 0 74.143 1.08 A 0.905 0.905 0 0 1 74.16 0.896 Q 74.199 0.71 74.323 0.6 A 0.625 0.625 0 0 1 74.647 0.45 A 0.861 0.861 0 0 1 74.783 0.44 A 0.974 0.974 0 0 1 75.548 0.797 A 1.487 1.487 0 0 1 75.683 0.98 A 2.738 2.738 0 0 1 76.017 1.775 A 3.534 3.534 0 0 1 76.103 2.26 Q 76.183 3 75.863 3.64 Q 75.373 4.743 74.836 6.162 A 74.134 74.134 0 0 0 74.503 7.06 Q 73.783 9.04 73.103 10.94 Q 72.582 12.395 72.109 13.509 A 28.726 28.726 0 0 1 71.823 14.16 Q 71.823 14.32 71.703 14.72 Q 71.583 15.12 71.423 15.44 L 71.123 16.04 L 70.983 16.32 Q 70.983 16.468 70.88 16.856 A 9.168 9.168 0 0 1 70.863 16.92 Q 70.743 17.359 70.544 17.996 A 27.032 27.032 0 0 1 70.543 18 A 19.83 19.83 0 0 0 70.459 18.258 Q 70.328 18.67 70.163 19.24 Q 69.943 20 69.863 20.52 Q 70.063 20.16 70.703 19.44 Q 71.3 18.768 71.828 18.27 A 13.003 13.003 0 0 1 71.903 18.2 Q 72.543 17.64 73.343 16.96 Q 74.143 16.28 74.623 15.96 A 103.168 103.168 0 0 0 75.064 15.664 Q 75.287 15.514 75.483 15.38 L 75.863 15.12 Q 75.863 14.96 76.003 14.94 A 1.981 1.981 0 0 1 76.186 14.923 A 2.386 2.386 0 0 1 76.303 14.92 A 0.99 0.99 0 0 0 76.358 14.919 Q 76.438 14.914 76.468 14.896 A 0.04 0.04 0 0 0 76.483 14.88 Q 76.499 14.847 76.502 14.733 A 2.081 2.081 0 0 0 76.503 14.68 Q 76.503 14.486 76.937 14.329 A 2.417 2.417 0 0 1 76.963 14.32 A 5.173 5.173 0 0 1 77.396 14.192 Q 77.62 14.135 77.872 14.089 A 8.857 8.857 0 0 1 78.043 14.06 Q 78.45 13.994 78.762 13.972 A 4.199 4.199 0 0 1 79.063 13.96 A 1.865 1.865 0 0 1 79.366 13.983 Q 79.638 14.028 79.823 14.16 Q 80.103 14.36 80.543 15.04 A 3.2 3.2 0 0 1 81.057 16.094 A 4.033 4.033 0 0 1 81.163 16.58 A 3.595 3.595 0 0 1 81.205 17.133 Q 81.205 17.627 81.072 18.139 A 4.687 4.687 0 0 1 80.983 18.44 A 2.882 2.882 0 0 1 80.974 18.653 Q 80.958 18.867 80.913 19.156 A 11.33 11.33 0 0 1 80.883 19.34 A 7.002 7.002 0 0 0 80.787 20.317 A 7.977 7.977 0 0 0 80.783 20.56 Z M 342.863 11 L 342.903 11 L 342.723 11.5 A 117.551 117.551 0 0 1 342.442 12.273 A 132.561 132.561 0 0 1 342.343 12.54 Q 342.176 12.991 342.148 13.121 A 0.205 0.205 0 0 0 342.143 13.16 A 0.097 0.097 0 0 0 342.197 13.243 Q 342.29 13.301 342.545 13.316 A 3.231 3.231 0 0 0 342.723 13.32 A 5.917 5.917 0 0 0 343.189 13.3 Q 343.448 13.28 343.74 13.238 A 11.867 11.867 0 0 0 344.103 13.18 Q 344.903 13.04 345.543 12.88 Q 346.045 12.737 346.257 12.722 A 0.655 0.655 0 0 1 346.303 12.72 Q 346.503 12.72 347.103 12.88 A 1.506 1.506 0 0 1 347.488 13.23 A 1.949 1.949 0 0 1 347.643 13.46 Q 347.856 13.827 347.956 14.157 A 2.444 2.444 0 0 1 347.963 14.18 A 1.329 1.329 0 0 1 347.99 14.286 Q 348.042 14.54 347.948 14.673 A 0.283 0.283 0 0 1 347.943 14.68 Q 347.905 14.831 347.157 15.088 A 10.418 10.418 0 0 1 347.063 15.12 Q 346.223 15.4 345.383 15.56 Q 344.888 15.67 344.242 15.799 A 91.59 91.59 0 0 1 343.623 15.92 Q 342.583 16.12 341.803 16.28 Q 341.145 16.415 341.042 16.521 A 0.057 0.057 0 0 0 341.023 16.56 A 0.28 0.28 0 0 0 340.843 16.627 Q 340.803 16.659 340.767 16.706 A 0.645 0.645 0 0 0 340.743 16.74 A 1.117 1.117 0 0 0 340.686 16.835 Q 340.633 16.933 340.625 17.01 A 0.264 0.264 0 0 0 340.623 17.04 Q 340.623 17.544 340.493 17.821 A 0.81 0.81 0 0 1 340.463 17.88 Q 340.398 18.076 340.252 18.592 A 71.977 71.977 0 0 0 340.183 18.84 Q 339.983 19.56 339.763 20.44 Q 339.543 21.32 339.403 22.04 A 18.608 18.608 0 0 0 339.348 22.332 Q 339.278 22.728 339.265 22.925 A 1.209 1.209 0 0 0 339.263 23 A 1.158 1.158 0 0 0 339.016 23.497 A 1.513 1.513 0 0 0 338.983 23.7 A 9.944 9.944 0 0 0 338.956 24.048 Q 338.943 24.26 338.943 24.44 A 2.652 2.652 0 0 0 338.834 24.685 Q 338.788 24.808 338.762 24.92 A 1.375 1.375 0 0 0 338.743 25.02 A 4.687 4.687 0 0 0 338.722 25.173 Q 338.704 25.32 338.703 25.425 A 1.332 1.332 0 0 0 338.703 25.44 L 338.703 25.6 A 0.755 0.755 0 0 1 338.663 25.839 Q 338.623 26.24 338.563 26.9 Q 338.503 27.56 338.503 28.2 L 338.383 29.36 A 9.241 9.241 0 0 1 338.347 29.73 Q 338.326 29.913 338.298 30.074 A 4.976 4.976 0 0 1 338.263 30.26 A 1.599 1.599 0 0 1 338.194 30.5 Q 338.144 30.63 338.075 30.729 A 0.809 0.809 0 0 1 337.983 30.84 A 0.382 0.382 0 0 1 337.865 30.893 Q 337.706 30.934 337.524 30.818 A 0.916 0.916 0 0 1 337.443 30.76 Q 337.217 30.579 336.843 30.171 A 17.251 17.251 0 0 1 336.583 29.88 Q 336.303 29.56 336.223 29.2 Q 336.151 28.878 336.24 28.044 A 14.927 14.927 0 0 1 336.263 27.84 A 3.217 3.217 0 0 0 336.396 27.371 A 2.543 2.543 0 0 0 336.443 27 A 31.734 31.734 0 0 0 336.452 26.816 Q 336.462 26.587 336.463 26.467 A 3.038 3.038 0 0 0 336.463 26.44 A 1.596 1.596 0 0 1 336.468 26.328 Q 336.488 26.046 336.594 25.373 A 40.459 40.459 0 0 1 336.603 25.32 Q 336.743 24.44 336.903 23.46 Q 337.035 22.652 337.139 22.157 A 10.975 10.975 0 0 1 337.183 21.96 Q 337.183 21.92 337.223 21.76 Q 337.263 21.6 337.303 21.48 A 53.105 53.105 0 0 1 337.347 21.285 Q 337.418 20.97 337.523 20.52 A 11.554 11.554 0 0 0 337.625 20.031 Q 337.666 19.81 337.706 19.563 A 23.576 23.576 0 0 0 337.783 19.04 Q 338.103 18.04 338.323 17.06 Q 338.543 16.08 338.543 15.72 A 1.445 1.445 0 0 1 338.6 15.3 A 1.043 1.043 0 0 1 339.103 14.68 Q 339.133 14.529 339.254 14.253 A 6.956 6.956 0 0 1 339.343 14.06 A 15.021 15.021 0 0 1 339.487 13.765 Q 339.545 13.65 339.599 13.549 A 7.301 7.301 0 0 1 339.703 13.36 Q 340.315 11.614 340.764 10.42 A 65.718 65.718 0 0 1 341.023 9.74 Q 341.508 8.489 342.029 7.534 A 13.385 13.385 0 0 1 342.103 7.4 A 26.282 26.282 0 0 1 342.497 6.358 A 29.552 29.552 0 0 1 342.643 6 Q 342.943 5.28 343.263 4.88 A 2.317 2.317 0 0 1 343.416 4.564 Q 343.665 4.129 344.183 3.54 Q 344.903 2.72 345.703 1.94 Q 346.503 1.16 346.983 0.76 Q 347.863 0.32 348.383 0.16 A 3.089 3.089 0 0 1 348.798 0.066 Q 349.014 0.031 349.267 0.014 A 7.397 7.397 0 0 1 349.743 0 A 5.045 5.045 0 0 1 350.072 0.01 Q 350.558 0.042 350.758 0.177 A 0.471 0.471 0 0 1 350.763 0.18 A 3.091 3.091 0 0 1 350.909 0.289 Q 351.153 0.48 351.543 0.84 A 13.843 13.843 0 0 1 351.736 1.051 Q 352.03 1.379 352.136 1.551 A 0.599 0.599 0 0 1 352.183 1.64 Q 352.263 1.84 352.263 2.4 A 3.496 3.496 0 0 1 352.187 2.754 Q 352.092 3.117 351.906 3.584 A 11.822 11.822 0 0 1 351.843 3.74 A 14.127 14.127 0 0 1 351.448 4.612 A 11.219 11.219 0 0 1 351.123 5.22 Q 350.743 5.88 350.503 5.92 A 1.377 1.377 0 0 1 350.371 5.957 Q 349.991 6.043 349.803 5.82 A 0.76 0.76 0 0 1 349.674 5.591 Q 349.595 5.379 349.585 5.063 A 3.035 3.035 0 0 1 349.583 4.96 A 1.123 1.123 0 0 0 349.447 4.428 A 1.302 1.302 0 0 0 349.443 4.42 L 349.303 4.16 A 0.799 0.799 0 0 1 349.307 4.089 Q 349.317 3.971 349.359 3.76 A 7.696 7.696 0 0 1 349.363 3.74 A 1.924 1.924 0 0 1 349.582 3.162 A 1.998 1.998 0 0 1 349.583 3.16 A 1.827 1.827 0 0 0 349.647 3.017 Q 349.742 2.777 349.706 2.625 A 0.3 0.3 0 0 0 349.683 2.56 A 0.211 0.211 0 0 0 349.549 2.452 Q 349.408 2.408 349.143 2.48 A 2.181 2.181 0 0 0 349.084 2.521 Q 348.938 2.626 348.568 2.91 A 81.615 81.615 0 0 0 348.503 2.96 Q 347.983 3.36 347.403 3.86 Q 346.823 4.36 346.383 4.8 A 7.073 7.073 0 0 0 346.233 4.954 Q 345.943 5.263 345.943 5.36 L 345.783 5.7 A 2.23 2.23 0 0 1 345.657 5.927 Q 345.511 6.162 345.266 6.461 A 8.886 8.886 0 0 1 345.183 6.56 A 11.354 11.354 0 0 0 344.826 7.101 A 9.678 9.678 0 0 0 344.683 7.34 A 7.503 7.503 0 0 0 344.608 7.472 Q 344.471 7.72 344.463 7.792 A 0.075 0.075 0 0 0 344.463 7.8 A 2.878 2.878 0 0 1 344.455 8.008 A 3.466 3.466 0 0 1 344.443 8.14 Q 344.423 8.32 344.223 8.32 L 344.103 8.68 A 3.07 3.07 0 0 1 344.008 8.925 Q 343.901 9.174 343.723 9.494 A 10.503 10.503 0 0 1 343.663 9.6 Q 343.503 10 343.263 10.42 Q 343.023 10.84 342.863 11 Z M 168.903 24.8 Q 168.303 24.8 167.803 24.06 A 3.976 3.976 0 0 1 167.407 23.299 Q 167.257 22.922 167.153 22.474 A 7.555 7.555 0 0 1 167.083 22.14 A 9.717 9.717 0 0 1 166.922 20.356 A 10.829 10.829 0 0 1 166.943 19.68 A 19.367 19.367 0 0 1 166.957 18.929 Q 166.986 18.181 167.077 17.655 A 5.659 5.659 0 0 1 167.083 17.62 Q 167.223 16.84 167.383 16.08 Q 167.503 15.84 167.523 15.68 Q 167.543 15.52 167.603 15.16 Q 167.658 14.828 167.832 14.09 A 55.589 55.589 0 0 1 167.863 13.96 Q 167.978 13.471 168.093 13.106 A 6.502 6.502 0 0 1 168.183 12.84 Q 168.343 12.4 168.503 12.24 Q 168.703 12 169.023 11.94 Q 169.343 11.88 169.663 12 A 1.007 1.007 0 0 1 170.117 12.345 A 1.287 1.287 0 0 1 170.183 12.44 A 0.504 0.504 0 0 1 170.309 12.608 Q 170.393 12.78 170.425 13.069 A 3.333 3.333 0 0 1 170.443 13.34 A 7.031 7.031 0 0 1 170.446 13.541 Q 170.446 14.146 170.343 14.78 Q 170.239 15.418 170.047 15.743 A 1.057 1.057 0 0 1 169.983 15.84 Q 169.918 16.001 169.841 16.578 A 20.388 20.388 0 0 0 169.803 16.88 Q 169.703 17.72 169.603 18.64 A 24.176 24.176 0 0 1 169.538 19.18 Q 169.468 19.717 169.388 20.095 A 7.076 7.076 0 0 1 169.383 20.12 A 2.869 2.869 0 0 0 169.352 20.364 Q 169.329 20.659 169.379 20.9 A 1.235 1.235 0 0 0 169.523 21.28 A 0.471 0.471 0 0 0 169.66 21.432 Q 169.926 21.614 170.446 21.342 A 2.618 2.618 0 0 0 170.523 21.3 Q 171.209 20.91 172.326 19.334 A 23.971 23.971 0 0 0 172.503 19.08 Q 173.22 18.056 173.645 17.352 A 14.136 14.136 0 0 0 173.783 17.12 A 12.546 12.546 0 0 0 174.172 16.396 Q 174.351 16.035 174.483 15.7 Q 174.743 15.04 175.023 14.28 A 16.036 16.036 0 0 1 175.169 13.833 Q 175.241 13.625 175.31 13.448 A 7.252 7.252 0 0 1 175.403 13.22 Q 175.537 12.906 175.661 12.76 A 0.51 0.51 0 0 1 175.743 12.68 A 0.897 0.897 0 0 1 176.269 12.513 Q 176.274 12.513 176.279 12.513 A 1.183 1.183 0 0 1 176.402 12.52 Q 176.783 12.56 177.263 12.88 A 1.626 1.626 0 0 1 177.643 13.454 A 1.58 1.58 0 0 1 177.743 14.02 A 2.323 2.323 0 0 1 177.686 14.509 Q 177.581 14.994 177.282 15.601 A 7.691 7.691 0 0 1 177.263 15.64 A 7.264 7.264 0 0 0 177.026 16.171 Q 176.83 16.655 176.643 17.28 Q 176.343 18.28 176.163 19.3 A 15.955 15.955 0 0 0 176.068 19.9 Q 175.986 20.5 175.983 20.931 A 4.639 4.639 0 0 0 175.983 20.96 A 4.568 4.568 0 0 0 175.991 21.237 Q 176.017 21.671 176.134 21.833 A 0.254 0.254 0 0 0 176.203 21.9 A 0.87 0.87 0 0 0 176.499 22.017 A 1.22 1.22 0 0 0 176.743 22.04 A 1.63 1.63 0 0 0 177.114 21.994 Q 177.462 21.912 177.889 21.687 A 5.247 5.247 0 0 0 177.903 21.68 Q 178.583 21.32 179.423 20.44 Q 179.783 20.08 180.303 19.38 A 25.965 25.965 0 0 0 181.26 17.997 A 28.464 28.464 0 0 0 181.323 17.9 A 39.398 39.398 0 0 0 181.675 17.34 Q 181.847 17.062 181.995 16.811 A 21.201 21.201 0 0 0 182.163 16.52 A 9.536 9.536 0 0 0 182.278 16.31 Q 182.501 15.894 182.503 15.762 A 0.155 0.155 0 0 0 182.503 15.76 A 0.471 0.471 0 0 1 182.531 15.609 Q 182.604 15.396 182.863 15.08 Q 183.047 14.835 183.172 14.672 A 19.08 19.08 0 0 1 183.243 14.58 A 0.759 0.759 0 0 1 183.349 14.471 Q 183.502 14.341 183.783 14.2 A 1.086 1.086 0 0 1 183.926 14.14 Q 184.042 14.102 184.146 14.102 A 0.506 0.506 0 0 1 184.343 14.14 A 0.927 0.927 0 0 1 184.513 14.235 Q 184.679 14.35 184.863 14.56 Q 185.063 14.72 185.083 15.04 A 8.213 8.213 0 0 1 185.092 15.21 Q 185.102 15.471 185.103 15.817 A 22.925 22.925 0 0 1 185.103 15.84 A 8.263 8.263 0 0 1 185.014 16.14 Q 184.909 16.475 184.746 16.917 A 26.616 26.616 0 0 1 184.723 16.98 Q 184.463 17.68 184.163 18.3 Q 183.863 18.92 183.663 19.16 Q 183.503 19.32 183.103 19.74 Q 182.703 20.16 182.383 20.64 A 35.82 35.82 0 0 1 181.945 21.156 Q 181.397 21.789 181.071 22.088 A 3.023 3.023 0 0 1 180.943 22.2 Q 180.532 22.536 180.226 22.837 A 7.422 7.422 0 0 0 180.183 22.88 A 6.858 6.858 0 0 1 179.282 23.644 A 5.371 5.371 0 0 1 178.423 24.14 Q 177.519 24.553 176.712 24.56 A 3.207 3.207 0 0 1 176.683 24.56 Q 175.863 24.56 175.303 24.16 A 2.245 2.245 0 0 1 174.455 23.432 Q 174.167 23.008 174.091 22.435 A 3.286 3.286 0 0 1 174.063 22 A 1.768 1.768 0 0 0 174.032 21.661 A 1.436 1.436 0 0 0 173.963 21.42 L 173.863 21.16 A 0.864 0.864 0 0 0 173.747 21.169 Q 173.618 21.186 173.443 21.24 A 0.526 0.526 0 0 0 173.278 21.329 Q 173.141 21.435 172.998 21.648 A 2.835 2.835 0 0 0 172.903 21.8 A 3.966 3.966 0 0 1 172.507 22.399 Q 172.202 22.786 171.763 23.18 A 10.077 10.077 0 0 1 170.78 23.961 A 8.335 8.335 0 0 1 170.183 24.34 Q 169.507 24.729 169.06 24.789 A 1.175 1.175 0 0 1 168.903 24.8 Z M 1.663 15.04 L 2.743 12.72 L 1.143 12.28 Q 0.863 12.2 0.683 11.96 Q 0.531 11.758 0.507 11.612 A 0.323 0.323 0 0 1 0.503 11.56 A 0.742 0.742 0 0 1 0.544 11.326 Q 0.613 11.12 0.795 10.869 A 3.179 3.179 0 0 1 0.863 10.78 A 4.242 4.242 0 0 1 0.991 10.624 Q 1.253 10.32 1.383 10.32 Q 1.568 10.357 2.046 10.36 A 13.587 13.587 0 0 0 2.123 10.36 Q 2.663 10.36 3.183 10.32 Q 3.594 10.288 3.755 10.257 A 0.573 0.573 0 0 0 3.823 10.24 A 1.365 1.365 0 0 0 4.003 10.131 A 1.774 1.774 0 0 0 4.143 10.02 Q 4.303 9.88 4.383 9.6 Q 4.583 9.16 4.743 8.78 Q 4.865 8.489 5.058 8.14 A 10.551 10.551 0 0 1 5.183 7.92 A 47.517 47.517 0 0 0 5.379 7.553 Q 5.53 7.265 5.643 7.04 Q 5.823 6.68 6.223 6.04 Q 6.376 5.826 6.553 5.541 A 14.428 14.428 0 0 0 6.663 5.36 Q 6.903 4.96 7.263 4.68 A 1.404 1.404 0 0 1 7.506 4.504 Q 7.728 4.379 7.958 4.379 A 0.849 0.849 0 0 1 8.003 4.38 Q 8.31 4.396 8.76 4.739 A 4.486 4.486 0 0 1 8.983 4.92 A 4.419 4.419 0 0 1 9.117 5.097 Q 9.312 5.367 9.343 5.52 Q 9.383 5.72 9.023 6.28 A 13.495 13.495 0 0 1 8.386 7.47 A 14.834 14.834 0 0 1 8.283 7.64 Q 7.863 8.32 7.503 9 A 4.825 4.825 0 0 0 7.359 9.208 Q 6.93 9.869 7.237 9.991 A 0.31 0.31 0 0 0 7.263 10 A 0.707 0.707 0 0 0 7.371 10.022 Q 7.87 10.089 9.503 9.84 Q 10.474 9.673 10.996 9.855 A 1.098 1.098 0 0 1 11.183 9.94 A 1.165 1.165 0 0 1 11.742 10.697 A 1.73 1.73 0 0 1 11.783 10.92 A 4.797 4.797 0 0 1 11.803 11.108 Q 11.87 11.9 11.583 12.08 A 0.744 0.744 0 0 1 11.386 12.158 Q 10.931 12.28 9.743 12.28 A 17.215 17.215 0 0 1 9.062 12.38 Q 8.732 12.422 8.444 12.442 A 8.136 8.136 0 0 1 8.103 12.46 A 79.979 79.979 0 0 1 7.785 12.469 Q 7.365 12.479 7.127 12.48 A 10.861 10.861 0 0 1 7.103 12.48 A 34.926 34.926 0 0 1 6.893 12.496 Q 6.629 12.514 6.494 12.519 A 2.23 2.23 0 0 1 6.423 12.52 A 0.952 0.952 0 0 0 6.32 12.526 Q 6.173 12.542 5.943 12.6 Q 5.725 12.655 5.59 12.755 A 0.564 0.564 0 0 0 5.483 12.86 Q 5.343 13.04 5.183 13.36 A 0.758 0.758 0 0 0 5.105 13.455 Q 4.979 13.633 4.784 14.03 A 12.742 12.742 0 0 0 4.703 14.2 Q 4.385 14.875 3.91 15.668 A 21.765 21.765 0 0 1 3.903 15.68 Q 3.343 17.36 2.943 19.02 A 40.09 40.09 0 0 0 2.398 21.652 A 35.631 35.631 0 0 0 2.303 22.24 Q 2.143 23.24 2.343 23.62 A 0.628 0.628 0 0 0 2.576 23.859 Q 2.851 24.029 3.383 24.08 Q 3.795 24.117 4.681 24.067 A 27.365 27.365 0 0 0 4.803 24.06 Q 5.712 24.004 6.259 23.863 A 3.438 3.438 0 0 0 6.343 23.84 Q 6.783 23.64 7.263 23.42 A 9.647 9.647 0 0 0 7.832 23.137 A 8.007 8.007 0 0 0 8.143 22.96 Q 8.503 22.76 8.863 22.54 L 9.223 22.32 Q 9.405 22.029 9.62 22.102 A 0.343 0.343 0 0 1 9.663 22.12 A 0.513 0.513 0 0 1 9.818 22.245 Q 9.958 22.405 10.063 22.72 A 2.566 2.566 0 0 1 9.981 23.351 A 3.254 3.254 0 0 1 9.863 23.72 A 1.031 1.031 0 0 1 9.681 24.009 Q 9.324 24.431 8.383 24.96 A 12.256 12.256 0 0 1 7.101 25.661 Q 6.032 26.161 5.083 26.3 Q 3.583 26.52 2.543 26.32 A 1.593 1.593 0 0 1 2.126 26.179 Q 1.949 26.092 1.768 25.958 A 3.035 3.035 0 0 1 1.643 25.86 Q 1.183 25.48 0.843 24.98 A 4.82 4.82 0 0 1 0.627 24.634 Q 0.46 24.336 0.383 24.08 A 0.171 0.171 0 0 0 0.372 24.024 Q 0.355 23.975 0.311 23.915 A 0.829 0.829 0 0 0 0.283 23.88 L 0.183 23.76 A 0.223 0.223 0 0 1 0.12 23.668 Q 0.018 23.434 0.003 22.7 A 12.839 12.839 0 0 1 0 22.427 Q 0 21.594 0.103 20.6 A 25.037 25.037 0 0 1 0.182 19.922 Q 0.273 19.228 0.383 18.76 A 21.83 21.83 0 0 1 0.495 18.411 Q 0.624 18.022 0.806 17.51 A 76.298 76.298 0 0 1 0.983 17.02 A 62.533 62.533 0 0 0 1.331 16.037 Q 1.514 15.508 1.663 15.04 Z M 56.143 15.04 L 57.223 12.72 L 55.623 12.28 Q 55.343 12.2 55.163 11.96 Q 55.011 11.758 54.987 11.612 A 0.323 0.323 0 0 1 54.983 11.56 A 0.742 0.742 0 0 1 55.024 11.326 Q 55.093 11.12 55.275 10.869 A 3.179 3.179 0 0 1 55.343 10.78 A 4.242 4.242 0 0 1 55.471 10.624 Q 55.733 10.32 55.863 10.32 Q 56.048 10.357 56.526 10.36 A 13.587 13.587 0 0 0 56.603 10.36 Q 57.143 10.36 57.663 10.32 Q 58.074 10.288 58.235 10.257 A 0.573 0.573 0 0 0 58.303 10.24 A 1.365 1.365 0 0 0 58.483 10.131 A 1.774 1.774 0 0 0 58.623 10.02 Q 58.783 9.88 58.863 9.6 Q 59.063 9.16 59.223 8.78 Q 59.345 8.489 59.538 8.14 A 10.551 10.551 0 0 1 59.663 7.92 A 47.517 47.517 0 0 0 59.859 7.553 Q 60.01 7.265 60.123 7.04 Q 60.303 6.68 60.703 6.04 Q 60.856 5.826 61.033 5.541 A 14.428 14.428 0 0 0 61.143 5.36 Q 61.383 4.96 61.743 4.68 A 1.404 1.404 0 0 1 61.986 4.504 Q 62.208 4.379 62.438 4.379 A 0.849 0.849 0 0 1 62.483 4.38 Q 62.79 4.396 63.24 4.739 A 4.486 4.486 0 0 1 63.463 4.92 A 4.419 4.419 0 0 1 63.597 5.097 Q 63.792 5.367 63.823 5.52 Q 63.863 5.72 63.503 6.28 A 13.495 13.495 0 0 1 62.866 7.47 A 14.834 14.834 0 0 1 62.763 7.64 Q 62.343 8.32 61.983 9 A 4.825 4.825 0 0 0 61.839 9.208 Q 61.41 9.869 61.717 9.991 A 0.31 0.31 0 0 0 61.743 10 A 0.707 0.707 0 0 0 61.851 10.022 Q 62.35 10.089 63.983 9.84 Q 64.954 9.673 65.476 9.855 A 1.098 1.098 0 0 1 65.663 9.94 A 1.165 1.165 0 0 1 66.222 10.697 A 1.73 1.73 0 0 1 66.263 10.92 A 4.797 4.797 0 0 1 66.283 11.108 Q 66.35 11.9 66.063 12.08 A 0.744 0.744 0 0 1 65.866 12.158 Q 65.411 12.28 64.223 12.28 A 17.215 17.215 0 0 1 63.542 12.38 Q 63.212 12.422 62.924 12.442 A 8.136 8.136 0 0 1 62.583 12.46 A 79.979 79.979 0 0 1 62.265 12.469 Q 61.845 12.479 61.607 12.48 A 10.861 10.861 0 0 1 61.583 12.48 A 34.926 34.926 0 0 1 61.373 12.496 Q 61.109 12.514 60.974 12.519 A 2.23 2.23 0 0 1 60.903 12.52 A 0.952 0.952 0 0 0 60.8 12.526 Q 60.653 12.542 60.423 12.6 Q 60.205 12.655 60.07 12.755 A 0.564 0.564 0 0 0 59.963 12.86 Q 59.823 13.04 59.663 13.36 A 0.758 0.758 0 0 0 59.585 13.455 Q 59.459 13.633 59.264 14.03 A 12.742 12.742 0 0 0 59.183 14.2 Q 58.865 14.875 58.39 15.668 A 21.765 21.765 0 0 1 58.383 15.68 Q 57.823 17.36 57.423 19.02 A 40.09 40.09 0 0 0 56.878 21.652 A 35.631 35.631 0 0 0 56.783 22.24 Q 56.623 23.24 56.823 23.62 A 0.628 0.628 0 0 0 57.056 23.859 Q 57.331 24.029 57.863 24.08 Q 58.275 24.117 59.161 24.067 A 27.365 27.365 0 0 0 59.283 24.06 Q 60.192 24.004 60.739 23.863 A 3.438 3.438 0 0 0 60.823 23.84 Q 61.263 23.64 61.743 23.42 A 9.647 9.647 0 0 0 62.312 23.137 A 8.007 8.007 0 0 0 62.623 22.96 Q 62.983 22.76 63.343 22.54 L 63.703 22.32 Q 63.885 22.029 64.1 22.102 A 0.343 0.343 0 0 1 64.143 22.12 A 0.513 0.513 0 0 1 64.298 22.245 Q 64.438 22.405 64.543 22.72 A 2.566 2.566 0 0 1 64.461 23.351 A 3.254 3.254 0 0 1 64.343 23.72 A 1.031 1.031 0 0 1 64.161 24.009 Q 63.804 24.431 62.863 24.96 A 12.256 12.256 0 0 1 61.581 25.661 Q 60.512 26.161 59.563 26.3 Q 58.063 26.52 57.023 26.32 A 1.593 1.593 0 0 1 56.606 26.179 Q 56.429 26.092 56.248 25.958 A 3.035 3.035 0 0 1 56.123 25.86 Q 55.663 25.48 55.323 24.98 A 4.82 4.82 0 0 1 55.107 24.634 Q 54.94 24.336 54.863 24.08 A 0.171 0.171 0 0 0 54.852 24.024 Q 54.835 23.975 54.791 23.915 A 0.829 0.829 0 0 0 54.763 23.88 L 54.663 23.76 A 0.223 0.223 0 0 1 54.6 23.668 Q 54.498 23.434 54.483 22.7 A 12.839 12.839 0 0 1 54.48 22.427 Q 54.48 21.594 54.583 20.6 A 25.037 25.037 0 0 1 54.662 19.922 Q 54.753 19.228 54.863 18.76 A 21.83 21.83 0 0 1 54.975 18.411 Q 55.104 18.022 55.286 17.51 A 76.298 76.298 0 0 1 55.463 17.02 A 62.533 62.533 0 0 0 55.811 16.037 Q 55.994 15.508 56.143 15.04 Z M 118.943 20.64 L 119.183 20.64 Q 118.303 21.2 117.623 21.92 A 4.709 4.709 0 0 1 116.518 22.778 A 5.864 5.864 0 0 1 115.903 23.08 Q 115.663 23.36 114.723 23.42 A 5.178 5.178 0 0 1 114.393 23.431 A 4.885 4.885 0 0 1 112.903 23.2 Q 112.353 22.886 112.092 22.726 A 9.088 9.088 0 0 1 112.083 22.72 Q 111.823 22.56 111.683 22.28 Q 111.545 22.005 111.312 21.422 A 31.407 31.407 0 0 1 111.303 21.4 A 1.508 1.508 0 0 1 111.2 21.087 Q 111.085 20.566 111.188 19.698 A 9.492 9.492 0 0 1 111.223 19.44 A 12.759 12.759 0 0 1 111.879 16.89 A 14.082 14.082 0 0 1 111.943 16.72 A 9.151 9.151 0 0 1 112.447 15.814 Q 112.731 15.363 113.093 14.883 A 16.877 16.877 0 0 1 113.343 14.56 A 17.417 17.417 0 0 1 115.238 12.519 A 16.163 16.163 0 0 1 115.303 12.46 A 8.258 8.258 0 0 1 115.933 11.941 Q 116.6 11.449 117.173 11.283 A 2.475 2.475 0 0 1 117.183 11.28 A 2.353 2.353 0 0 1 117.789 11.077 A 2.681 2.681 0 0 1 117.883 11.06 Q 118.263 11 118.983 11.2 A 4.3 4.3 0 0 1 119.377 11.264 Q 119.769 11.347 120.015 11.495 A 1.262 1.262 0 0 1 120.023 11.5 A 3.596 3.596 0 0 1 120.23 11.639 Q 120.583 11.89 121.183 12.4 A 7.405 7.405 0 0 1 121.685 12.953 A 5.745 5.745 0 0 1 122.043 13.44 Q 122.383 13.96 122.583 14.52 Q 122.863 15.12 122.803 15.62 Q 122.749 16.069 122.421 16.535 A 3.177 3.177 0 0 1 122.343 16.64 Q 121.983 17.16 121.583 17.68 A 2.608 2.608 0 0 0 121.291 18.169 Q 121.173 18.421 121.082 18.729 A 5.58 5.58 0 0 0 120.983 19.12 A 18.844 18.844 0 0 1 120.762 20.227 Q 120.633 20.789 120.462 21.404 A 31.928 31.928 0 0 1 120.343 21.82 Q 119.903 23.32 119.583 24.6 L 118.943 27.08 A 51.545 51.545 0 0 1 118.388 28.855 Q 117.69 30.947 117.043 32.14 A 11.474 11.474 0 0 1 116.599 32.894 Q 115.943 33.91 115.343 34.24 A 2.672 2.672 0 0 1 114.358 34.43 Q 113.924 34.43 113.476 34.288 A 3.724 3.724 0 0 1 113.003 34.1 A 5.186 5.186 0 0 1 111.364 32.859 A 6.474 6.474 0 0 1 110.903 32.28 A 2.49 2.49 0 0 1 110.808 32.124 Q 110.681 31.899 110.523 31.54 Q 110.303 31.04 110.123 30.52 A 5.513 5.513 0 0 1 110.008 30.147 Q 109.928 29.85 109.903 29.6 Q 109.863 29.2 109.983 29.12 A 0.284 0.284 0 0 1 110.1 29.051 Q 110.211 29.015 110.383 29.04 A 1.38 1.38 0 0 1 110.858 29.202 A 1.61 1.61 0 0 1 110.923 29.24 A 0.939 0.939 0 0 1 111.099 29.377 A 0.672 0.672 0 0 1 111.263 29.64 A 3.798 3.798 0 0 0 111.352 29.831 Q 111.457 30.042 111.619 30.32 A 12.961 12.961 0 0 0 111.643 30.36 A 5.15 5.15 0 0 0 112.182 31.113 A 4.754 4.754 0 0 0 112.223 31.16 A 3.901 3.901 0 0 0 112.355 31.302 Q 112.578 31.529 112.703 31.56 A 5.955 5.955 0 0 0 113.025 31.702 Q 113.535 31.908 113.814 31.881 A 0.606 0.606 0 0 0 113.823 31.88 A 1.349 1.349 0 0 0 114.372 31.699 A 1.318 1.318 0 0 0 114.463 31.64 A 3.897 3.897 0 0 0 115.379 30.632 A 4.704 4.704 0 0 0 115.583 30.28 A 8.072 8.072 0 0 0 115.84 29.735 Q 116.101 29.13 116.398 28.247 A 36.471 36.471 0 0 0 116.583 27.68 Q 117.023 26.2 117.483 24.54 Q 117.898 23.041 118.232 22.145 A 12.277 12.277 0 0 1 118.303 21.96 A 4.514 4.514 0 0 1 118.419 21.567 Q 118.502 21.331 118.603 21.14 A 3.599 3.599 0 0 1 118.713 20.946 Q 118.82 20.771 118.92 20.664 A 0.969 0.969 0 0 1 118.943 20.64 Z M 275.743 22.52 L 275.823 21.68 L 274.263 22.92 A 12.413 12.413 0 0 1 273.174 23.783 Q 272.599 24.186 272.043 24.459 A 6.698 6.698 0 0 1 271.643 24.64 Q 270.698 25.03 269.922 25.127 A 4.004 4.004 0 0 1 269.423 25.16 A 2.792 2.792 0 0 1 268.79 24.962 A 3.36 3.36 0 0 1 268.543 24.84 Q 268.103 24.6 267.763 24.24 A 3.348 3.348 0 0 1 267.369 23.738 A 2.892 2.892 0 0 1 267.223 23.48 Q 267.014 22.992 267.063 22.2 A 5.754 5.754 0 0 1 267.083 21.96 Q 267.183 21 267.563 19.86 Q 267.943 18.72 268.523 17.62 A 9.808 9.808 0 0 1 269.45 16.173 A 8.582 8.582 0 0 1 269.863 15.68 A 8.954 8.954 0 0 1 270.664 14.63 Q 271.119 14.123 271.595 13.786 A 3.698 3.698 0 0 1 272.703 13.24 A 3.614 3.614 0 0 1 273.712 13.093 Q 274.716 13.093 275.703 13.68 A 14.886 14.886 0 0 0 276.037 13.817 Q 276.769 14.106 276.992 14.081 A 0.253 0.253 0 0 0 277.003 14.08 A 0.237 0.237 0 0 0 277.139 13.997 Q 277.317 13.803 277.463 13.16 Q 277.623 12.52 277.783 11.86 A 14.786 14.786 0 0 1 277.902 11.403 Q 278.055 10.85 278.303 10.08 A 105.33 105.33 0 0 1 278.787 8.643 Q 279.488 6.61 280.043 5.32 A 134.355 134.355 0 0 1 280.578 4.092 Q 281.008 3.12 281.383 2.32 Q 281.79 1.468 282.077 1.217 A 0.672 0.672 0 0 1 282.123 1.18 A 1.036 1.036 0 0 1 282.346 1.054 Q 282.493 0.994 282.645 0.994 A 0.789 0.789 0 0 1 282.743 1 A 1.15 1.15 0 0 1 283.457 1.249 A 1.504 1.504 0 0 1 283.543 1.32 Q 283.9 1.638 284.1 2.192 A 3.016 3.016 0 0 1 284.103 2.2 A 2.064 2.064 0 0 1 284.184 2.411 Q 284.257 2.639 284.243 2.82 A 0.924 0.924 0 0 1 284.212 2.99 Q 284.152 3.211 283.983 3.52 A 23.082 23.082 0 0 0 283.604 4.253 Q 283.413 4.638 283.203 5.09 A 57.121 57.121 0 0 0 282.763 6.06 Q 282.063 7.64 281.363 9.52 Q 280.663 11.4 280.063 13.24 Q 279.65 14.505 279.332 15.562 A 68.938 68.938 0 0 0 279.063 16.48 A 11.642 11.642 0 0 0 278.898 17.175 Q 278.828 17.512 278.764 17.898 A 25.958 25.958 0 0 0 278.643 18.72 Q 278.463 20.08 278.343 21.5 A 47.844 47.844 0 0 0 278.257 22.681 Q 278.225 23.221 278.21 23.704 A 27.324 27.324 0 0 0 278.203 24.02 A 25.342 25.342 0 0 0 278.2 24.229 Q 278.191 25.152 278.263 25.44 A 8.549 8.549 0 0 1 278.36 25.788 Q 278.484 26.278 278.484 26.576 A 1.281 1.281 0 0 1 278.483 26.64 Q 278.463 27.04 278.263 27.18 A 0.73 0.73 0 0 1 278.106 27.261 Q 277.919 27.333 277.623 27.36 Q 277.103 27.48 276.763 27.22 Q 276.423 26.96 276.263 26.48 A 9.329 9.329 0 0 1 275.92 25.195 A 11.372 11.372 0 0 1 275.803 24.46 Q 275.676 23.46 275.73 22.675 A 6.073 6.073 0 0 1 275.743 22.52 Z M 425.663 22.52 L 425.743 21.68 L 424.183 22.92 A 12.413 12.413 0 0 1 423.094 23.783 Q 422.519 24.186 421.963 24.459 A 6.698 6.698 0 0 1 421.563 24.64 Q 420.618 25.03 419.842 25.127 A 4.004 4.004 0 0 1 419.343 25.16 A 2.792 2.792 0 0 1 418.71 24.962 A 3.36 3.36 0 0 1 418.463 24.84 Q 418.023 24.6 417.683 24.24 A 3.348 3.348 0 0 1 417.289 23.738 A 2.892 2.892 0 0 1 417.143 23.48 Q 416.934 22.992 416.983 22.2 A 5.754 5.754 0 0 1 417.003 21.96 Q 417.103 21 417.483 19.86 Q 417.863 18.72 418.443 17.62 A 9.808 9.808 0 0 1 419.37 16.173 A 8.582 8.582 0 0 1 419.783 15.68 A 8.954 8.954 0 0 1 420.584 14.63 Q 421.039 14.123 421.515 13.786 A 3.698 3.698 0 0 1 422.623 13.24 A 3.614 3.614 0 0 1 423.632 13.093 Q 424.636 13.093 425.623 13.68 A 14.886 14.886 0 0 0 425.957 13.817 Q 426.689 14.106 426.912 14.081 A 0.253 0.253 0 0 0 426.923 14.08 A 0.237 0.237 0 0 0 427.059 13.997 Q 427.237 13.803 427.383 13.16 Q 427.543 12.52 427.703 11.86 A 14.786 14.786 0 0 1 427.822 11.403 Q 427.975 10.85 428.223 10.08 A 105.33 105.33 0 0 1 428.707 8.643 Q 429.408 6.61 429.963 5.32 A 134.355 134.355 0 0 1 430.498 4.092 Q 430.928 3.12 431.303 2.32 Q 431.71 1.468 431.997 1.217 A 0.672 0.672 0 0 1 432.043 1.18 A 1.036 1.036 0 0 1 432.266 1.054 Q 432.413 0.994 432.565 0.994 A 0.789 0.789 0 0 1 432.663 1 A 1.15 1.15 0 0 1 433.377 1.249 A 1.504 1.504 0 0 1 433.463 1.32 Q 433.82 1.638 434.02 2.192 A 3.016 3.016 0 0 1 434.023 2.2 A 2.064 2.064 0 0 1 434.104 2.411 Q 434.177 2.639 434.163 2.82 A 0.924 0.924 0 0 1 434.132 2.99 Q 434.072 3.211 433.903 3.52 A 23.082 23.082 0 0 0 433.524 4.253 Q 433.333 4.638 433.123 5.09 A 57.121 57.121 0 0 0 432.683 6.06 Q 431.983 7.64 431.283 9.52 Q 430.583 11.4 429.983 13.24 Q 429.57 14.505 429.252 15.562 A 68.938 68.938 0 0 0 428.983 16.48 A 11.642 11.642 0 0 0 428.818 17.175 Q 428.748 17.512 428.684 17.898 A 25.958 25.958 0 0 0 428.563 18.72 Q 428.383 20.08 428.263 21.5 A 47.844 47.844 0 0 0 428.177 22.681 Q 428.145 23.221 428.13 23.704 A 27.324 27.324 0 0 0 428.123 24.02 A 25.342 25.342 0 0 0 428.12 24.229 Q 428.111 25.152 428.183 25.44 A 8.549 8.549 0 0 1 428.28 25.788 Q 428.404 26.278 428.404 26.576 A 1.281 1.281 0 0 1 428.403 26.64 Q 428.383 27.04 428.183 27.18 A 0.73 0.73 0 0 1 428.026 27.261 Q 427.839 27.333 427.543 27.36 Q 427.023 27.48 426.683 27.22 Q 426.343 26.96 426.183 26.48 A 9.329 9.329 0 0 1 425.84 25.195 A 11.372 11.372 0 0 1 425.723 24.46 Q 425.596 23.46 425.65 22.675 A 6.073 6.073 0 0 1 425.663 22.52 Z M 127.783 26.76 Q 127.023 26.44 126.343 25.9 Q 125.812 25.478 125.574 25.166 A 1.385 1.385 0 0 1 125.463 25 Q 125.463 24.64 125.583 24.5 A 0.232 0.232 0 0 1 125.667 24.442 Q 125.842 24.365 126.283 24.38 Q 126.817 24.398 127.979 24.536 A 66.159 66.159 0 0 1 128.183 24.56 Q 128.663 24.56 129.383 24.48 A 10.311 10.311 0 0 0 130.244 24.349 A 8.568 8.568 0 0 0 130.723 24.24 A 2.981 2.981 0 0 0 130.96 24.169 Q 131.327 24.041 131.41 23.871 A 0.249 0.249 0 0 0 131.423 23.84 A 0.429 0.429 0 0 0 131.465 23.838 Q 131.597 23.825 131.519 23.72 A 0.367 0.367 0 0 0 131.503 23.7 Q 131.383 23.56 131.223 23.4 Q 131.063 23.4 130.863 23.26 A 1.043 1.043 0 0 0 130.742 23.186 Q 130.678 23.153 130.618 23.137 A 0.43 0.43 0 0 0 130.503 23.12 A 0.276 0.276 0 0 0 130.465 22.987 Q 130.383 22.838 130.123 22.66 A 4.085 4.085 0 0 0 129.446 22.283 A 3.734 3.734 0 0 0 129.343 22.24 A 50.338 50.338 0 0 1 128.619 21.637 Q 128.183 21.266 127.823 20.94 Q 127.183 20.36 127.343 20.16 L 127.343 19.98 L 127.343 19.96 Q 127.097 19.96 126.804 19.342 A 4.982 4.982 0 0 1 126.723 19.16 A 5.032 5.032 0 0 1 126.516 18.583 Q 126.383 18.12 126.383 17.72 Q 126.383 17.25 126.651 16.531 A 7.284 7.284 0 0 1 126.663 16.5 A 8.662 8.662 0 0 1 127.041 15.649 A 11.102 11.102 0 0 1 127.423 14.96 Q 127.861 14.23 128.332 13.734 A 4.928 4.928 0 0 1 128.423 13.64 Q 128.974 13.119 129.736 12.54 A 24.912 24.912 0 0 1 130.223 12.18 A 27.426 27.426 0 0 1 131.832 11.1 A 24.279 24.279 0 0 1 132.363 10.78 A 12.944 12.944 0 0 1 132.992 10.434 Q 133.621 10.111 134.101 9.972 A 3.65 3.65 0 0 1 134.143 9.96 Q 134.838 9.69 135.44 9.68 A 2.768 2.768 0 0 1 135.483 9.68 A 2.337 2.337 0 0 1 136.119 9.764 A 1.985 1.985 0 0 1 136.583 9.96 A 2.342 2.342 0 0 1 137.104 10.32 A 2.904 2.904 0 0 1 137.323 10.54 A 7.836 7.836 0 0 1 137.753 11.063 A 6.727 6.727 0 0 1 137.923 11.3 A 3.797 3.797 0 0 1 138.068 11.528 Q 138.208 11.768 138.263 11.96 A 5.874 5.874 0 0 1 138.263 11.968 Q 138.263 12.206 138.243 12.469 A 9.068 9.068 0 0 1 138.183 13.02 A 7.519 7.519 0 0 1 138.101 13.501 Q 138.051 13.747 137.987 13.962 A 4.422 4.422 0 0 1 137.963 14.04 A 1.215 1.215 0 0 1 137.895 14.211 Q 137.792 14.419 137.637 14.466 A 0.323 0.323 0 0 1 137.543 14.48 L 137.443 14.5 Q 137.355 14.518 137.344 14.674 A 0.676 0.676 0 0 0 137.343 14.72 A 0.681 0.681 0 0 1 137.274 15.006 Q 137.169 15.232 136.906 15.49 A 3.588 3.588 0 0 1 136.743 15.64 A 5.882 5.882 0 0 1 136.287 15.924 Q 135.816 16.187 135.436 16.258 A 1.722 1.722 0 0 1 135.423 16.26 A 1.074 1.074 0 0 1 135.33 16.273 Q 134.853 16.315 134.743 15.84 A 1.649 1.649 0 0 1 134.676 15.744 Q 134.644 15.694 134.621 15.649 A 0.656 0.656 0 0 1 134.583 15.56 Q 134.543 15.44 134.383 15.44 L 134.263 15.32 A 0.349 0.349 0 0 1 134.186 15.199 Q 134.146 15.095 134.143 14.941 A 1.265 1.265 0 0 1 134.143 14.92 Q 134.143 14.76 134.263 14.62 L 134.383 14.48 A 0.253 0.253 0 0 0 134.503 14.445 Q 134.672 14.352 134.903 14.02 A 7.177 7.177 0 0 0 135.417 13.154 A 7.978 7.978 0 0 0 135.483 13.02 Q 135.711 12.545 135.739 12.333 A 0.415 0.415 0 0 0 135.743 12.28 Q 135.743 12.085 135.703 12.022 A 0.072 0.072 0 0 0 135.683 12 A 0.13 0.13 0 0 0 135.646 11.985 Q 135.557 11.96 135.311 11.96 A 5.095 5.095 0 0 0 135.303 11.96 Q 134.918 12.125 134.419 12.366 A 38.318 38.318 0 0 0 133.943 12.6 Q 133.143 13 132.443 13.38 Q 131.743 13.76 131.423 14.08 A 33.366 33.366 0 0 1 131.367 14.177 Q 131.264 14.356 131.228 14.411 A 0.641 0.641 0 0 1 131.223 14.42 Q 131.183 14.48 131.023 14.48 A 0.133 0.133 0 0 0 131.021 14.456 Q 131.002 14.357 130.808 14.569 A 2.5 2.5 0 0 0 130.763 14.62 Q 130.509 14.913 130.14 15.417 A 24.746 24.746 0 0 0 130.123 15.44 A 37.292 37.292 0 0 0 129.488 16.335 A 33.879 33.879 0 0 0 129.403 16.46 A 225.119 225.119 0 0 0 129.244 16.694 Q 129.023 17.02 128.903 17.2 A 0.246 0.246 0 0 0 128.866 17.252 Q 128.815 17.34 128.757 17.537 A 4.42 4.42 0 0 0 128.723 17.66 A 3.25 3.25 0 0 0 128.649 18.014 A 2.382 2.382 0 0 0 128.623 18.36 Q 128.52 18.669 128.566 18.854 A 0.323 0.323 0 0 0 128.663 19.02 A 7.218 7.218 0 0 0 128.773 19.117 Q 128.956 19.274 129.31 19.568 A 107.878 107.878 0 0 0 129.543 19.76 Q 130.943 20.8 131.743 21.48 Q 132.402 22.04 132.79 22.438 A 6.366 6.366 0 0 1 132.943 22.6 A 3.116 3.116 0 0 1 133.157 22.861 Q 133.367 23.15 133.423 23.4 A 5.545 5.545 0 0 1 133.668 23.851 Q 134.037 24.621 133.908 25.111 A 0.885 0.885 0 0 1 133.863 25.24 Q 133.6 25.84 132.634 26.3 A 5.623 5.623 0 0 1 132.503 26.36 A 1.939 1.939 0 0 1 132.237 26.466 Q 131.844 26.594 131.183 26.68 Q 130.263 26.8 129.303 26.82 Q 128.595 26.835 128.104 26.795 A 5.308 5.308 0 0 1 127.783 26.76 Z M 107.29 24.76 A 3.741 3.741 0 0 0 107.303 24.76 Q 107.6 24.686 107.777 24.555 A 0.596 0.596 0 0 0 108.023 24.18 Q 108.084 23.86 107.819 23.505 A 2.065 2.065 0 0 0 107.623 23.28 A 1.949 1.949 0 0 1 107.543 23.195 Q 107.346 22.973 107.163 22.64 A 3.042 3.042 0 0 1 107.107 22.533 Q 107.028 22.375 106.978 22.226 A 1.631 1.631 0 0 1 106.903 21.9 A 1.135 1.135 0 0 1 106.901 21.884 Q 106.868 21.56 107.063 21.56 L 107.063 21.54 L 107.063 21.36 A 0.403 0.403 0 0 1 107.01 21.357 Q 106.899 21.342 106.883 21.26 L 106.863 21.16 A 0.247 0.247 0 0 0 106.926 21.104 Q 107.076 20.921 107.143 20.32 Q 107.223 19.6 107.203 18.72 A 6.085 6.085 0 0 0 107.203 18.718 Q 107.19 18.142 107.116 17.72 A 3.269 3.269 0 0 0 107.023 17.32 Q 106.983 17.16 106.963 17 Q 106.943 16.84 106.943 16.68 A 0.826 0.826 0 0 0 106.905 16.566 Q 106.825 16.372 106.631 16.135 A 3.955 3.955 0 0 0 106.423 15.9 Q 105.983 15.44 105.483 15.1 A 3.658 3.658 0 0 0 105.363 15.022 Q 104.944 14.76 104.663 14.76 A 0.363 0.363 0 0 0 104.66 14.76 Q 104.5 14.761 104.143 14.9 A 8.81 8.81 0 0 0 104.009 14.953 A 7.849 7.849 0 0 0 103.463 15.2 Q 103.063 15.28 102.243 15.78 A 26.103 26.103 0 0 0 101.939 15.968 A 23.212 23.212 0 0 0 100.703 16.8 A 28.806 28.806 0 0 0 100.457 16.98 Q 99.946 17.357 99.783 17.52 Q 99.543 17.67 99.179 17.921 A 35.846 35.846 0 0 0 98.923 18.1 Q 98.383 18.48 97.963 18.76 L 97.543 19.04 A 0.657 0.657 0 0 1 97.545 18.984 Q 97.556 18.856 97.615 18.68 A 2.858 2.858 0 0 1 97.683 18.5 A 23.93 23.93 0 0 1 97.756 18.324 Q 97.845 18.113 97.972 17.821 A 101.24 101.24 0 0 1 98.103 17.52 A 19.673 19.673 0 0 0 98.521 16.812 Q 99.29 15.439 99.403 14.62 A 2.428 2.428 0 0 0 99.426 14.29 Q 99.426 13.797 99.221 13.319 A 3.289 3.289 0 0 0 98.823 12.64 A 2.558 2.558 0 0 0 98.759 12.558 Q 98.424 12.148 98.023 12.02 A 0.975 0.975 0 0 0 97.931 11.996 Q 97.674 11.941 97.46 12.052 A 0.812 0.812 0 0 0 97.263 12.2 A 0.332 0.332 0 0 0 97.076 12.256 A 0.449 0.449 0 0 0 96.983 12.34 A 0.432 0.432 0 0 0 96.936 12.405 Q 96.891 12.484 96.893 12.569 A 0.327 0.327 0 0 0 96.903 12.64 A 9.948 9.948 0 0 1 96.857 13.081 Q 96.813 13.422 96.748 13.715 A 4.788 4.788 0 0 1 96.603 14.24 A 4.393 4.393 0 0 1 96.582 14.299 Q 96.431 14.719 96.14 15.271 A 15.341 15.341 0 0 1 95.823 15.84 A 58.439 58.439 0 0 0 95.785 15.926 Q 95.653 16.229 95.508 16.571 A 99.899 99.899 0 0 0 95.203 17.3 A 13.013 13.013 0 0 0 95.115 17.516 Q 94.852 18.185 94.783 18.6 Q 94.463 19.08 94.323 19.48 Q 94.183 19.88 93.983 19.88 A 2.201 2.201 0 0 0 93.95 19.968 Q 93.891 20.136 93.797 20.461 A 30.639 30.639 0 0 0 93.723 20.72 Q 93.543 21.36 93.423 22 Q 93.303 22.64 93.303 22.84 Q 93.383 23 93.663 23.3 Q 93.943 23.6 94.223 23.92 Q 94.623 24.24 94.843 24.38 A 0.414 0.414 0 0 0 95.07 24.445 Q 95.16 24.445 95.261 24.411 A 0.954 0.954 0 0 0 95.383 24.36 Q 95.701 24.36 95.88 23.867 A 1.868 1.868 0 0 0 95.883 23.86 Q 96.019 23.481 96.558 22.838 A 13.051 13.051 0 0 1 96.943 22.4 Q 98.063 21.44 99.323 20.56 A 78.132 78.132 0 0 1 100.101 20.024 A 66.272 66.272 0 0 1 101.743 18.94 A 218.502 218.502 0 0 1 101.983 18.787 Q 102.979 18.154 103.623 17.76 Q 104.159 17.459 104.484 17.48 A 0.544 0.544 0 0 1 104.603 17.5 Q 104.874 17.58 104.954 18.104 A 2.926 2.926 0 0 1 104.983 18.4 A 21.458 21.458 0 0 0 104.986 18.752 A 17.615 17.615 0 0 0 105.003 19.3 Q 105.016 19.577 104.951 19.741 A 0.405 0.405 0 0 1 104.863 19.88 A 0.385 0.385 0 0 0 104.848 19.907 Q 104.743 20.119 104.743 20.7 A 8.271 8.271 0 0 0 104.757 21.176 A 10.076 10.076 0 0 0 104.843 22.02 Q 104.943 22.72 105.103 23.28 Q 105.301 23.721 105.548 24.022 A 1.936 1.936 0 0 0 105.983 24.42 A 1.798 1.798 0 0 0 106.129 24.506 Q 106.607 24.758 107.29 24.76 Z M 218.13 24.76 A 3.741 3.741 0 0 0 218.143 24.76 Q 218.44 24.686 218.617 24.555 A 0.596 0.596 0 0 0 218.863 24.18 Q 218.924 23.86 218.659 23.505 A 2.065 2.065 0 0 0 218.463 23.28 A 1.949 1.949 0 0 1 218.383 23.195 Q 218.186 22.973 218.003 22.64 A 3.042 3.042 0 0 1 217.947 22.533 Q 217.868 22.375 217.818 22.226 A 1.631 1.631 0 0 1 217.743 21.9 A 1.135 1.135 0 0 1 217.741 21.884 Q 217.708 21.56 217.903 21.56 L 217.903 21.54 L 217.903 21.36 A 0.403 0.403 0 0 1 217.85 21.357 Q 217.739 21.342 217.723 21.26 L 217.703 21.16 A 0.247 0.247 0 0 0 217.766 21.104 Q 217.916 20.921 217.983 20.32 Q 218.063 19.6 218.043 18.72 A 6.085 6.085 0 0 0 218.043 18.718 Q 218.03 18.142 217.956 17.72 A 3.269 3.269 0 0 0 217.863 17.32 Q 217.823 17.16 217.803 17 Q 217.783 16.84 217.783 16.68 A 0.826 0.826 0 0 0 217.745 16.566 Q 217.665 16.372 217.471 16.135 A 3.955 3.955 0 0 0 217.263 15.9 Q 216.823 15.44 216.323 15.1 A 3.658 3.658 0 0 0 216.203 15.022 Q 215.784 14.76 215.503 14.76 A 0.363 0.363 0 0 0 215.5 14.76 Q 215.34 14.761 214.983 14.9 A 8.81 8.81 0 0 0 214.849 14.953 A 7.849 7.849 0 0 0 214.303 15.2 Q 213.903 15.28 213.083 15.78 A 26.103 26.103 0 0 0 212.779 15.968 A 23.212 23.212 0 0 0 211.543 16.8 A 28.806 28.806 0 0 0 211.297 16.98 Q 210.786 17.357 210.623 17.52 Q 210.383 17.67 210.019 17.921 A 35.846 35.846 0 0 0 209.763 18.1 Q 209.223 18.48 208.803 18.76 L 208.383 19.04 A 0.657 0.657 0 0 1 208.385 18.984 Q 208.396 18.856 208.455 18.68 A 2.858 2.858 0 0 1 208.523 18.5 A 23.93 23.93 0 0 1 208.596 18.324 Q 208.685 18.113 208.812 17.821 A 101.24 101.24 0 0 1 208.943 17.52 A 19.673 19.673 0 0 0 209.361 16.812 Q 210.13 15.439 210.243 14.62 A 2.428 2.428 0 0 0 210.266 14.29 Q 210.266 13.797 210.061 13.319 A 3.289 3.289 0 0 0 209.663 12.64 A 2.558 2.558 0 0 0 209.599 12.558 Q 209.264 12.148 208.863 12.02 A 0.975 0.975 0 0 0 208.771 11.996 Q 208.514 11.941 208.3 12.052 A 0.812 0.812 0 0 0 208.103 12.2 A 0.332 0.332 0 0 0 207.916 12.256 A 0.449 0.449 0 0 0 207.823 12.34 A 0.432 0.432 0 0 0 207.776 12.405 Q 207.731 12.484 207.733 12.569 A 0.327 0.327 0 0 0 207.743 12.64 A 9.948 9.948 0 0 1 207.697 13.081 Q 207.653 13.422 207.588 13.715 A 4.788 4.788 0 0 1 207.443 14.24 A 4.393 4.393 0 0 1 207.422 14.299 Q 207.271 14.719 206.98 15.271 A 15.341 15.341 0 0 1 206.663 15.84 A 58.439 58.439 0 0 0 206.625 15.926 Q 206.493 16.229 206.348 16.571 A 99.899 99.899 0 0 0 206.043 17.3 A 13.013 13.013 0 0 0 205.955 17.516 Q 205.692 18.185 205.623 18.6 Q 205.303 19.08 205.163 19.48 Q 205.023 19.88 204.823 19.88 A 2.201 2.201 0 0 0 204.79 19.968 Q 204.731 20.136 204.637 20.461 A 30.639 30.639 0 0 0 204.563 20.72 Q 204.383 21.36 204.263 22 Q 204.143 22.64 204.143 22.84 Q 204.223 23 204.503 23.3 Q 204.783 23.6 205.063 23.92 Q 205.463 24.24 205.683 24.38 A 0.414 0.414 0 0 0 205.91 24.445 Q 206 24.445 206.101 24.411 A 0.954 0.954 0 0 0 206.223 24.36 Q 206.541 24.36 206.72 23.867 A 1.868 1.868 0 0 0 206.723 23.86 Q 206.859 23.481 207.398 22.838 A 13.051 13.051 0 0 1 207.783 22.4 Q 208.903 21.44 210.163 20.56 A 78.132 78.132 0 0 1 210.941 20.024 A 66.272 66.272 0 0 1 212.583 18.94 A 218.502 218.502 0 0 1 212.823 18.787 Q 213.819 18.154 214.463 17.76 Q 214.999 17.459 215.324 17.48 A 0.544 0.544 0 0 1 215.443 17.5 Q 215.714 17.58 215.794 18.104 A 2.926 2.926 0 0 1 215.823 18.4 A 21.458 21.458 0 0 0 215.826 18.752 A 17.615 17.615 0 0 0 215.843 19.3 Q 215.856 19.577 215.791 19.741 A 0.405 0.405 0 0 1 215.703 19.88 A 0.385 0.385 0 0 0 215.688 19.907 Q 215.583 20.119 215.583 20.7 A 8.271 8.271 0 0 0 215.597 21.176 A 10.076 10.076 0 0 0 215.683 22.02 Q 215.783 22.72 215.943 23.28 Q 216.141 23.721 216.388 24.022 A 1.936 1.936 0 0 0 216.823 24.42 A 1.798 1.798 0 0 0 216.969 24.506 Q 217.447 24.758 218.13 24.76 Z M 236.13 24.76 A 3.741 3.741 0 0 0 236.143 24.76 Q 236.44 24.686 236.617 24.555 A 0.596 0.596 0 0 0 236.863 24.18 Q 236.924 23.86 236.659 23.505 A 2.065 2.065 0 0 0 236.463 23.28 A 1.949 1.949 0 0 1 236.383 23.195 Q 236.186 22.973 236.003 22.64 A 3.042 3.042 0 0 1 235.947 22.533 Q 235.868 22.375 235.818 22.226 A 1.631 1.631 0 0 1 235.743 21.9 A 1.135 1.135 0 0 1 235.741 21.884 Q 235.708 21.56 235.903 21.56 L 235.903 21.54 L 235.903 21.36 A 0.403 0.403 0 0 1 235.85 21.357 Q 235.739 21.342 235.723 21.26 L 235.703 21.16 A 0.247 0.247 0 0 0 235.766 21.104 Q 235.916 20.921 235.983 20.32 Q 236.063 19.6 236.043 18.72 A 6.085 6.085 0 0 0 236.043 18.718 Q 236.03 18.142 235.956 17.72 A 3.269 3.269 0 0 0 235.863 17.32 Q 235.823 17.16 235.803 17 Q 235.783 16.84 235.783 16.68 A 0.826 0.826 0 0 0 235.745 16.566 Q 235.665 16.372 235.471 16.135 A 3.955 3.955 0 0 0 235.263 15.9 Q 234.823 15.44 234.323 15.1 A 3.658 3.658 0 0 0 234.203 15.022 Q 233.784 14.76 233.503 14.76 A 0.363 0.363 0 0 0 233.5 14.76 Q 233.34 14.761 232.983 14.9 A 8.81 8.81 0 0 0 232.849 14.953 A 7.849 7.849 0 0 0 232.303 15.2 Q 231.903 15.28 231.083 15.78 A 26.103 26.103 0 0 0 230.779 15.968 A 23.212 23.212 0 0 0 229.543 16.8 A 28.806 28.806 0 0 0 229.297 16.98 Q 228.786 17.357 228.623 17.52 Q 228.383 17.67 228.019 17.921 A 35.846 35.846 0 0 0 227.763 18.1 Q 227.223 18.48 226.803 18.76 L 226.383 19.04 A 0.657 0.657 0 0 1 226.385 18.984 Q 226.396 18.856 226.455 18.68 A 2.858 2.858 0 0 1 226.523 18.5 A 23.93 23.93 0 0 1 226.596 18.324 Q 226.685 18.113 226.812 17.821 A 101.24 101.24 0 0 1 226.943 17.52 A 19.673 19.673 0 0 0 227.361 16.812 Q 228.13 15.439 228.243 14.62 A 2.428 2.428 0 0 0 228.266 14.29 Q 228.266 13.797 228.061 13.319 A 3.289 3.289 0 0 0 227.663 12.64 A 2.558 2.558 0 0 0 227.599 12.558 Q 227.264 12.148 226.863 12.02 A 0.975 0.975 0 0 0 226.771 11.996 Q 226.514 11.941 226.3 12.052 A 0.812 0.812 0 0 0 226.103 12.2 A 0.332 0.332 0 0 0 225.916 12.256 A 0.449 0.449 0 0 0 225.823 12.34 A 0.432 0.432 0 0 0 225.776 12.405 Q 225.731 12.484 225.733 12.569 A 0.327 0.327 0 0 0 225.743 12.64 A 9.948 9.948 0 0 1 225.697 13.081 Q 225.653 13.422 225.588 13.715 A 4.788 4.788 0 0 1 225.443 14.24 A 4.393 4.393 0 0 1 225.422 14.299 Q 225.271 14.719 224.98 15.271 A 15.341 15.341 0 0 1 224.663 15.84 A 58.439 58.439 0 0 0 224.625 15.926 Q 224.493 16.229 224.348 16.571 A 99.899 99.899 0 0 0 224.043 17.3 A 13.013 13.013 0 0 0 223.955 17.516 Q 223.692 18.185 223.623 18.6 Q 223.303 19.08 223.163 19.48 Q 223.023 19.88 222.823 19.88 A 2.201 2.201 0 0 0 222.79 19.968 Q 222.731 20.136 222.637 20.461 A 30.639 30.639 0 0 0 222.563 20.72 Q 222.383 21.36 222.263 22 Q 222.143 22.64 222.143 22.84 Q 222.223 23 222.503 23.3 Q 222.783 23.6 223.063 23.92 Q 223.463 24.24 223.683 24.38 A 0.414 0.414 0 0 0 223.91 24.445 Q 224 24.445 224.101 24.411 A 0.954 0.954 0 0 0 224.223 24.36 Q 224.541 24.36 224.72 23.867 A 1.868 1.868 0 0 0 224.723 23.86 Q 224.859 23.481 225.398 22.838 A 13.051 13.051 0 0 1 225.783 22.4 Q 226.903 21.44 228.163 20.56 A 78.132 78.132 0 0 1 228.941 20.024 A 66.272 66.272 0 0 1 230.583 18.94 A 218.502 218.502 0 0 1 230.823 18.787 Q 231.819 18.154 232.463 17.76 Q 232.999 17.459 233.324 17.48 A 0.544 0.544 0 0 1 233.443 17.5 Q 233.714 17.58 233.794 18.104 A 2.926 2.926 0 0 1 233.823 18.4 A 21.458 21.458 0 0 0 233.826 18.752 A 17.615 17.615 0 0 0 233.843 19.3 Q 233.856 19.577 233.791 19.741 A 0.405 0.405 0 0 1 233.703 19.88 A 0.385 0.385 0 0 0 233.688 19.907 Q 233.583 20.119 233.583 20.7 A 8.271 8.271 0 0 0 233.597 21.176 A 10.076 10.076 0 0 0 233.683 22.02 Q 233.783 22.72 233.943 23.28 Q 234.141 23.721 234.388 24.022 A 1.936 1.936 0 0 0 234.823 24.42 A 1.798 1.798 0 0 0 234.969 24.506 Q 235.447 24.758 236.13 24.76 Z M 189.623 15.8 L 189.623 15.56 Q 189.623 15.36 190.003 14.88 A 11.55 11.55 0 0 1 190.37 14.441 Q 190.628 14.146 190.943 13.82 Q 191.503 13.24 192.103 12.7 A 11.838 11.838 0 0 1 192.458 12.392 Q 192.789 12.118 193.044 11.956 A 3.039 3.039 0 0 1 193.103 11.92 A 4.397 4.397 0 0 1 194.118 11.411 A 3.774 3.774 0 0 1 194.843 11.24 A 2.516 2.516 0 0 1 195.129 11.218 Q 195.847 11.205 196.383 11.64 L 196.783 12.04 A 13.293 13.293 0 0 0 197.047 12.297 Q 197.184 12.426 197.338 12.566 A 22.562 22.562 0 0 0 197.443 12.66 A 359.52 359.52 0 0 1 198.217 13.354 A 396.211 396.211 0 0 1 198.223 13.36 L 199.703 14.68 L 198.983 16.68 Q 198.495 18.18 198.693 19.328 A 3.624 3.624 0 0 0 198.723 19.48 Q 198.983 20.68 199.503 21.56 A 1.437 1.437 0 0 0 199.729 21.904 Q 199.853 22.048 200.026 22.187 A 3.483 3.483 0 0 0 200.323 22.4 Q 200.862 22.748 201.356 22.854 A 2.156 2.156 0 0 0 201.503 22.88 Q 201.823 22.92 202.103 23.12 A 0.638 0.638 0 0 1 202.351 23.491 Q 202.38 23.601 202.383 23.733 A 1.348 1.348 0 0 1 202.383 23.76 A 1.629 1.629 0 0 1 202.364 24.016 Q 202.328 24.243 202.223 24.4 Q 202.063 24.64 201.663 24.72 A 3.613 3.613 0 0 1 201.228 24.747 Q 200.153 24.747 199.203 24.08 A 5.032 5.032 0 0 1 198.323 23.277 Q 197.68 22.547 197.103 21.44 Q 196.946 21.204 196.691 20.562 A 16.258 16.258 0 0 1 196.683 20.54 Q 196.474 20.009 196.407 19.776 A 1.246 1.246 0 0 1 196.383 19.68 A 36.18 36.18 0 0 1 196.292 19.792 Q 196.16 19.956 195.932 20.237 A 354.215 354.215 0 0 1 195.783 20.42 Q 195.343 20.96 195.103 21.2 A 33.837 33.837 0 0 1 193.485 22.743 Q 191.651 24.371 190.203 25.06 Q 189.117 25.576 188.226 25.576 A 2.6 2.6 0 0 1 186.783 25.16 A 1.616 1.616 0 0 0 186.615 24.891 A 1.226 1.226 0 0 0 186.383 24.66 A 1.1 1.1 0 0 1 186.284 24.577 Q 186.183 24.481 186.154 24.39 A 0.232 0.232 0 0 1 186.143 24.32 A 2.878 2.878 0 0 0 186.135 24.112 A 3.466 3.466 0 0 0 186.123 23.98 A 0.499 0.499 0 0 0 186.047 23.769 Q 186.009 23.707 185.951 23.648 A 0.893 0.893 0 0 0 185.943 23.64 Q 185.743 23.4 185.983 22.54 A 10.312 10.312 0 0 1 186.186 21.902 Q 186.301 21.574 186.45 21.204 A 24.37 24.37 0 0 1 186.783 20.42 A 34.61 34.61 0 0 1 187.54 18.832 A 42.934 42.934 0 0 1 188.103 17.76 A 3.546 3.546 0 0 0 188.38 17.445 Q 188.513 17.276 188.647 17.072 A 6.676 6.676 0 0 0 188.743 16.92 A 11.246 11.246 0 0 1 188.884 16.696 Q 189.1 16.363 189.223 16.24 Q 189.223 16.08 189.343 15.94 A 0.449 0.449 0 0 1 189.436 15.856 A 0.332 0.332 0 0 1 189.623 15.8 Z M 243.103 15.8 L 243.103 15.56 Q 243.103 15.36 243.483 14.88 A 11.55 11.55 0 0 1 243.85 14.441 Q 244.108 14.146 244.423 13.82 Q 244.983 13.24 245.583 12.7 A 11.838 11.838 0 0 1 245.938 12.392 Q 246.269 12.118 246.524 11.956 A 3.039 3.039 0 0 1 246.583 11.92 A 4.397 4.397 0 0 1 247.598 11.411 A 3.774 3.774 0 0 1 248.323 11.24 A 2.516 2.516 0 0 1 248.609 11.218 Q 249.327 11.205 249.863 11.64 L 250.263 12.04 A 13.293 13.293 0 0 0 250.527 12.297 Q 250.664 12.426 250.818 12.566 A 22.562 22.562 0 0 0 250.923 12.66 A 359.52 359.52 0 0 1 251.697 13.354 A 396.211 396.211 0 0 1 251.703 13.36 L 253.183 14.68 L 252.463 16.68 Q 251.975 18.18 252.173 19.328 A 3.624 3.624 0 0 0 252.203 19.48 Q 252.463 20.68 252.983 21.56 A 1.437 1.437 0 0 0 253.209 21.904 Q 253.333 22.048 253.506 22.187 A 3.483 3.483 0 0 0 253.803 22.4 Q 254.342 22.748 254.836 22.854 A 2.156 2.156 0 0 0 254.983 22.88 Q 255.303 22.92 255.583 23.12 A 0.638 0.638 0 0 1 255.831 23.491 Q 255.86 23.601 255.863 23.733 A 1.348 1.348 0 0 1 255.863 23.76 A 1.629 1.629 0 0 1 255.844 24.016 Q 255.808 24.243 255.703 24.4 Q 255.543 24.64 255.143 24.72 A 3.613 3.613 0 0 1 254.708 24.747 Q 253.633 24.747 252.683 24.08 A 5.032 5.032 0 0 1 251.803 23.277 Q 251.16 22.547 250.583 21.44 Q 250.426 21.204 250.171 20.562 A 16.258 16.258 0 0 1 250.163 20.54 Q 249.954 20.009 249.887 19.776 A 1.246 1.246 0 0 1 249.863 19.68 A 36.18 36.18 0 0 1 249.772 19.792 Q 249.64 19.956 249.412 20.237 A 354.215 354.215 0 0 1 249.263 20.42 Q 248.823 20.96 248.583 21.2 A 33.837 33.837 0 0 1 246.965 22.743 Q 245.131 24.371 243.683 25.06 Q 242.597 25.576 241.706 25.576 A 2.6 2.6 0 0 1 240.263 25.16 A 1.616 1.616 0 0 0 240.095 24.891 A 1.226 1.226 0 0 0 239.863 24.66 A 1.1 1.1 0 0 1 239.764 24.577 Q 239.663 24.481 239.634 24.39 A 0.232 0.232 0 0 1 239.623 24.32 A 2.878 2.878 0 0 0 239.615 24.112 A 3.466 3.466 0 0 0 239.603 23.98 A 0.499 0.499 0 0 0 239.527 23.769 Q 239.489 23.707 239.431 23.648 A 0.893 0.893 0 0 0 239.423 23.64 Q 239.223 23.4 239.463 22.54 A 10.312 10.312 0 0 1 239.666 21.902 Q 239.781 21.574 239.93 21.204 A 24.37 24.37 0 0 1 240.263 20.42 A 34.61 34.61 0 0 1 241.02 18.832 A 42.934 42.934 0 0 1 241.583 17.76 A 3.546 3.546 0 0 0 241.86 17.445 Q 241.993 17.276 242.127 17.072 A 6.676 6.676 0 0 0 242.223 16.92 A 11.246 11.246 0 0 1 242.364 16.696 Q 242.58 16.363 242.703 16.24 Q 242.703 16.08 242.823 15.94 A 0.449 0.449 0 0 1 242.916 15.856 A 0.332 0.332 0 0 1 243.103 15.8 Z M 38.223 25.2 Q 37.383 25.92 36.283 26.04 A 4.171 4.171 0 0 1 35.83 26.065 A 4.133 4.133 0 0 1 34.143 25.7 Q 33.103 25.24 32.423 24.28 Q 31.743 23.4 31.543 22.26 Q 31.343 21.122 31.502 19.286 A 20.801 20.801 0 0 1 31.503 19.28 A 7.085 7.085 0 0 1 31.988 17.224 A 8.998 8.998 0 0 1 32.503 16.14 Q 33.383 14.56 34.643 13.32 Q 35.702 12.278 36.746 11.773 A 5.327 5.327 0 0 1 37.143 11.6 A 3.35 3.35 0 0 1 37.451 11.416 Q 37.829 11.219 38.122 11.219 A 0.849 0.849 0 0 1 38.163 11.22 A 13.629 13.629 0 0 1 38.402 11.234 Q 38.793 11.259 39.431 11.317 A 86.747 86.747 0 0 1 39.463 11.32 Q 40.272 11.426 40.726 11.624 A 1.905 1.905 0 0 1 40.843 11.68 A 2.081 2.081 0 0 1 41.432 12.13 A 1.964 1.964 0 0 1 41.583 12.32 Q 42.183 12.92 42.383 13.5 Q 42.583 14.08 42.583 14.64 A 2.774 2.774 0 0 1 42.389 15.251 Q 42.092 15.929 41.403 16.78 A 7.331 7.331 0 0 1 39.57 18.383 A 9.023 9.023 0 0 1 38.743 18.84 A 5.262 5.262 0 0 1 37.492 19.072 Q 37.166 19.093 36.823 19.08 A 3.946 3.946 0 0 1 36.044 18.977 Q 35.551 18.857 35.167 18.604 A 2.453 2.453 0 0 1 35.103 18.56 Q 34.619 18.356 34.346 18.452 A 0.444 0.444 0 0 0 34.103 18.66 A 1.411 1.411 0 0 0 34 18.9 Q 33.86 19.311 33.734 20.155 A 22.939 22.939 0 0 0 33.663 20.68 A 8.773 8.773 0 0 0 33.629 21.091 Q 33.559 22.298 33.903 22.9 Q 34.303 23.6 34.983 23.72 A 35.882 35.882 0 0 0 35.362 23.794 Q 35.772 23.871 36.071 23.916 A 9.448 9.448 0 0 0 36.243 23.94 A 0.956 0.956 0 0 0 36.367 23.948 Q 36.783 23.948 37.359 23.614 A 4.32 4.32 0 0 0 37.383 23.6 A 26.715 26.715 0 0 1 37.606 23.462 Q 38.045 23.193 38.178 23.142 A 0.417 0.417 0 0 1 38.183 23.14 A 0.845 0.845 0 0 0 38.32 23.075 A 0.63 0.63 0 0 0 38.443 22.98 L 38.943 22.48 A 18.514 18.514 0 0 1 39.075 22.349 Q 39.219 22.208 39.323 22.114 A 4.264 4.264 0 0 1 39.383 22.06 A 0.57 0.57 0 0 1 39.561 21.952 A 0.521 0.521 0 0 1 39.743 21.92 Q 39.943 21.92 40.103 22.1 Q 40.263 22.28 40.423 22.36 A 0.477 0.477 0 0 1 40.523 22.37 Q 40.774 22.424 40.626 22.786 A 1.364 1.364 0 0 1 40.603 22.84 A 2.443 2.443 0 0 1 40.424 23.158 Q 40.217 23.474 39.863 23.854 A 8.97 8.97 0 0 1 39.743 23.98 A 7.816 7.816 0 0 1 38.799 24.803 A 9.493 9.493 0 0 1 38.223 25.2 Z M 331.103 25.2 Q 330.263 25.92 329.163 26.04 A 4.171 4.171 0 0 1 328.71 26.065 A 4.133 4.133 0 0 1 327.023 25.7 Q 325.983 25.24 325.303 24.28 Q 324.623 23.4 324.423 22.26 Q 324.223 21.122 324.382 19.286 A 20.801 20.801 0 0 1 324.383 19.28 A 7.085 7.085 0 0 1 324.868 17.224 A 8.998 8.998 0 0 1 325.383 16.14 Q 326.263 14.56 327.523 13.32 Q 328.582 12.278 329.626 11.773 A 5.327 5.327 0 0 1 330.023 11.6 A 3.35 3.35 0 0 1 330.331 11.416 Q 330.709 11.219 331.002 11.219 A 0.849 0.849 0 0 1 331.043 11.22 A 13.629 13.629 0 0 1 331.282 11.234 Q 331.673 11.259 332.311 11.317 A 86.747 86.747 0 0 1 332.343 11.32 Q 333.152 11.426 333.606 11.624 A 1.905 1.905 0 0 1 333.723 11.68 A 2.081 2.081 0 0 1 334.312 12.13 A 1.964 1.964 0 0 1 334.463 12.32 Q 335.063 12.92 335.263 13.5 Q 335.463 14.08 335.463 14.64 A 2.774 2.774 0 0 1 335.269 15.251 Q 334.972 15.929 334.283 16.78 A 7.331 7.331 0 0 1 332.45 18.383 A 9.023 9.023 0 0 1 331.623 18.84 A 5.262 5.262 0 0 1 330.372 19.072 Q 330.046 19.093 329.703 19.08 A 3.946 3.946 0 0 1 328.924 18.977 Q 328.431 18.857 328.047 18.604 A 2.453 2.453 0 0 1 327.983 18.56 Q 327.499 18.356 327.226 18.452 A 0.444 0.444 0 0 0 326.983 18.66 A 1.411 1.411 0 0 0 326.88 18.9 Q 326.74 19.311 326.614 20.155 A 22.939 22.939 0 0 0 326.543 20.68 A 8.773 8.773 0 0 0 326.509 21.091 Q 326.439 22.298 326.783 22.9 Q 327.183 23.6 327.863 23.72 A 35.882 35.882 0 0 0 328.242 23.794 Q 328.652 23.871 328.951 23.916 A 9.448 9.448 0 0 0 329.123 23.94 A 0.956 0.956 0 0 0 329.247 23.948 Q 329.663 23.948 330.239 23.614 A 4.32 4.32 0 0 0 330.263 23.6 A 26.715 26.715 0 0 1 330.486 23.462 Q 330.925 23.193 331.058 23.142 A 0.417 0.417 0 0 1 331.063 23.14 A 0.845 0.845 0 0 0 331.2 23.075 A 0.63 0.63 0 0 0 331.323 22.98 L 331.823 22.48 A 18.514 18.514 0 0 1 331.955 22.349 Q 332.099 22.208 332.203 22.114 A 4.264 4.264 0 0 1 332.263 22.06 A 0.57 0.57 0 0 1 332.441 21.952 A 0.521 0.521 0 0 1 332.623 21.92 Q 332.823 21.92 332.983 22.1 Q 333.143 22.28 333.303 22.36 A 0.477 0.477 0 0 1 333.403 22.37 Q 333.654 22.424 333.506 22.786 A 1.364 1.364 0 0 1 333.483 22.84 A 2.443 2.443 0 0 1 333.304 23.158 Q 333.097 23.474 332.743 23.854 A 8.97 8.97 0 0 1 332.623 23.98 A 7.816 7.816 0 0 1 331.679 24.803 A 9.493 9.493 0 0 1 331.103 25.2 Z M 384.263 25.2 Q 383.423 25.92 382.323 26.04 A 4.171 4.171 0 0 1 381.87 26.065 A 4.133 4.133 0 0 1 380.183 25.7 Q 379.143 25.24 378.463 24.28 Q 377.783 23.4 377.583 22.26 Q 377.383 21.122 377.542 19.286 A 20.801 20.801 0 0 1 377.543 19.28 A 7.085 7.085 0 0 1 378.028 17.224 A 8.998 8.998 0 0 1 378.543 16.14 Q 379.423 14.56 380.683 13.32 Q 381.742 12.278 382.786 11.773 A 5.327 5.327 0 0 1 383.183 11.6 A 3.35 3.35 0 0 1 383.491 11.416 Q 383.869 11.219 384.162 11.219 A 0.849 0.849 0 0 1 384.203 11.22 A 13.629 13.629 0 0 1 384.442 11.234 Q 384.833 11.259 385.471 11.317 A 86.747 86.747 0 0 1 385.503 11.32 Q 386.312 11.426 386.766 11.624 A 1.905 1.905 0 0 1 386.883 11.68 A 2.081 2.081 0 0 1 387.472 12.13 A 1.964 1.964 0 0 1 387.623 12.32 Q 388.223 12.92 388.423 13.5 Q 388.623 14.08 388.623 14.64 A 2.774 2.774 0 0 1 388.429 15.251 Q 388.132 15.929 387.443 16.78 A 7.331 7.331 0 0 1 385.61 18.383 A 9.023 9.023 0 0 1 384.783 18.84 A 5.262 5.262 0 0 1 383.532 19.072 Q 383.206 19.093 382.863 19.08 A 3.946 3.946 0 0 1 382.084 18.977 Q 381.591 18.857 381.207 18.604 A 2.453 2.453 0 0 1 381.143 18.56 Q 380.659 18.356 380.386 18.452 A 0.444 0.444 0 0 0 380.143 18.66 A 1.411 1.411 0 0 0 380.04 18.9 Q 379.9 19.311 379.774 20.155 A 22.939 22.939 0 0 0 379.703 20.68 A 8.773 8.773 0 0 0 379.669 21.091 Q 379.599 22.298 379.943 22.9 Q 380.343 23.6 381.023 23.72 A 35.882 35.882 0 0 0 381.402 23.794 Q 381.812 23.871 382.111 23.916 A 9.448 9.448 0 0 0 382.283 23.94 A 0.956 0.956 0 0 0 382.407 23.948 Q 382.823 23.948 383.399 23.614 A 4.32 4.32 0 0 0 383.423 23.6 A 26.715 26.715 0 0 1 383.646 23.462 Q 384.085 23.193 384.218 23.142 A 0.417 0.417 0 0 1 384.223 23.14 A 0.845 0.845 0 0 0 384.36 23.075 A 0.63 0.63 0 0 0 384.483 22.98 L 384.983 22.48 A 18.514 18.514 0 0 1 385.115 22.349 Q 385.259 22.208 385.363 22.114 A 4.264 4.264 0 0 1 385.423 22.06 A 0.57 0.57 0 0 1 385.601 21.952 A 0.521 0.521 0 0 1 385.783 21.92 Q 385.983 21.92 386.143 22.1 Q 386.303 22.28 386.463 22.36 A 0.477 0.477 0 0 1 386.563 22.37 Q 386.814 22.424 386.666 22.786 A 1.364 1.364 0 0 1 386.643 22.84 A 2.443 2.443 0 0 1 386.464 23.158 Q 386.257 23.474 385.903 23.854 A 8.97 8.97 0 0 1 385.783 23.98 A 7.816 7.816 0 0 1 384.839 24.803 A 9.493 9.493 0 0 1 384.263 25.2 Z M 447.303 25.2 Q 446.463 25.92 445.363 26.04 A 4.171 4.171 0 0 1 444.91 26.065 A 4.133 4.133 0 0 1 443.223 25.7 Q 442.183 25.24 441.503 24.28 Q 440.823 23.4 440.623 22.26 Q 440.423 21.122 440.582 19.286 A 20.801 20.801 0 0 1 440.583 19.28 A 7.085 7.085 0 0 1 441.068 17.224 A 8.998 8.998 0 0 1 441.583 16.14 Q 442.463 14.56 443.723 13.32 Q 444.782 12.278 445.826 11.773 A 5.327 5.327 0 0 1 446.223 11.6 A 3.35 3.35 0 0 1 446.531 11.416 Q 446.909 11.219 447.202 11.219 A 0.849 0.849 0 0 1 447.243 11.22 A 13.629 13.629 0 0 1 447.482 11.234 Q 447.873 11.259 448.511 11.317 A 86.747 86.747 0 0 1 448.543 11.32 Q 449.352 11.426 449.806 11.624 A 1.905 1.905 0 0 1 449.923 11.68 A 2.081 2.081 0 0 1 450.512 12.13 A 1.964 1.964 0 0 1 450.663 12.32 Q 451.263 12.92 451.463 13.5 Q 451.663 14.08 451.663 14.64 A 2.774 2.774 0 0 1 451.469 15.251 Q 451.172 15.929 450.483 16.78 A 7.331 7.331 0 0 1 448.65 18.383 A 9.023 9.023 0 0 1 447.823 18.84 A 5.262 5.262 0 0 1 446.572 19.072 Q 446.246 19.093 445.903 19.08 A 3.946 3.946 0 0 1 445.124 18.977 Q 444.631 18.857 444.247 18.604 A 2.453 2.453 0 0 1 444.183 18.56 Q 443.699 18.356 443.426 18.452 A 0.444 0.444 0 0 0 443.183 18.66 A 1.411 1.411 0 0 0 443.08 18.9 Q 442.94 19.311 442.814 20.155 A 22.939 22.939 0 0 0 442.743 20.68 A 8.773 8.773 0 0 0 442.709 21.091 Q 442.639 22.298 442.983 22.9 Q 443.383 23.6 444.063 23.72 A 35.882 35.882 0 0 0 444.442 23.794 Q 444.852 23.871 445.151 23.916 A 9.448 9.448 0 0 0 445.323 23.94 A 0.956 0.956 0 0 0 445.447 23.948 Q 445.863 23.948 446.439 23.614 A 4.32 4.32 0 0 0 446.463 23.6 A 26.715 26.715 0 0 1 446.686 23.462 Q 447.125 23.193 447.258 23.142 A 0.417 0.417 0 0 1 447.263 23.14 A 0.845 0.845 0 0 0 447.4 23.075 A 0.63 0.63 0 0 0 447.523 22.98 L 448.023 22.48 A 18.514 18.514 0 0 1 448.155 22.349 Q 448.299 22.208 448.403 22.114 A 4.264 4.264 0 0 1 448.463 22.06 A 0.57 0.57 0 0 1 448.641 21.952 A 0.521 0.521 0 0 1 448.823 21.92 Q 449.023 21.92 449.183 22.1 Q 449.343 22.28 449.503 22.36 A 0.477 0.477 0 0 1 449.603 22.37 Q 449.854 22.424 449.706 22.786 A 1.364 1.364 0 0 1 449.683 22.84 A 2.443 2.443 0 0 1 449.504 23.158 Q 449.297 23.474 448.943 23.854 A 8.97 8.97 0 0 1 448.823 23.98 A 7.816 7.816 0 0 1 447.879 24.803 A 9.493 9.493 0 0 1 447.303 25.2 Z M 363.361 25.008 A 2.524 2.524 0 0 0 363.583 25.2 Q 364.055 25.673 364.353 25.796 A 0.502 0.502 0 0 0 364.543 25.84 Q 364.863 25.84 365.343 25.2 A 2.755 2.755 0 0 0 365.509 24.962 A 2.217 2.217 0 0 0 365.743 24.46 L 365.863 24.08 A 0.269 0.269 0 0 1 365.863 24.068 Q 365.868 23.959 365.955 23.555 A 24.034 24.034 0 0 1 366.003 23.34 Q 366.143 22.72 366.343 22.04 Q 366.543 21.36 366.743 21.16 Q 367.063 20.64 367.343 20.2 Q 367.623 19.76 367.903 19.44 A 14.287 14.287 0 0 1 368.959 18.395 A 11.164 11.164 0 0 1 370.563 17.2 A 139.597 139.597 0 0 1 371.262 16.778 A 158.396 158.396 0 0 1 373.463 15.48 A 61.377 61.377 0 0 1 373.797 15.338 Q 374.148 15.19 374.423 15.08 A 2.704 2.704 0 0 1 374.856 14.949 A 3.615 3.615 0 0 1 375.343 14.88 A 20.621 20.621 0 0 0 375.73 14.852 Q 375.913 14.837 376.073 14.821 A 9.173 9.173 0 0 0 376.403 14.78 A 1.017 1.017 0 0 0 376.538 14.752 Q 376.616 14.73 376.673 14.696 A 0.281 0.281 0 0 0 376.823 14.44 L 376.803 14.32 A 0.184 0.184 0 0 0 376.802 14.316 Q 376.78 14.2 376.623 14.2 L 376.403 14.04 A 0.603 0.603 0 0 1 376.195 13.769 A 0.847 0.847 0 0 1 376.143 13.56 Q 375.903 12.96 374.943 12.84 A 3.299 3.299 0 0 0 374.533 12.814 Q 374.323 12.814 374.115 12.842 A 3.479 3.479 0 0 0 373.063 13.16 Q 372.943 13.22 372.676 13.314 A 12.25 12.25 0 0 1 372.483 13.38 A 3.992 3.992 0 0 0 372.158 13.504 A 3.13 3.13 0 0 0 371.743 13.72 A 1.922 1.922 0 0 0 371.669 13.759 Q 371.415 13.9 370.863 14.28 Q 370.223 14.72 369.503 15.28 A 25.643 25.643 0 0 0 369.48 15.298 A 23.574 23.574 0 0 0 368.143 16.42 A 8.469 8.469 0 0 0 368.023 16.531 Q 367.668 16.866 367.452 17.151 A 2.362 2.362 0 0 0 367.263 17.44 A 2.199 2.199 0 0 1 367.189 17.485 Q 367.017 17.582 366.947 17.572 A 0.051 0.051 0 0 1 366.903 17.54 Q 366.863 17.44 367.103 16.9 L 367.823 15.28 Q 368.513 13.84 368.854 12.974 A 10.365 10.365 0 0 0 369.043 12.46 Q 369.208 11.966 369.149 11.634 A 0.697 0.697 0 0 0 368.903 11.2 Q 368.583 10.88 368.123 10.84 A 1.484 1.484 0 0 0 367.994 10.834 Q 367.941 10.834 367.89 10.838 A 1.029 1.029 0 0 0 367.343 11.04 A 6.106 6.106 0 0 0 367.197 11.27 Q 366.951 11.677 366.653 12.289 A 26.528 26.528 0 0 0 366.383 12.86 A 63.928 63.928 0 0 0 366.103 13.479 A 73.393 73.393 0 0 0 365.263 15.44 Q 364.703 16.8 364.323 17.96 A 39.222 39.222 0 0 0 364.297 18.039 Q 363.94 19.136 363.863 19.6 A 174.238 174.238 0 0 0 363.786 19.91 Q 363.672 20.367 363.573 20.778 A 99.517 99.517 0 0 0 363.383 21.58 Q 363.27 22.064 363.183 22.63 A 20.385 20.385 0 0 0 363.063 23.56 A 6.199 6.199 0 0 0 363.032 23.79 Q 362.98 24.263 363.038 24.512 A 0.588 0.588 0 0 0 363.083 24.64 Q 363.175 24.824 363.361 25.008 Z M 285.305 25.978 A 2.194 2.194 0 0 0 285.623 26 A 8.33 8.33 0 0 0 285.739 25.989 Q 286.586 25.904 287.223 25.66 A 5.374 5.374 0 0 0 287.55 25.522 Q 287.831 25.393 288.135 25.218 A 10.682 10.682 0 0 0 288.743 24.84 Q 289.903 24.16 290.743 23.46 A 5.176 5.176 0 0 0 290.761 23.444 Q 291.594 22.744 292.583 21.32 Q 293.683 19.753 294.168 18.535 A 5.82 5.82 0 0 0 294.483 17.5 Q 294.783 15.96 294.663 14.76 A 5.458 5.458 0 0 0 294.568 14.179 Q 294.421 13.518 294.123 13.12 A 2.218 2.218 0 0 0 293.852 12.822 Q 293.448 12.449 292.783 12.16 A 5.75 5.75 0 0 0 292.702 12.076 Q 292.321 11.685 292.051 11.569 A 0.533 0.533 0 0 0 291.843 11.52 A 1.316 1.316 0 0 0 291.803 11.521 Q 291.541 11.529 291.006 11.637 A 17.132 17.132 0 0 0 290.623 11.72 Q 289.743 11.92 288.983 12.32 Q 288.223 12.72 287.223 13.56 A 6.581 6.581 0 0 0 286.992 13.762 Q 286.607 14.115 286.163 14.62 Q 285.583 15.28 285.103 15.94 A 30.365 30.365 0 0 0 285.012 16.065 Q 284.742 16.44 284.556 16.725 A 8.383 8.383 0 0 0 284.383 17 Q 283.783 17.96 283.383 19.04 Q 283.02 20.019 283.052 20.373 A 0.436 0.436 0 0 0 283.063 20.44 A 1.476 1.476 0 0 1 283.074 20.509 Q 283.111 20.788 282.996 20.857 A 0.177 0.177 0 0 1 282.903 20.88 Q 282.823 21.04 282.743 21.1 A 0.054 0.054 0 0 0 282.72 21.146 Q 282.72 21.217 282.863 21.36 L 282.883 21.66 A 1.294 1.294 0 0 1 282.886 21.746 Q 282.886 21.852 282.869 21.959 A 1.638 1.638 0 0 1 282.783 22.28 Q 282.709 22.701 282.803 23.145 A 2.938 2.938 0 0 0 282.983 23.7 Q 283.303 24.44 284.063 25.24 A 15.223 15.223 0 0 0 284.337 25.459 Q 284.601 25.666 284.803 25.8 A 1.007 1.007 0 0 0 285.002 25.902 Q 285.138 25.954 285.305 25.978 Z M 351.145 25.978 A 2.194 2.194 0 0 0 351.463 26 A 8.33 8.33 0 0 0 351.579 25.989 Q 352.426 25.904 353.063 25.66 A 5.374 5.374 0 0 0 353.39 25.522 Q 353.671 25.393 353.975 25.218 A 10.682 10.682 0 0 0 354.583 24.84 Q 355.743 24.16 356.583 23.46 A 5.176 5.176 0 0 0 356.601 23.444 Q 357.434 22.744 358.423 21.32 Q 359.523 19.753 360.008 18.535 A 5.82 5.82 0 0 0 360.323 17.5 Q 360.623 15.96 360.503 14.76 A 5.458 5.458 0 0 0 360.408 14.179 Q 360.261 13.518 359.963 13.12 A 2.218 2.218 0 0 0 359.692 12.822 Q 359.288 12.449 358.623 12.16 A 5.75 5.75 0 0 0 358.542 12.076 Q 358.161 11.685 357.891 11.569 A 0.533 0.533 0 0 0 357.683 11.52 A 1.316 1.316 0 0 0 357.643 11.521 Q 357.381 11.529 356.846 11.637 A 17.132 17.132 0 0 0 356.463 11.72 Q 355.583 11.92 354.823 12.32 Q 354.063 12.72 353.063 13.56 A 6.581 6.581 0 0 0 352.832 13.762 Q 352.447 14.115 352.003 14.62 Q 351.423 15.28 350.943 15.94 A 30.365 30.365 0 0 0 350.852 16.065 Q 350.582 16.44 350.396 16.725 A 8.383 8.383 0 0 0 350.223 17 Q 349.623 17.96 349.223 19.04 Q 348.86 20.019 348.892 20.373 A 0.436 0.436 0 0 0 348.903 20.44 A 1.476 1.476 0 0 1 348.914 20.509 Q 348.951 20.788 348.836 20.857 A 0.177 0.177 0 0 1 348.743 20.88 Q 348.663 21.04 348.583 21.1 A 0.054 0.054 0 0 0 348.56 21.146 Q 348.56 21.217 348.703 21.36 L 348.723 21.66 A 1.294 1.294 0 0 1 348.726 21.746 Q 348.726 21.852 348.709 21.959 A 1.638 1.638 0 0 1 348.623 22.28 Q 348.549 22.701 348.643 23.145 A 2.938 2.938 0 0 0 348.823 23.7 Q 349.143 24.44 349.903 25.24 A 15.223 15.223 0 0 0 350.177 25.459 Q 350.441 25.666 350.643 25.8 A 1.007 1.007 0 0 0 350.842 25.902 Q 350.978 25.954 351.145 25.978 Z M 289.463 21.76 A 17.447 17.447 0 0 0 290.23 20.838 Q 290.677 20.26 291.003 19.72 Q 291.454 18.974 291.868 17.913 A 19.414 19.414 0 0 0 292.103 17.28 A 2.897 2.897 0 0 0 292.213 16.886 Q 292.279 16.572 292.303 16.18 A 8.52 8.52 0 0 0 292.319 15.666 Q 292.319 15.347 292.293 15.049 A 6.421 6.421 0 0 0 292.283 14.94 A 2.275 2.275 0 0 0 292.251 14.725 Q 292.174 14.344 291.983 14.28 A 1.518 1.518 0 0 0 291.378 14.085 Q 291.161 14.061 290.917 14.088 A 2.621 2.621 0 0 0 290.823 14.1 A 2.094 2.094 0 0 0 290.262 14.272 Q 289.824 14.471 289.343 14.88 A 9.668 9.668 0 0 0 287.663 16.721 A 11.486 11.486 0 0 0 287.183 17.46 Q 286.263 19 285.383 20.96 Q 284.871 22.188 285.043 22.995 A 1.667 1.667 0 0 0 285.123 23.26 Q 285.457 24.105 286.564 23.869 A 2.925 2.925 0 0 0 286.603 23.86 A 2.775 2.775 0 0 0 287.31 23.578 Q 287.985 23.208 288.814 22.418 A 16.087 16.087 0 0 0 289.463 21.76 Z M 355.303 21.76 A 17.447 17.447 0 0 0 356.07 20.838 Q 356.517 20.26 356.843 19.72 Q 357.294 18.974 357.708 17.913 A 19.414 19.414 0 0 0 357.943 17.28 A 2.897 2.897 0 0 0 358.053 16.886 Q 358.119 16.572 358.143 16.18 A 8.52 8.52 0 0 0 358.159 15.666 Q 358.159 15.347 358.133 15.049 A 6.421 6.421 0 0 0 358.123 14.94 A 2.275 2.275 0 0 0 358.091 14.725 Q 358.014 14.344 357.823 14.28 A 1.518 1.518 0 0 0 357.218 14.085 Q 357.001 14.061 356.757 14.088 A 2.621 2.621 0 0 0 356.663 14.1 A 2.094 2.094 0 0 0 356.102 14.272 Q 355.664 14.471 355.183 14.88 A 9.668 9.668 0 0 0 353.503 16.721 A 11.486 11.486 0 0 0 353.023 17.46 Q 352.103 19 351.223 20.96 Q 350.711 22.188 350.883 22.995 A 1.667 1.667 0 0 0 350.963 23.26 Q 351.297 24.105 352.404 23.869 A 2.925 2.925 0 0 0 352.443 23.86 A 2.775 2.775 0 0 0 353.15 23.578 Q 353.825 23.208 354.654 22.418 A 16.087 16.087 0 0 0 355.303 21.76 Z M 195.903 16.64 L 196.783 15.2 A 5.644 5.644 0 0 0 196.553 14.728 Q 196.298 14.265 196.02 14.019 A 1.419 1.419 0 0 0 195.923 13.94 A 2.729 2.729 0 0 0 195.682 13.78 Q 195.375 13.6 195.143 13.6 Q 194.623 13.6 193.603 14.56 A 13.107 13.107 0 0 0 192.818 15.37 Q 192.148 16.12 191.423 17.12 A 30.521 30.521 0 0 0 189.784 19.643 A 35.494 35.494 0 0 0 189.223 20.64 A 23.023 23.023 0 0 0 188.762 21.617 A 19.409 19.409 0 0 0 188.523 22.18 L 188.223 22.92 A 0.117 0.117 0 0 0 188.311 23.04 Q 188.479 23.098 188.97 22.938 A 5.596 5.596 0 0 0 189.083 22.9 A 4.78 4.78 0 0 0 189.805 22.574 Q 190.349 22.275 190.943 21.8 A 41.948 41.948 0 0 0 192.994 19.925 A 48.37 48.37 0 0 0 193.683 19.24 A 26.819 26.819 0 0 0 194.715 18.136 Q 195.404 17.353 195.903 16.64 Z M 249.383 16.64 L 250.263 15.2 A 5.644 5.644 0 0 0 250.033 14.728 Q 249.778 14.265 249.5 14.019 A 1.419 1.419 0 0 0 249.403 13.94 A 2.729 2.729 0 0 0 249.162 13.78 Q 248.855 13.6 248.623 13.6 Q 248.103 13.6 247.083 14.56 A 13.107 13.107 0 0 0 246.298 15.37 Q 245.628 16.12 244.903 17.12 A 30.521 30.521 0 0 0 243.264 19.643 A 35.494 35.494 0 0 0 242.703 20.64 A 23.023 23.023 0 0 0 242.242 21.617 A 19.409 19.409 0 0 0 242.003 22.18 L 241.703 22.92 A 0.117 0.117 0 0 0 241.791 23.04 Q 241.959 23.098 242.45 22.938 A 5.596 5.596 0 0 0 242.563 22.9 A 4.78 4.78 0 0 0 243.285 22.574 Q 243.829 22.275 244.423 21.8 A 41.948 41.948 0 0 0 246.474 19.925 A 48.37 48.37 0 0 0 247.163 19.24 A 26.819 26.819 0 0 0 248.195 18.136 Q 248.884 17.353 249.383 16.64 Z M 85.702 24.694 A 1.778 1.778 0 0 0 86.103 25.32 Q 86.6 25.875 86.894 25.875 A 0.268 0.268 0 0 0 87.083 25.8 Q 87.383 25.52 87.743 23.88 A 2.555 2.555 0 0 0 87.903 23.581 A 3.183 3.183 0 0 0 88.063 23.14 Q 88.183 22.72 88.263 22.34 A 7.602 7.602 0 0 1 88.279 22.267 Q 88.351 21.94 88.423 21.76 A 16.1 16.1 0 0 1 88.551 21.362 A 19.62 19.62 0 0 1 88.803 20.66 A 20.024 20.024 0 0 1 88.845 20.55 Q 89.038 20.049 89.183 19.76 Q 89.263 19.28 89.483 18.68 A 17.362 17.362 0 0 1 89.583 18.414 Q 89.689 18.139 89.779 17.938 A 4.717 4.717 0 0 1 89.863 17.76 A 11.549 11.549 0 0 0 89.872 17.74 Q 90.304 16.793 90.383 16.16 Q 90.463 15.52 90.143 15.2 Q 89.743 14.56 89.503 14.42 A 0.463 0.463 0 0 0 89.36 14.367 Q 89.137 14.322 88.783 14.44 A 1.445 1.445 0 0 0 88.64 14.456 Q 88.308 14.51 88.198 14.717 A 0.51 0.51 0 0 0 88.143 14.96 A 1.855 1.855 0 0 1 88.137 14.983 Q 88.09 15.161 87.903 15.76 Q 87.703 16.4 87.423 17.28 Q 87.143 18.16 86.823 19.06 A 33.519 33.519 0 0 1 86.675 19.468 Q 86.554 19.795 86.438 20.083 A 17.6 17.6 0 0 1 86.223 20.6 Q 86.103 20.96 85.983 21.36 Q 85.879 21.707 85.895 21.873 A 0.322 0.322 0 0 0 85.903 21.92 Q 85.943 22.08 85.843 22.26 A 0.671 0.671 0 0 0 85.785 22.403 Q 85.743 22.552 85.743 22.76 A 1.541 1.541 0 0 0 85.686 22.888 Q 85.629 23.035 85.592 23.209 A 2.909 2.909 0 0 0 85.543 23.56 A 2.568 2.568 0 0 0 85.534 23.773 A 2.655 2.655 0 0 0 85.643 24.52 A 2.173 2.173 0 0 0 85.702 24.694 Z M 148.702 24.694 A 1.778 1.778 0 0 0 149.103 25.32 Q 149.6 25.875 149.894 25.875 A 0.268 0.268 0 0 0 150.083 25.8 Q 150.383 25.52 150.743 23.88 A 2.555 2.555 0 0 0 150.903 23.581 A 3.183 3.183 0 0 0 151.063 23.14 Q 151.183 22.72 151.263 22.34 A 7.602 7.602 0 0 1 151.279 22.267 Q 151.351 21.94 151.423 21.76 A 16.1 16.1 0 0 1 151.551 21.362 A 19.62 19.62 0 0 1 151.803 20.66 A 20.024 20.024 0 0 1 151.845 20.55 Q 152.038 20.049 152.183 19.76 Q 152.263 19.28 152.483 18.68 A 17.362 17.362 0 0 1 152.583 18.414 Q 152.689 18.139 152.779 17.938 A 4.717 4.717 0 0 1 152.863 17.76 A 11.549 11.549 0 0 0 152.872 17.74 Q 153.304 16.793 153.383 16.16 Q 153.463 15.52 153.143 15.2 Q 152.743 14.56 152.503 14.42 A 0.463 0.463 0 0 0 152.36 14.367 Q 152.137 14.322 151.783 14.44 A 1.445 1.445 0 0 0 151.64 14.456 Q 151.308 14.51 151.198 14.717 A 0.51 0.51 0 0 0 151.143 14.96 A 1.855 1.855 0 0 1 151.137 14.983 Q 151.09 15.161 150.903 15.76 Q 150.703 16.4 150.423 17.28 Q 150.143 18.16 149.823 19.06 A 33.519 33.519 0 0 1 149.675 19.468 Q 149.554 19.795 149.438 20.083 A 17.6 17.6 0 0 1 149.223 20.6 Q 149.103 20.96 148.983 21.36 Q 148.879 21.707 148.895 21.873 A 0.322 0.322 0 0 0 148.903 21.92 Q 148.943 22.08 148.843 22.26 A 0.671 0.671 0 0 0 148.785 22.403 Q 148.743 22.552 148.743 22.76 A 1.541 1.541 0 0 0 148.686 22.888 Q 148.629 23.035 148.592 23.209 A 2.909 2.909 0 0 0 148.543 23.56 A 2.568 2.568 0 0 0 148.534 23.773 A 2.655 2.655 0 0 0 148.643 24.52 A 2.173 2.173 0 0 0 148.702 24.694 Z M 399.942 24.694 A 1.778 1.778 0 0 0 400.343 25.32 Q 400.84 25.875 401.134 25.875 A 0.268 0.268 0 0 0 401.323 25.8 Q 401.623 25.52 401.983 23.88 A 2.555 2.555 0 0 0 402.143 23.581 A 3.183 3.183 0 0 0 402.303 23.14 Q 402.423 22.72 402.503 22.34 A 7.602 7.602 0 0 1 402.519 22.267 Q 402.591 21.94 402.663 21.76 A 16.1 16.1 0 0 1 402.791 21.362 A 19.62 19.62 0 0 1 403.043 20.66 A 20.024 20.024 0 0 1 403.085 20.55 Q 403.278 20.049 403.423 19.76 Q 403.503 19.28 403.723 18.68 A 17.362 17.362 0 0 1 403.823 18.414 Q 403.929 18.139 404.019 17.938 A 4.717 4.717 0 0 1 404.103 17.76 A 11.549 11.549 0 0 0 404.112 17.74 Q 404.544 16.793 404.623 16.16 Q 404.703 15.52 404.383 15.2 Q 403.983 14.56 403.743 14.42 A 0.463 0.463 0 0 0 403.6 14.367 Q 403.377 14.322 403.023 14.44 A 1.445 1.445 0 0 0 402.88 14.456 Q 402.548 14.51 402.438 14.717 A 0.51 0.51 0 0 0 402.383 14.96 A 1.855 1.855 0 0 1 402.377 14.983 Q 402.33 15.161 402.143 15.76 Q 401.943 16.4 401.663 17.28 Q 401.383 18.16 401.063 19.06 A 33.519 33.519 0 0 1 400.915 19.468 Q 400.794 19.795 400.678 20.083 A 17.6 17.6 0 0 1 400.463 20.6 Q 400.343 20.96 400.223 21.36 Q 400.119 21.707 400.135 21.873 A 0.322 0.322 0 0 0 400.143 21.92 Q 400.183 22.08 400.083 22.26 A 0.671 0.671 0 0 0 400.025 22.403 Q 399.983 22.552 399.983 22.76 A 1.541 1.541 0 0 0 399.926 22.888 Q 399.869 23.035 399.832 23.209 A 2.909 2.909 0 0 0 399.783 23.56 A 2.568 2.568 0 0 0 399.774 23.773 A 2.655 2.655 0 0 0 399.883 24.52 A 2.173 2.173 0 0 0 399.942 24.694 Z M 432.822 24.694 A 1.778 1.778 0 0 0 433.223 25.32 Q 433.72 25.875 434.014 25.875 A 0.268 0.268 0 0 0 434.203 25.8 Q 434.503 25.52 434.863 23.88 A 2.555 2.555 0 0 0 435.023 23.581 A 3.183 3.183 0 0 0 435.183 23.14 Q 435.303 22.72 435.383 22.34 A 7.602 7.602 0 0 1 435.399 22.267 Q 435.471 21.94 435.543 21.76 A 16.1 16.1 0 0 1 435.671 21.362 A 19.62 19.62 0 0 1 435.923 20.66 A 20.024 20.024 0 0 1 435.965 20.55 Q 436.158 20.049 436.303 19.76 Q 436.383 19.28 436.603 18.68 A 17.362 17.362 0 0 1 436.703 18.414 Q 436.809 18.139 436.899 17.938 A 4.717 4.717 0 0 1 436.983 17.76 A 11.549 11.549 0 0 0 436.992 17.74 Q 437.424 16.793 437.503 16.16 Q 437.583 15.52 437.263 15.2 Q 436.863 14.56 436.623 14.42 A 0.463 0.463 0 0 0 436.48 14.367 Q 436.257 14.322 435.903 14.44 A 1.445 1.445 0 0 0 435.76 14.456 Q 435.428 14.51 435.318 14.717 A 0.51 0.51 0 0 0 435.263 14.96 A 1.855 1.855 0 0 1 435.257 14.983 Q 435.21 15.161 435.023 15.76 Q 434.823 16.4 434.543 17.28 Q 434.263 18.16 433.943 19.06 A 33.519 33.519 0 0 1 433.795 19.468 Q 433.674 19.795 433.558 20.083 A 17.6 17.6 0 0 1 433.343 20.6 Q 433.223 20.96 433.103 21.36 Q 432.999 21.707 433.015 21.873 A 0.322 0.322 0 0 0 433.023 21.92 Q 433.063 22.08 432.963 22.26 A 0.671 0.671 0 0 0 432.905 22.403 Q 432.863 22.552 432.863 22.76 A 1.541 1.541 0 0 0 432.806 22.888 Q 432.749 23.035 432.712 23.209 A 2.909 2.909 0 0 0 432.663 23.56 A 2.568 2.568 0 0 0 432.654 23.773 A 2.655 2.655 0 0 0 432.763 24.52 A 2.173 2.173 0 0 0 432.822 24.694 Z M 270.863 22.92 A 3.551 3.551 0 0 0 271.743 22.602 A 4.154 4.154 0 0 0 271.963 22.48 A 12.589 12.589 0 0 0 272.589 22.082 A 16.235 16.235 0 0 0 273.103 21.72 Q 274.303 20.8 275.183 20.04 Q 275.925 19.399 276.241 18.188 A 6.209 6.209 0 0 0 276.343 17.72 A 3.928 3.928 0 0 0 276.361 17.476 Q 276.383 16.962 276.247 16.604 A 1.364 1.364 0 0 0 276.203 16.5 A 2.267 2.267 0 0 0 275.873 16.002 A 3.118 3.118 0 0 0 275.503 15.64 A 1.511 1.511 0 0 0 275.026 15.435 Q 274.67 15.346 274.203 15.38 A 2.154 2.154 0 0 0 273.449 15.586 Q 273.159 15.721 272.862 15.943 A 4.845 4.845 0 0 0 272.503 16.24 Q 271.678 16.996 270.897 18.196 A 15.585 15.585 0 0 0 270.643 18.6 Q 269.799 19.987 269.36 21.972 A 16.171 16.171 0 0 0 269.303 22.24 A 0.824 0.824 0 0 0 269.289 22.345 Q 269.266 22.672 269.543 22.88 Q 269.856 23.115 270.822 22.928 A 6.812 6.812 0 0 0 270.863 22.92 Z M 420.783 22.92 A 3.551 3.551 0 0 0 421.663 22.602 A 4.154 4.154 0 0 0 421.883 22.48 A 12.589 12.589 0 0 0 422.509 22.082 A 16.235 16.235 0 0 0 423.023 21.72 Q 424.223 20.8 425.103 20.04 Q 425.845 19.399 426.161 18.188 A 6.209 6.209 0 0 0 426.263 17.72 A 3.928 3.928 0 0 0 426.281 17.476 Q 426.303 16.962 426.167 16.604 A 1.364 1.364 0 0 0 426.123 16.5 A 2.267 2.267 0 0 0 425.793 16.002 A 3.118 3.118 0 0 0 425.423 15.64 A 1.511 1.511 0 0 0 424.946 15.435 Q 424.59 15.346 424.123 15.38 A 2.154 2.154 0 0 0 423.369 15.586 Q 423.079 15.721 422.782 15.943 A 4.845 4.845 0 0 0 422.423 16.24 Q 421.598 16.996 420.817 18.196 A 15.585 15.585 0 0 0 420.563 18.6 Q 419.719 19.987 419.28 21.972 A 16.171 16.171 0 0 0 419.223 22.24 A 0.824 0.824 0 0 0 419.209 22.345 Q 419.186 22.672 419.463 22.88 Q 419.776 23.115 420.742 22.928 A 6.812 6.812 0 0 0 420.783 22.92 Z M 113.903 21.44 Q 114.703 21.4 115.423 21.12 A 3.7 3.7 0 0 0 116.209 20.692 A 5.083 5.083 0 0 0 116.823 20.18 Q 117.407 19.613 117.992 18.765 A 14.064 14.064 0 0 0 118.183 18.48 Q 118.863 17.52 119.143 16.46 A 6.489 6.489 0 0 0 119.347 15.244 Q 119.361 15.044 119.361 14.847 A 5.608 5.608 0 0 0 119.343 14.4 Q 119.305 13.791 119.158 13.58 A 0.384 0.384 0 0 0 119.143 13.56 Q 118.99 13.369 118.51 13.433 A 2.364 2.364 0 0 0 118.463 13.44 Q 117.905 13.528 117.262 13.928 A 6.198 6.198 0 0 0 116.783 14.26 A 8.696 8.696 0 0 0 115.601 15.354 A 10.594 10.594 0 0 0 115.063 16 A 6.481 6.481 0 0 0 114.436 17.032 A 8.457 8.457 0 0 0 114.063 17.92 Q 113.663 19.12 113.583 20.2 A 5.143 5.143 0 0 0 113.573 20.363 Q 113.544 21.052 113.74 21.312 A 0.38 0.38 0 0 0 113.903 21.44 Z M 38.183 16.72 Q 38.623 16.52 39.103 16.14 A 4.502 4.502 0 0 0 39.813 15.442 A 4.122 4.122 0 0 0 39.923 15.3 A 2.729 2.729 0 0 0 40.083 15.059 Q 40.263 14.753 40.263 14.52 A 1.074 1.074 0 0 0 39.913 13.722 A 1.616 1.616 0 0 0 39.743 13.58 A 1.098 1.098 0 0 0 39.327 13.397 Q 38.921 13.308 38.339 13.441 A 4.298 4.298 0 0 0 38.183 13.48 Q 37.884 13.562 37.529 13.8 A 4.566 4.566 0 0 0 37.183 14.06 Q 36.623 14.52 36.123 15.08 Q 35.74 15.509 35.474 15.867 A 6.661 6.661 0 0 0 35.323 16.08 A 4.086 4.086 0 0 0 35.242 16.202 Q 35.061 16.491 35.09 16.579 A 0.053 0.053 0 0 0 35.103 16.6 Q 35.223 16.8 35.783 16.9 Q 36.323 16.996 36.993 16.963 A 7.367 7.367 0 0 0 37.043 16.96 A 4.629 4.629 0 0 0 37.512 16.911 Q 37.731 16.875 37.916 16.82 A 2.149 2.149 0 0 0 38.183 16.72 Z M 331.063 16.72 Q 331.503 16.52 331.983 16.14 A 4.502 4.502 0 0 0 332.693 15.442 A 4.122 4.122 0 0 0 332.803 15.3 A 2.729 2.729 0 0 0 332.963 15.059 Q 333.143 14.753 333.143 14.52 A 1.074 1.074 0 0 0 332.793 13.722 A 1.616 1.616 0 0 0 332.623 13.58 A 1.098 1.098 0 0 0 332.207 13.397 Q 331.801 13.308 331.219 13.441 A 4.298 4.298 0 0 0 331.063 13.48 Q 330.764 13.562 330.409 13.8 A 4.566 4.566 0 0 0 330.063 14.06 Q 329.503 14.52 329.003 15.08 Q 328.62 15.509 328.354 15.867 A 6.661 6.661 0 0 0 328.203 16.08 A 4.086 4.086 0 0 0 328.122 16.202 Q 327.941 16.491 327.97 16.579 A 0.053 0.053 0 0 0 327.983 16.6 Q 328.103 16.8 328.663 16.9 Q 329.203 16.996 329.873 16.963 A 7.367 7.367 0 0 0 329.923 16.96 A 4.629 4.629 0 0 0 330.392 16.911 Q 330.611 16.875 330.796 16.82 A 2.149 2.149 0 0 0 331.063 16.72 Z M 384.223 16.72 Q 384.663 16.52 385.143 16.14 A 4.502 4.502 0 0 0 385.853 15.442 A 4.122 4.122 0 0 0 385.963 15.3 A 2.729 2.729 0 0 0 386.123 15.059 Q 386.303 14.753 386.303 14.52 A 1.074 1.074 0 0 0 385.953 13.722 A 1.616 1.616 0 0 0 385.783 13.58 A 1.098 1.098 0 0 0 385.367 13.397 Q 384.961 13.308 384.379 13.441 A 4.298 4.298 0 0 0 384.223 13.48 Q 383.924 13.562 383.569 13.8 A 4.566 4.566 0 0 0 383.223 14.06 Q 382.663 14.52 382.163 15.08 Q 381.78 15.509 381.514 15.867 A 6.661 6.661 0 0 0 381.363 16.08 A 4.086 4.086 0 0 0 381.282 16.202 Q 381.101 16.491 381.13 16.579 A 0.053 0.053 0 0 0 381.143 16.6 Q 381.263 16.8 381.823 16.9 Q 382.363 16.996 383.033 16.963 A 7.367 7.367 0 0 0 383.083 16.96 A 4.629 4.629 0 0 0 383.552 16.911 Q 383.771 16.875 383.956 16.82 A 2.149 2.149 0 0 0 384.223 16.72 Z M 447.263 16.72 Q 447.703 16.52 448.183 16.14 A 4.502 4.502 0 0 0 448.893 15.442 A 4.122 4.122 0 0 0 449.003 15.3 A 2.729 2.729 0 0 0 449.163 15.059 Q 449.343 14.753 449.343 14.52 A 1.074 1.074 0 0 0 448.993 13.722 A 1.616 1.616 0 0 0 448.823 13.58 A 1.098 1.098 0 0 0 448.407 13.397 Q 448.001 13.308 447.419 13.441 A 4.298 4.298 0 0 0 447.263 13.48 Q 446.964 13.562 446.609 13.8 A 4.566 4.566 0 0 0 446.263 14.06 Q 445.703 14.52 445.203 15.08 Q 444.82 15.509 444.554 15.867 A 6.661 6.661 0 0 0 444.403 16.08 A 4.086 4.086 0 0 0 444.322 16.202 Q 444.141 16.491 444.17 16.579 A 0.053 0.053 0 0 0 444.183 16.6 Q 444.303 16.8 444.863 16.9 Q 445.403 16.996 446.073 16.963 A 7.367 7.367 0 0 0 446.123 16.96 A 4.629 4.629 0 0 0 446.592 16.911 Q 446.811 16.875 446.996 16.82 A 2.149 2.149 0 0 0 447.263 16.72 Z M 89.83 8.892 A 1.28 1.28 0 0 0 89.983 9.08 A 2.421 2.421 0 0 0 90.154 9.204 Q 90.535 9.452 90.888 9.452 A 0.981 0.981 0 0 0 91.043 9.44 Q 91.418 9.38 91.85 8.914 A 4.446 4.446 0 0 0 92.143 8.56 Q 92.863 7.68 93.023 7.18 Q 93.146 6.796 92.962 6.259 A 3.254 3.254 0 0 0 92.823 5.92 Q 92.423 5.28 91.963 5.06 A 1.013 1.013 0 0 0 91.91 5.037 Q 91.475 4.858 91.023 5.16 A 0.5 0.5 0 0 0 90.872 5.225 A 0.597 0.597 0 0 0 90.743 5.34 Q 90.623 5.48 90.623 5.64 A 0.92 0.92 0 0 1 90.635 5.791 Q 90.635 6.218 90.263 6.76 Q 89.95 7.215 89.698 7.367 A 0.503 0.503 0 0 1 89.503 7.44 Q 89.383 7.44 89.423 7.78 Q 89.463 8.12 89.623 8.5 A 2.797 2.797 0 0 0 89.7 8.669 Q 89.762 8.792 89.83 8.892 Z M 152.83 8.892 A 1.28 1.28 0 0 0 152.983 9.08 A 2.421 2.421 0 0 0 153.154 9.204 Q 153.535 9.452 153.888 9.452 A 0.981 0.981 0 0 0 154.043 9.44 Q 154.418 9.38 154.85 8.914 A 4.446 4.446 0 0 0 155.143 8.56 Q 155.863 7.68 156.023 7.18 Q 156.146 6.796 155.962 6.259 A 3.254 3.254 0 0 0 155.823 5.92 Q 155.423 5.28 154.963 5.06 A 1.013 1.013 0 0 0 154.91 5.037 Q 154.475 4.858 154.023 5.16 A 0.5 0.5 0 0 0 153.872 5.225 A 0.597 0.597 0 0 0 153.743 5.34 Q 153.623 5.48 153.623 5.64 A 0.92 0.92 0 0 1 153.635 5.791 Q 153.635 6.218 153.263 6.76 Q 152.95 7.215 152.698 7.367 A 0.503 0.503 0 0 1 152.503 7.44 Q 152.383 7.44 152.423 7.78 Q 152.463 8.12 152.623 8.5 A 2.797 2.797 0 0 0 152.7 8.669 Q 152.762 8.792 152.83 8.892 Z M 404.07 8.892 A 1.28 1.28 0 0 0 404.223 9.08 A 2.421 2.421 0 0 0 404.394 9.204 Q 404.775 9.452 405.128 9.452 A 0.981 0.981 0 0 0 405.283 9.44 Q 405.658 9.38 406.09 8.914 A 4.446 4.446 0 0 0 406.383 8.56 Q 407.103 7.68 407.263 7.18 Q 407.386 6.796 407.202 6.259 A 3.254 3.254 0 0 0 407.063 5.92 Q 406.663 5.28 406.203 5.06 A 1.013 1.013 0 0 0 406.15 5.037 Q 405.715 4.858 405.263 5.16 A 0.5 0.5 0 0 0 405.112 5.225 A 0.597 0.597 0 0 0 404.983 5.34 Q 404.863 5.48 404.863 5.64 A 0.92 0.92 0 0 1 404.875 5.791 Q 404.875 6.218 404.503 6.76 Q 404.19 7.215 403.938 7.367 A 0.503 0.503 0 0 1 403.743 7.44 Q 403.623 7.44 403.663 7.78 Q 403.703 8.12 403.863 8.5 A 2.797 2.797 0 0 0 403.94 8.669 Q 404.002 8.792 404.07 8.892 Z M 436.95 8.892 A 1.28 1.28 0 0 0 437.103 9.08 A 2.421 2.421 0 0 0 437.274 9.204 Q 437.655 9.452 438.008 9.452 A 0.981 0.981 0 0 0 438.163 9.44 Q 438.538 9.38 438.97 8.914 A 4.446 4.446 0 0 0 439.263 8.56 Q 439.983 7.68 440.143 7.18 Q 440.266 6.796 440.082 6.259 A 3.254 3.254 0 0 0 439.943 5.92 Q 439.543 5.28 439.083 5.06 A 1.013 1.013 0 0 0 439.03 5.037 Q 438.595 4.858 438.143 5.16 A 0.5 0.5 0 0 0 437.992 5.225 A 0.597 0.597 0 0 0 437.863 5.34 Q 437.743 5.48 437.743 5.64 A 0.92 0.92 0 0 1 437.755 5.791 Q 437.755 6.218 437.383 6.76 Q 437.07 7.215 436.818 7.367 A 0.503 0.503 0 0 1 436.623 7.44 Q 436.503 7.44 436.543 7.78 Q 436.583 8.12 436.743 8.5 A 2.797 2.797 0 0 0 436.82 8.669 Q 436.882 8.792 436.95 8.892 Z" vector-effect="non-scaling-stroke"/></g></svg>