<svg xmlns="http://www.w3.org/2000/svg" viewBox="0.02500000037252903 14.75 564.574951171875 43.03818893432617" data-asc="0.96"><g fill="#000000"><g fill="#000000" transform="translate(0, 0)"><path d="M3.20 47.65Q2.65 47.55 2.08 47.08Q1.50 46.60 1.08 45.98Q0.65 45.35 0.50 44.85Q0.50 44.75 0.38 44.60Q0.25 44.45 0.25 44.45Q0.05 44.30 0.03 43.13Q0 41.95 0.15 40.50Q0.30 39.05 0.50 38.20Q0.75 37.40 1.25 36.02Q1.75 34.65 2.10 33.55L3.45 30.65L1.45 30.10Q1.10 30 0.88 29.70Q0.65 29.40 0.65 29.20Q0.65 28.80 1.10 28.22Q1.55 27.65 1.75 27.65Q2 27.70 2.68 27.70Q3.35 27.70 4 27.65Q4.65 27.60 4.80 27.55Q5 27.45 5.20 27.27Q5.40 27.10 5.50 26.75Q5.75 26.20 5.95 25.72Q6.15 25.25 6.50 24.65Q6.85 24 7.08 23.55Q7.30 23.10 7.80 22.30Q8.05 21.95 8.35 21.45Q8.65 20.95 9.10 20.60Q9.55 20.20 10.03 20.22Q10.50 20.25 11.25 20.90Q11.65 21.40 11.70 21.65Q11.75 21.90 11.30 22.60Q10.90 23.45 10.38 24.30Q9.85 25.15 9.40 26Q8.60 27.10 9.10 27.25Q9.60 27.40 11.90 27.05Q13.35 26.80 14 27.17Q14.65 27.55 14.75 28.40Q14.90 29.60 14.50 29.85Q14.10 30.10 12.20 30.10Q11 30.30 10.15 30.32Q9.30 30.35 8.90 30.35Q8.25 30.40 8.05 30.40Q7.85 30.40 7.45 30.50Q7.05 30.60 6.88 30.82Q6.70 31.05 6.50 31.45Q6.30 31.65 5.90 32.50Q5.50 33.35 4.90 34.35Q4.20 36.45 3.70 38.52Q3.20 40.60 2.90 42.55Q2.70 43.80 2.95 44.27Q3.20 44.75 4.25 44.85Q4.80 44.90 6.03 44.83Q7.25 44.75 7.95 44.55Q8.50 44.30 9.10 44.02Q9.70 43.75 10.20 43.45Q10.65 43.20 11.10 42.92Q11.55 42.65 11.55 42.65Q11.80 42.25 12.10 42.40Q12.40 42.55 12.60 43.15Q12.60 43.75 12.35 44.40Q12.10 45.05 10.50 45.95Q8.25 47.35 6.38 47.63Q4.50 47.90 3.20 47.65ZM17.60 45.30Q17.25 45.35 16.88 45.27Q16.50 45.20 16.15 44.95Q15.75 44.55 15.60 44.33Q15.45 44.10 15.53 43.60Q15.60 43.10 15.85 42.05Q16.10 41.25 16.45 39.83Q16.80 38.40 17.20 37Q17.35 36.20 17.63 35.35Q17.90 34.50 18.20 33.77Q18.50 33.05 18.65 32.65Q19.05 31.25 19.43 30.20Q19.80 29.15 20.35 27.77Q20.90 26.40 21.70 24.10Q22.80 21.10 23.38 19.52Q23.95 17.95 24.23 17.22Q24.50 16.50 24.60 16.10Q24.60 15.70 24.83 15.50Q25.05 15.30 25.40 15.30Q26.10 15.30 26.53 15.98Q26.95 16.65 27.05 17.57Q27.15 18.50 26.75 19.30Q25.95 21.10 25.05 23.57Q24.15 26.05 23.30 28.42Q22.45 30.80 21.70 32.45Q21.70 32.65 21.55 33.15Q21.40 33.65 21.20 34.05Q21 34.45 20.83 34.80Q20.65 35.15 20.65 35.15Q20.65 35.35 20.50 35.90Q20.35 36.45 20.10 37.25Q19.90 37.85 19.63 38.80Q19.35 39.75 19.25 40.40Q19.50 39.95 20.30 39.05Q21.10 38.15 21.80 37.50Q22.60 36.80 23.60 35.95Q24.60 35.10 25.20 34.70Q25.80 34.30 26.28 33.98Q26.75 33.65 26.75 33.65Q26.75 33.45 26.93 33.42Q27.10 33.40 27.30 33.40Q27.50 33.40 27.53 33.35Q27.55 33.30 27.55 33.10Q27.55 32.85 28.13 32.65Q28.70 32.45 29.48 32.33Q30.25 32.20 30.75 32.20Q31.35 32.20 31.70 32.45Q32.05 32.70 32.60 33.55Q33.20 34.35 33.38 35.48Q33.55 36.60 33.15 37.80Q33.15 38.20 33.03 38.92Q32.90 39.65 32.90 40.45L32.60 42.05L33.40 42.05Q33.80 42.05 34.15 42.17Q34.50 42.30 34.50 42.30Q34.70 42.50 34.90 42.67Q35.10 42.85 35.30 42.85Q35.90 42.85 35.75 43.33Q35.60 43.80 35 44.20Q33.80 45 32.83 45Q31.85 45 31.05 44.20Q30.25 43.35 30.05 42.30Q29.85 41.25 30.25 39.65Q30.45 37.45 30.48 36.42Q30.50 35.40 29.95 35.40Q29.45 35.40 28.20 36.08Q26.95 36.75 25.40 37.90Q23.85 39.05 22.35 40.45Q20.85 41.85 19.85 43.35Q19.25 44.10 18.70 44.67Q18.15 45.25 17.60 45.30ZM47.80 46.25Q46.75 47.15 45.38 47.30Q44 47.45 42.70 46.88Q41.40 46.30 40.55 45.10Q39.70 44 39.45 42.58Q39.20 41.15 39.40 38.85Q39.55 36.90 40.65 34.92Q41.75 32.95 43.33 31.40Q44.90 29.85 46.45 29.25Q47.20 28.75 47.73 28.77Q48.25 28.80 49.35 28.90Q50.50 29.05 51.08 29.35Q51.65 29.65 52 30.15Q52.75 30.90 53 31.63Q53.25 32.35 53.25 33.05Q53.05 34.15 51.78 35.73Q50.50 37.30 48.45 38.30Q47.35 38.65 46.05 38.60Q44.75 38.55 43.90 37.95Q42.95 37.55 42.65 38.08Q42.35 38.60 42.10 40.60Q41.90 42.50 42.40 43.38Q42.90 44.25 43.75 44.40Q44.75 44.60 45.33 44.67Q45.90 44.75 46.75 44.25Q47.55 43.75 47.75 43.67Q47.95 43.60 48.08 43.48Q48.20 43.35 48.70 42.85Q49.05 42.50 49.25 42.33Q49.45 42.15 49.70 42.15Q49.95 42.15 50.15 42.38Q50.35 42.60 50.55 42.70Q51.05 42.70 50.78 43.30Q50.50 43.90 49.70 44.73Q48.90 45.55 47.80 46.25M47.75 35.65Q48.30 35.40 48.90 34.92Q49.50 34.45 49.92 33.88Q50.35 33.30 50.35 32.90Q50.35 32.20 49.70 31.72Q49.05 31.25 47.75 31.60Q47.20 31.75 46.50 32.33Q45.80 32.90 45.17 33.60Q44.55 34.30 44.17 34.85Q43.80 35.40 43.90 35.50Q44.05 35.75 44.75 35.88Q45.45 36 46.33 35.95Q47.20 35.90 47.75 35.65ZM71.30 47.65Q70.75 47.55 70.17 47.08Q69.60 46.60 69.17 45.98Q68.75 45.35 68.60 44.85Q68.60 44.75 68.47 44.60Q68.35 44.45 68.35 44.45Q68.15 44.30 68.13 43.13Q68.10 41.95 68.25 40.50Q68.40 39.05 68.60 38.20Q68.85 37.40 69.35 36.02Q69.85 34.65 70.20 33.55L71.55 30.65L69.55 30.10Q69.20 30 68.97 29.70Q68.75 29.40 68.75 29.20Q68.75 28.80 69.20 28.22Q69.65 27.65 69.85 27.65Q70.10 27.70 70.78 27.70Q71.45 27.70 72.10 27.65Q72.75 27.60 72.90 27.55Q73.10 27.45 73.30 27.27Q73.50 27.10 73.60 26.75Q73.85 26.20 74.05 25.72Q74.25 25.25 74.60 24.65Q74.95 24 75.17 23.55Q75.40 23.10 75.90 22.30Q76.15 21.95 76.45 21.45Q76.75 20.95 77.20 20.60Q77.65 20.20 78.13 20.22Q78.60 20.25 79.35 20.90Q79.75 21.40 79.80 21.65Q79.85 21.90 79.40 22.60Q79 23.45 78.47 24.30Q77.95 25.15 77.50 26Q76.70 27.10 77.20 27.25Q77.70 27.40 80 27.05Q81.45 26.80 82.10 27.17Q82.75 27.55 82.85 28.40Q83 29.60 82.60 29.85Q82.20 30.10 80.30 30.10Q79.10 30.30 78.25 30.32Q77.40 30.35 77 30.35Q76.35 30.40 76.15 30.40Q75.95 30.40 75.55 30.50Q75.15 30.60 74.97 30.82Q74.80 31.05 74.60 31.45Q74.40 31.65 74 32.50Q73.60 33.35 73 34.35Q72.30 36.45 71.80 38.52Q71.30 40.60 71 42.55Q70.80 43.80 71.05 44.27Q71.30 44.75 72.35 44.85Q72.90 44.90 74.13 44.83Q75.35 44.75 76.05 44.55Q76.60 44.30 77.20 44.02Q77.80 43.75 78.30 43.45Q78.75 43.20 79.20 42.92Q79.65 42.65 79.65 42.65Q79.90 42.25 80.20 42.40Q80.50 42.55 80.70 43.15Q80.70 43.75 80.45 44.40Q80.20 45.05 78.60 45.95Q76.35 47.35 74.47 47.63Q72.60 47.90 71.30 47.65ZM85.70 45.30Q85.35 45.35 84.98 45.27Q84.60 45.20 84.25 44.95Q83.85 44.55 83.70 44.33Q83.55 44.10 83.63 43.60Q83.70 43.10 83.95 42.05Q84.20 41.25 84.55 39.83Q84.90 38.40 85.30 37Q85.45 36.20 85.73 35.35Q86 34.50 86.30 33.77Q86.60 33.05 86.75 32.65Q87.15 31.25 87.53 30.20Q87.90 29.15 88.45 27.77Q89 26.40 89.80 24.10Q90.90 21.10 91.48 19.52Q92.05 17.95 92.33 17.22Q92.60 16.50 92.70 16.10Q92.70 15.70 92.93 15.50Q93.15 15.30 93.50 15.30Q94.20 15.30 94.63 15.98Q95.05 16.65 95.15 17.57Q95.25 18.50 94.85 19.30Q94.05 21.10 93.15 23.57Q92.25 26.05 91.40 28.42Q90.55 30.80 89.80 32.45Q89.80 32.65 89.65 33.15Q89.50 33.65 89.30 34.05Q89.10 34.45 88.93 34.80Q88.75 35.15 88.75 35.15Q88.75 35.35 88.60 35.90Q88.45 36.45 88.20 37.25Q88 37.85 87.73 38.80Q87.45 39.75 87.35 40.40Q87.60 39.95 88.40 39.05Q89.20 38.15 89.90 37.50Q90.70 36.80 91.70 35.95Q92.70 35.10 93.30 34.70Q93.90 34.30 94.38 33.98Q94.85 33.65 94.85 33.65Q94.85 33.45 95.03 33.42Q95.20 33.40 95.40 33.40Q95.60 33.40 95.63 33.35Q95.65 33.30 95.65 33.10Q95.65 32.85 96.23 32.65Q96.80 32.45 97.58 32.33Q98.35 32.20 98.85 32.20Q99.45 32.20 99.80 32.45Q100.15 32.70 100.70 33.55Q101.30 34.35 101.48 35.48Q101.65 36.60 101.25 37.80Q101.25 38.20 101.13 38.92Q101 39.65 101 40.45L100.70 42.05L101.50 42.05Q101.90 42.05 102.25 42.17Q102.60 42.30 102.60 42.30Q102.80 42.50 103 42.67Q103.20 42.85 103.40 42.85Q104 42.85 103.85 43.33Q103.70 43.80 103.10 44.20Q101.90 45 100.93 45Q99.95 45 99.15 44.20Q98.35 43.35 98.15 42.30Q97.95 41.25 98.35 39.65Q98.55 37.45 98.58 36.42Q98.60 35.40 98.05 35.40Q97.55 35.40 96.30 36.08Q95.05 36.75 93.50 37.90Q91.95 39.05 90.45 40.45Q88.95 41.85 87.95 43.35Q87.35 44.10 86.80 44.67Q86.25 45.25 85.70 45.30ZM107.65 46.40Q107.25 46 107.08 45.40Q106.90 44.80 106.95 44.20Q107.00 43.60 107.20 43.20Q107.20 42.80 107.33 42.58Q107.45 42.35 107.40 42.15Q107.35 41.95 107.50 41.45Q107.65 40.95 107.80 40.50Q108.15 39.70 108.55 38.58Q108.95 37.45 109.30 36.35Q109.65 35.25 109.90 34.45Q110.15 33.65 110.20 33.45Q110.20 32.85 111.00 32.80Q111.60 32.60 111.90 32.77Q112.20 32.95 112.70 33.75Q113.10 34.15 113.00 34.95Q112.90 35.75 112.35 36.95Q112.15 37.35 111.88 38.10Q111.60 38.85 111.50 39.45Q111.30 39.85 111.03 40.58Q110.75 41.30 110.55 41.95Q110.45 42.20 110.35 42.67Q110.25 43.15 110.10 43.67Q109.95 44.20 109.70 44.60Q109.25 46.65 108.88 47Q108.50 47.35 107.65 46.40M112.50 26.10Q112.25 25.85 112.05 25.38Q111.85 24.90 111.80 24.47Q111.75 24.05 111.90 24.05Q112.30 24 112.85 23.20Q113.40 22.40 113.30 21.80Q113.30 21.60 113.45 21.42Q113.60 21.25 113.80 21.20Q114.40 20.80 114.98 21.07Q115.55 21.35 116.05 22.15Q116.50 23.10 116.30 23.72Q116.10 24.35 115.20 25.45Q114.45 26.45 113.83 26.55Q113.20 26.65 112.50 26.10ZM134.15 45.70Q133.15 45.70 132.50 45.27Q131.85 44.85 131.40 43.85Q131.20 43.15 131.07 42.27Q130.95 41.40 130.95 40.63Q130.95 39.85 131.10 39.60Q131.30 39.40 131.28 38.88Q131.25 38.35 131.25 37.75Q131.20 36.75 130.78 36.63Q130.35 36.50 129.55 36.95Q128.65 37.50 127.20 38.42Q125.75 39.35 124.18 40.45Q122.60 41.55 121.20 42.75Q120.10 43.95 119.88 44.58Q119.65 45.20 119.25 45.20Q118.85 45.40 118.58 45.23Q118.30 45.05 117.80 44.65Q117.45 44.25 117.10 43.88Q116.75 43.50 116.65 43.30Q116.65 43.05 116.80 42.25Q116.95 41.45 117.17 40.65Q117.40 39.85 117.50 39.60Q117.75 39.60 117.92 39.10Q118.10 38.60 118.50 38Q118.60 37.40 119.03 36.38Q119.45 35.35 119.80 34.55Q120.50 33.35 120.78 32.55Q121.05 31.75 121.15 30.55Q121.10 30.35 121.25 30.18Q121.40 30 121.60 30L121.60 30L121.60 30Q122 29.60 122.55 29.77Q123.10 29.95 123.55 30.55Q124.45 31.75 124.28 33.02Q124.10 34.30 122.65 36.65Q122.30 37.45 122.13 37.88Q121.95 38.30 121.95 38.55Q121.95 38.55 122.48 38.20Q123 37.85 123.68 37.38Q124.35 36.90 124.75 36.65Q125 36.40 125.90 35.75Q126.80 35.10 127.83 34.48Q128.85 33.85 129.35 33.75Q129.75 33.55 130.20 33.38Q130.65 33.20 130.85 33.20Q131.25 33.20 131.88 33.63Q132.50 34.05 133.05 34.63Q133.60 35.20 133.70 35.60Q133.70 35.80 133.72 36Q133.75 36.20 133.80 36.40Q134 37.05 134.03 38.15Q134.05 39.25 133.95 40.15Q133.85 41.05 133.60 41.20Q133.60 41.20 133.63 41.33Q133.65 41.45 133.85 41.45Q133.85 41.65 133.85 41.67Q133.85 41.70 133.85 41.70Q133.60 41.70 133.65 42.13Q133.70 42.55 133.97 43.05Q134.25 43.55 134.55 43.85Q135.15 44.45 135.05 44.98Q134.95 45.50 134.15 45.70ZM144.20 57.55Q142.80 58.10 141.27 57.38Q139.75 56.65 138.65 55.10Q138.45 54.80 138.17 54.17Q137.90 53.55 137.67 52.90Q137.45 52.25 137.40 51.75Q137.35 51.25 137.50 51.15Q137.65 51 138 51.05Q138.35 51.10 138.67 51.30Q139 51.50 139.10 51.80Q139.25 52.15 139.57 52.70Q139.90 53.25 140.30 53.70Q140.70 54.15 140.90 54.20Q141.85 54.65 142.30 54.60Q142.75 54.55 143.10 54.30Q143.95 53.65 144.50 52.60Q145.05 51.55 145.75 49.35Q146.30 47.50 146.88 45.42Q147.45 43.35 147.90 42.20Q148.05 41.60 148.27 41.17Q148.50 40.75 148.70 40.55L149 40.55Q147.90 41.25 147.05 42.15Q146.20 43.05 144.90 43.60Q144.60 43.95 143.42 44.02Q142.25 44.10 141.15 43.75Q140.45 43.35 140.13 43.15Q139.80 42.95 139.63 42.60Q139.45 42.25 139.15 41.50Q138.80 40.75 139.05 39.05Q139.30 37.35 139.95 35.65Q140.55 34.40 141.70 32.95Q142.85 31.50 144.15 30.32Q145.45 29.15 146.50 28.85Q146.90 28.65 147.38 28.57Q147.85 28.50 148.75 28.75Q149.60 28.85 150.05 29.13Q150.50 29.40 151.50 30.25Q152.15 30.90 152.57 31.55Q153 32.20 153.25 32.90Q153.60 33.65 153.52 34.27Q153.45 34.90 152.95 35.55Q152.50 36.20 152 36.85Q151.50 37.50 151.25 38.65Q151 40.15 150.45 42.02Q149.90 43.90 149.50 45.50L148.70 48.60Q147.45 52.85 146.32 54.92Q145.20 57 144.20 57.55M142.40 41.55Q143.40 41.50 144.30 41.15Q145.20 40.80 146.05 39.98Q146.90 39.15 147.75 37.85Q148.60 36.65 148.95 35.33Q149.30 34 149.20 32.75Q149.15 31.95 148.95 31.70Q148.75 31.45 148.10 31.55Q147.15 31.70 146 32.58Q144.85 33.45 143.85 34.75Q143.10 35.75 142.60 37.15Q142.10 38.65 142 40Q141.90 41.35 142.40 41.55ZM159.75 48.20Q158.80 47.80 157.95 47.13Q157.10 46.45 156.85 46Q156.85 45.55 157 45.38Q157.15 45.20 157.88 45.23Q158.60 45.25 160.25 45.45Q160.85 45.45 161.75 45.35Q162.65 45.25 163.42 45.05Q164.20 44.85 164.30 44.55Q164.55 44.55 164.40 44.38Q164.25 44.20 164.05 44Q163.85 44 163.60 43.83Q163.35 43.65 163.15 43.65Q163.15 43.40 162.67 43.08Q162.20 42.75 161.70 42.55Q160.60 41.65 159.80 40.92Q159 40.20 159.20 39.95Q159.20 39.75 159.20 39.73Q159.20 39.70 159.20 39.70Q158.85 39.70 158.42 38.70Q158 37.70 158 36.90Q158 36.30 158.35 35.38Q158.70 34.45 159.30 33.45Q159.90 32.45 160.55 31.80Q161.45 30.95 162.80 29.97Q164.15 29 165.47 28.22Q166.80 27.45 167.70 27.20Q168.60 26.85 169.38 26.85Q170.15 26.85 170.75 27.20Q171.25 27.45 171.67 27.92Q172.10 28.40 172.42 28.88Q172.75 29.35 172.85 29.70Q172.85 30.30 172.75 31.02Q172.65 31.75 172.47 32.30Q172.30 32.85 171.95 32.85Q171.95 32.85 171.82 32.88Q171.70 32.90 171.70 33.15Q171.70 33.65 170.95 34.30Q170 34.95 169.30 35.08Q168.60 35.20 168.45 34.55Q168.30 34.35 168.25 34.20Q168.20 34.05 168 34.05Q168 34.05 167.85 33.90Q167.70 33.75 167.70 33.40Q167.70 33.20 167.85 33.02Q168 32.85 168 32.85Q168.25 32.85 168.65 32.27Q169.05 31.70 169.38 31.02Q169.70 30.35 169.70 30.10Q169.70 29.80 169.63 29.75Q169.55 29.70 169.15 29.70Q168.45 30 167.45 30.50Q166.45 31 165.57 31.47Q164.70 31.95 164.30 32.35Q164.10 32.70 164.05 32.77Q164 32.85 163.80 32.85Q163.80 32.65 163.47 33.02Q163.15 33.40 162.67 34.05Q162.20 34.70 161.77 35.33Q161.35 35.95 161.15 36.25Q161.05 36.35 160.92 36.83Q160.80 37.30 160.80 37.70Q160.60 38.30 160.85 38.52Q161.10 38.75 161.95 39.45Q163.70 40.75 164.70 41.60Q165.70 42.45 166.20 43Q166.70 43.55 166.80 44Q167.70 45.50 167.35 46.30Q167 47.10 165.65 47.70Q165.15 47.95 164 48.10Q162.85 48.25 161.65 48.27Q160.45 48.30 159.75 48.20ZM186.40 46.40Q186 46 185.82 45.40Q185.65 44.80 185.70 44.20Q185.75 43.60 185.95 43.20Q185.95 42.80 186.07 42.58Q186.20 42.35 186.15 42.15Q186.10 41.95 186.25 41.45Q186.40 40.95 186.55 40.50Q186.90 39.70 187.30 38.58Q187.70 37.45 188.05 36.35Q188.40 35.25 188.65 34.45Q188.90 33.65 188.95 33.45Q188.95 32.85 189.75 32.80Q190.35 32.60 190.65 32.77Q190.95 32.95 191.45 33.75Q191.85 34.15 191.75 34.95Q191.65 35.75 191.10 36.95Q190.90 37.35 190.63 38.10Q190.35 38.85 190.25 39.45Q190.05 39.85 189.78 40.58Q189.50 41.30 189.30 41.95Q189.20 42.20 189.10 42.67Q189 43.15 188.85 43.67Q188.70 44.20 188.45 44.60Q188 46.65 187.63 47Q187.25 47.35 186.40 46.40M191.25 26.10Q191 25.85 190.80 25.38Q190.60 24.90 190.55 24.47Q190.50 24.05 190.65 24.05Q191.05 24 191.60 23.20Q192.15 22.40 192.05 21.80Q192.05 21.60 192.20 21.42Q192.35 21.25 192.55 21.20Q193.15 20.80 193.72 21.07Q194.30 21.35 194.80 22.15Q195.25 23.10 195.05 23.72Q194.85 24.35 193.95 25.45Q193.20 26.45 192.57 26.55Q191.95 26.65 191.25 26.10ZM211.15 45.75Q210.40 45.75 209.77 44.83Q209.15 43.90 208.87 42.42Q208.60 40.95 208.70 39.35Q208.70 37.75 208.87 36.77Q209.05 35.80 209.25 34.85Q209.40 34.55 209.42 34.35Q209.45 34.15 209.52 33.70Q209.60 33.25 209.85 32.20Q210.05 31.35 210.25 30.80Q210.45 30.25 210.65 30.05Q210.90 29.75 211.30 29.68Q211.70 29.60 212.10 29.75Q212.50 29.90 212.75 30.30Q213.05 30.55 213.07 31.43Q213.10 32.30 212.95 33.23Q212.80 34.15 212.50 34.55Q212.40 34.80 212.27 35.85Q212.15 36.90 212.02 38.05Q211.90 39.20 211.75 39.90Q211.60 40.80 211.92 41.35Q212.25 41.90 213.17 41.38Q214.10 40.85 215.65 38.60Q216.70 37.10 217.25 36.15Q217.80 35.20 218.12 34.38Q218.45 33.55 218.80 32.60Q219.05 31.80 219.27 31.27Q219.50 30.75 219.70 30.60Q220.05 30.35 220.52 30.40Q221.00 30.45 221.60 30.85Q222.20 31.45 222.20 32.27Q222.20 33.10 221.60 34.30Q221.20 35.10 220.82 36.35Q220.45 37.60 220.22 38.88Q220.00 40.15 220.00 40.95Q220.00 41.95 220.27 42.13Q220.55 42.30 220.95 42.30Q221.55 42.30 222.40 41.85Q223.25 41.40 224.30 40.30Q224.75 39.85 225.40 38.98Q226.05 38.10 226.67 37.13Q227.30 36.15 227.72 35.40Q228.15 34.65 228.15 34.45Q228.15 34.15 228.60 33.60Q228.90 33.20 229.07 32.98Q229.25 32.75 229.75 32.50Q230.15 32.30 230.45 32.42Q230.75 32.55 231.10 32.95Q231.35 33.15 231.38 33.55Q231.40 33.95 231.40 34.55Q231.25 35.10 230.92 35.98Q230.60 36.85 230.22 37.63Q229.85 38.40 229.60 38.70Q229.40 38.90 228.90 39.42Q228.40 39.95 228 40.55Q226.75 42.05 226.20 42.50Q225.65 42.95 225.25 43.35Q224.20 44.40 223.05 44.92Q221.90 45.45 220.87 45.45Q219.85 45.45 219.15 44.95Q217.60 44.15 217.60 42.25Q217.60 41.85 217.47 41.52Q217.35 41.20 217.35 41.20Q217.15 41.20 216.82 41.30Q216.50 41.40 216.15 42Q215.70 42.85 214.72 43.73Q213.75 44.60 212.75 45.17Q211.75 45.75 211.15 45.75ZM233.50 46.20Q233.30 45.80 233.00 45.58Q232.70 45.35 232.70 45.15Q232.70 44.95 232.67 44.73Q232.65 44.50 232.45 44.30Q232.20 44 232.50 42.92Q232.80 41.85 233.50 40.27Q234.20 38.70 235.15 36.95Q235.55 36.55 235.95 35.90Q236.35 35.25 236.55 35.05Q236.55 34.85 236.70 34.67Q236.85 34.50 237.05 34.50L237.05 34.20Q237.05 33.95 237.52 33.35Q238.00 32.75 238.70 32.02Q239.40 31.30 240.15 30.63Q240.90 29.95 241.40 29.65Q242.45 28.95 243.57 28.80Q244.70 28.65 245.50 29.30Q245.65 29.45 246.00 29.80Q246.35 30.15 246.82 30.57Q247.30 31 247.80 31.45L249.65 33.10L248.75 35.60Q248.10 37.60 248.42 39.10Q248.75 40.60 249.40 41.70Q249.65 42.25 250.42 42.75Q251.20 43.25 251.90 43.35Q252.30 43.40 252.65 43.65Q253.00 43.90 253.00 44.45Q253.00 44.95 252.80 45.25Q252.60 45.55 252.10 45.65Q250.45 45.85 249.02 44.85Q247.60 43.85 246.40 41.55Q246.20 41.25 245.87 40.42Q245.55 39.60 245.50 39.35Q245.30 39.60 244.75 40.27Q244.20 40.95 243.90 41.25Q240.35 44.85 237.77 46.08Q235.20 47.30 233.50 46.20M235.30 43.40Q235.30 43.75 236.37 43.38Q237.45 43 238.70 42Q240.40 40.55 242.12 38.80Q243.85 37.05 244.90 35.55L246.00 33.75Q245.50 32.60 244.92 32.17Q244.35 31.75 243.95 31.75Q243.30 31.75 242.02 32.95Q240.75 34.15 239.30 36.15Q237.85 38.15 236.55 40.55Q236.05 41.55 235.67 42.48Q235.30 43.40 235.30 43.40ZM272.70 45.70Q271.70 45.70 271.05 45.27Q270.40 44.85 269.95 43.85Q269.75 43.15 269.63 42.27Q269.50 41.40 269.50 40.63Q269.50 39.85 269.65 39.60Q269.85 39.40 269.82 38.88Q269.80 38.35 269.80 37.75Q269.75 36.75 269.32 36.63Q268.90 36.50 268.10 36.95Q267.20 37.50 265.75 38.42Q264.30 39.35 262.72 40.45Q261.15 41.55 259.75 42.75Q258.65 43.95 258.42 44.58Q258.20 45.20 257.80 45.20Q257.40 45.40 257.13 45.23Q256.85 45.05 256.35 44.65Q256.00 44.25 255.65 43.88Q255.30 43.50 255.20 43.30Q255.20 43.05 255.35 42.25Q255.50 41.45 255.72 40.65Q255.95 39.85 256.05 39.60Q256.30 39.60 256.47 39.10Q256.65 38.60 257.05 38Q257.15 37.40 257.57 36.38Q258 35.35 258.35 34.55Q259.05 33.35 259.32 32.55Q259.60 31.75 259.70 30.55Q259.65 30.35 259.80 30.18Q259.95 30 260.15 30L260.15 30L260.15 30Q260.55 29.60 261.10 29.77Q261.65 29.95 262.10 30.55Q263 31.75 262.82 33.02Q262.65 34.30 261.20 36.65Q260.85 37.45 260.67 37.88Q260.50 38.30 260.50 38.55Q260.50 38.55 261.02 38.20Q261.55 37.85 262.22 37.38Q262.90 36.90 263.30 36.65Q263.55 36.40 264.45 35.75Q265.35 35.10 266.38 34.48Q267.40 33.85 267.90 33.75Q268.30 33.55 268.75 33.38Q269.20 33.20 269.40 33.20Q269.80 33.20 270.42 33.63Q271.05 34.05 271.60 34.63Q272.15 35.20 272.25 35.60Q272.25 35.80 272.27 36Q272.30 36.20 272.35 36.40Q272.55 37.05 272.57 38.15Q272.60 39.25 272.50 40.15Q272.40 41.05 272.15 41.20Q272.15 41.20 272.17 41.33Q272.20 41.45 272.40 41.45Q272.40 41.65 272.40 41.67Q272.40 41.70 272.40 41.70Q272.15 41.70 272.20 42.13Q272.25 42.55 272.52 43.05Q272.80 43.55 273.10 43.85Q273.70 44.45 273.60 44.98Q273.50 45.50 272.70 45.70ZM295.20 45.70Q294.20 45.70 293.55 45.27Q292.90 44.85 292.45 43.85Q292.25 43.15 292.13 42.27Q292 41.40 292 40.63Q292 39.85 292.15 39.60Q292.35 39.40 292.32 38.88Q292.30 38.35 292.30 37.75Q292.25 36.75 291.82 36.63Q291.40 36.50 290.60 36.95Q289.70 37.50 288.25 38.42Q286.80 39.35 285.23 40.45Q283.65 41.55 282.25 42.75Q281.15 43.95 280.93 44.58Q280.70 45.20 280.30 45.20Q279.90 45.40 279.63 45.23Q279.35 45.05 278.85 44.65Q278.50 44.25 278.15 43.88Q277.80 43.50 277.70 43.30Q277.70 43.05 277.85 42.25Q278 41.45 278.23 40.65Q278.45 39.85 278.55 39.60Q278.80 39.60 278.98 39.10Q279.15 38.60 279.55 38Q279.65 37.40 280.07 36.38Q280.50 35.35 280.85 34.55Q281.55 33.35 281.82 32.55Q282.10 31.75 282.20 30.55Q282.15 30.35 282.30 30.18Q282.45 30 282.65 30L282.65 30L282.65 30Q283.05 29.60 283.60 29.77Q284.15 29.95 284.60 30.55Q285.50 31.75 285.32 33.02Q285.15 34.30 283.70 36.65Q283.35 37.45 283.18 37.88Q283 38.30 283 38.55Q283 38.55 283.52 38.20Q284.05 37.85 284.73 37.38Q285.40 36.90 285.80 36.65Q286.05 36.40 286.95 35.75Q287.85 35.10 288.88 34.48Q289.90 33.85 290.40 33.75Q290.80 33.55 291.25 33.38Q291.70 33.20 291.90 33.20Q292.30 33.20 292.93 33.63Q293.55 34.05 294.10 34.63Q294.65 35.20 294.75 35.60Q294.75 35.80 294.77 36Q294.80 36.20 294.85 36.40Q295.05 37.05 295.07 38.15Q295.10 39.25 295 40.15Q294.90 41.05 294.65 41.20Q294.65 41.20 294.68 41.33Q294.70 41.45 294.90 41.45Q294.90 41.65 294.90 41.67Q294.90 41.70 294.90 41.70Q294.65 41.70 294.70 42.13Q294.75 42.55 295.02 43.05Q295.30 43.55 295.60 43.85Q296.20 44.45 296.10 44.98Q296 45.50 295.20 45.70ZM300.35 46.20Q300.15 45.80 299.85 45.58Q299.55 45.35 299.55 45.15Q299.55 44.95 299.52 44.73Q299.50 44.50 299.30 44.30Q299.05 44 299.35 42.92Q299.65 41.85 300.35 40.27Q301.05 38.70 302 36.95Q302.40 36.55 302.80 35.90Q303.20 35.25 303.40 35.05Q303.40 34.85 303.55 34.67Q303.70 34.50 303.90 34.50L303.90 34.20Q303.90 33.95 304.38 33.35Q304.85 32.75 305.55 32.02Q306.25 31.30 307 30.63Q307.75 29.95 308.25 29.65Q309.30 28.95 310.43 28.80Q311.55 28.65 312.35 29.30Q312.50 29.45 312.85 29.80Q313.20 30.15 313.68 30.57Q314.15 31 314.65 31.45L316.50 33.10L315.60 35.60Q314.95 37.60 315.27 39.10Q315.60 40.60 316.25 41.70Q316.50 42.25 317.27 42.75Q318.05 43.25 318.75 43.35Q319.15 43.40 319.50 43.65Q319.85 43.90 319.85 44.45Q319.85 44.95 319.65 45.25Q319.45 45.55 318.95 45.65Q317.30 45.85 315.88 44.85Q314.45 43.85 313.25 41.55Q313.05 41.25 312.73 40.42Q312.40 39.60 312.35 39.35Q312.15 39.60 311.60 40.27Q311.05 40.95 310.75 41.25Q307.20 44.85 304.63 46.08Q302.05 47.30 300.35 46.20M302.15 43.40Q302.15 43.75 303.23 43.38Q304.30 43 305.55 42Q307.25 40.55 308.98 38.80Q310.70 37.05 311.75 35.55L312.85 33.75Q312.35 32.60 311.77 32.17Q311.20 31.75 310.80 31.75Q310.15 31.75 308.88 32.95Q307.60 34.15 306.15 36.15Q304.70 38.15 303.40 40.55Q302.90 41.55 302.52 42.48Q302.15 43.40 302.15 43.40ZM347.05 48.95Q346.40 49.10 345.98 48.77Q345.55 48.45 345.35 47.85Q344.95 46.70 344.78 45.33Q344.60 43.95 344.70 42.90L344.80 41.85L342.85 43.40Q341.15 44.90 339.58 45.55Q338.00 46.20 336.80 46.20Q336.25 46.10 335.70 45.80Q335.15 45.50 334.73 45.05Q334.30 44.60 334.05 44.10Q333.75 43.40 333.88 42.20Q334.00 41 334.48 39.58Q334.95 38.15 335.68 36.77Q336.40 35.40 337.35 34.35Q339.00 31.85 340.90 31.30Q342.80 30.75 344.65 31.85Q345.95 32.40 346.28 32.35Q346.60 32.30 346.85 31.20Q347.05 30.40 347.25 29.57Q347.45 28.75 347.90 27.35Q349.15 23.55 350.08 21.40Q351.00 19.25 351.75 17.65Q352.30 16.50 352.68 16.22Q353.05 15.95 353.45 16Q354.00 16 354.45 16.40Q354.90 16.80 355.15 17.50Q355.35 17.95 355.33 18.27Q355.30 18.60 355.00 19.15Q354.35 20.35 353.48 22.32Q352.60 24.30 351.73 26.65Q350.85 29 350.10 31.30Q349.35 33.60 348.85 35.35Q348.55 36.45 348.33 38.15Q348.10 39.85 347.95 41.63Q347.80 43.40 347.78 44.77Q347.75 46.15 347.85 46.55Q348.15 47.55 348.13 48.05Q348.10 48.55 347.85 48.73Q347.60 48.90 347.05 48.95M338.60 43.40Q339.30 43.25 339.98 42.85Q340.65 42.45 341.40 41.90Q342.90 40.75 344.00 39.80Q345.10 38.85 345.45 36.90Q345.55 35.95 345.28 35.38Q345.00 34.80 344.40 34.30Q343.80 33.90 342.78 33.98Q341.75 34.05 340.65 35.05Q339.45 36.15 338.33 38Q337.20 39.85 336.65 42.55Q336.55 43.05 336.95 43.35Q337.35 43.65 338.60 43.40ZM357.05 47.25Q356.40 47.25 356.03 47Q355.65 46.75 355.10 46.30Q354.15 45.30 353.75 44.38Q353.35 43.45 353.50 42.60Q353.65 42.20 353.63 41.83Q353.60 41.45 353.60 41.45Q353.35 41.20 353.45 41.13Q353.55 41.05 353.65 40.85Q353.95 40.85 353.85 40.30Q353.75 39.90 354.25 38.55Q354.75 37.20 355.50 36Q355.80 35.50 356.40 34.67Q357 33.85 357.73 33.02Q358.45 32.20 359.05 31.70Q360.30 30.65 361.25 30.15Q362.20 29.65 363.30 29.40Q364.40 29.15 364.83 29.15Q365.25 29.15 366 29.95Q367.15 30.45 367.68 31.15Q368.20 31.85 368.35 33.20Q368.50 34.70 368.13 36.63Q367.75 38.55 365.75 41.40Q364.50 43.20 363.45 44.08Q362.40 44.95 360.95 45.80Q359.90 46.50 359.05 46.83Q358.20 47.15 357.05 47.25M361.85 41.95Q363.05 40.60 363.78 39.40Q364.50 38.20 365.15 36.35Q365.35 35.80 365.40 34.98Q365.45 34.15 365.38 33.42Q365.30 32.70 365 32.60Q364.40 32.25 363.55 32.38Q362.70 32.50 361.70 33.35Q360.15 34.65 359 36.58Q357.85 38.50 356.75 40.95Q356 42.75 356.43 43.83Q356.85 44.90 358.28 44.58Q359.70 44.25 361.85 41.95ZM388.90 47.15Q387.90 47.05 387.68 46.90Q387.45 46.75 387.15 46.10Q386.75 45.65 386.68 45.40Q386.60 45.15 386.65 44.95Q386.90 44.95 387.10 44.92Q387.30 44.90 387.35 44.75Q387.35 44.60 387.53 44.55Q387.70 44.50 387.90 44.55Q388.85 44.60 390.33 43.92Q391.80 43.25 393.53 42.02Q395.25 40.80 396.90 39.30Q398.20 37.60 398.80 36.63Q399.40 35.65 399.50 35.02Q399.60 34.40 399.35 33.95Q399.15 33.55 397.90 33.63Q396.65 33.70 395.10 34.70Q392.95 36.05 391.65 37.20Q390.35 38.35 389.25 39.80Q388.85 40.30 388.48 41Q388.10 41.70 387.85 42.20Q387.60 42.70 387.60 42.70Q387.60 42.90 387.03 43.20Q386.45 43.50 386.05 43.50Q385.85 43.40 385.53 43.13Q385.20 42.85 385.10 42.40Q384.75 42.15 384.60 42Q384.45 41.85 384.40 41.65Q384.35 41.35 384.55 40.70Q384.75 40.05 385.10 38.65Q385.40 37.35 385.78 35.95Q386.15 34.55 386.50 33.55Q386.85 32.55 387 32.45Q387 32.45 387.20 32Q387.40 31.55 387.40 30.95Q387.50 30.35 387.73 29.90Q387.95 29.45 387.95 29.25Q388.15 29.10 388.55 28.05Q388.95 27 389.55 25.30Q389.55 25.15 389.90 24.32Q390.25 23.50 390.75 22.38Q391.25 21.25 391.78 20.02Q392.30 18.80 392.65 17.85Q393.25 17 393.58 16.27Q393.90 15.55 394.25 15.40Q394.50 15.35 394.88 15.42Q395.25 15.50 395.63 15.70Q396 15.90 396.25 16.30Q396.40 16.55 396.45 16.75Q396.50 16.95 396.30 17.47Q396.10 18 395.53 19.22Q394.95 20.45 393.85 22.75Q392.45 25.75 391.55 28.10Q390.65 30.45 390.05 32.25Q389.45 34.05 388.95 35.35L388.70 36.45L389.95 35.25Q390.70 34.70 391.60 33.90Q392.50 33.10 393.20 32.50Q393.60 32.20 394.28 31.88Q394.95 31.55 395.60 31.30Q396.25 31.05 396.55 31Q396.70 30.95 397.30 30.85Q397.90 30.75 398.75 30.75Q399.85 30.75 400.53 31.25Q401.20 31.75 401.85 32.85Q402.40 33.90 402.30 35.23Q402.20 36.55 401.50 37.70Q401.25 37.90 401 38.23Q400.75 38.55 400.75 38.75Q400.70 39.10 399.85 40.17Q399 41.25 398.15 42.20Q397.25 43.15 395.95 44.08Q394.65 45 393.38 45.73Q392.10 46.45 391.20 46.75Q390.80 46.80 390.05 46.92Q389.30 47.05 388.90 47.15ZM413.90 46.25Q412.85 47.15 411.48 47.30Q410.10 47.45 408.80 46.88Q407.50 46.30 406.65 45.10Q405.80 44 405.55 42.58Q405.30 41.15 405.50 38.85Q405.65 36.90 406.75 34.92Q407.85 32.95 409.43 31.40Q411 29.85 412.55 29.25Q413.30 28.75 413.83 28.77Q414.35 28.80 415.45 28.90Q416.60 29.05 417.18 29.35Q417.75 29.65 418.10 30.15Q418.85 30.90 419.10 31.63Q419.35 32.35 419.35 33.05Q419.15 34.15 417.88 35.73Q416.60 37.30 414.55 38.30Q413.45 38.65 412.15 38.60Q410.85 38.55 410 37.95Q409.05 37.55 408.75 38.08Q408.45 38.60 408.20 40.60Q408 42.50 408.50 43.38Q409 44.25 409.85 44.40Q410.85 44.60 411.43 44.67Q412 44.75 412.85 44.25Q413.65 43.75 413.85 43.67Q414.05 43.60 414.18 43.48Q414.30 43.35 414.80 42.85Q415.15 42.50 415.35 42.33Q415.55 42.15 415.80 42.15Q416.05 42.15 416.25 42.38Q416.45 42.60 416.65 42.70Q417.15 42.70 416.88 43.30Q416.60 43.90 415.80 44.73Q415 45.55 413.90 46.25M413.85 35.65Q414.40 35.40 415 34.92Q415.60 34.45 416.03 33.88Q416.45 33.30 416.45 32.90Q416.45 32.20 415.80 31.72Q415.15 31.25 413.85 31.60Q413.30 31.75 412.60 32.33Q411.90 32.90 411.28 33.60Q410.65 34.30 410.28 34.85Q409.90 35.40 410 35.50Q410.15 35.75 410.85 35.88Q411.55 36 412.43 35.95Q413.30 35.90 413.85 35.65ZM422.50 53.30Q422.20 53.50 421.83 53.20Q421.45 52.90 420.75 52.10Q420.40 51.70 420.30 51.25Q420.20 50.80 420.35 49.55Q420.55 49 420.58 48.50Q420.60 48 420.60 47.80Q420.60 47.50 420.78 46.40Q420.95 45.30 421.15 44.08Q421.35 42.85 421.50 42.20Q421.50 42.15 421.55 41.95Q421.60 41.75 421.65 41.60Q421.75 41.15 421.93 40.40Q422.10 39.65 422.25 38.55Q422.65 37.30 422.93 36.08Q423.20 34.85 423.20 34.40Q423.20 33.50 423.90 33.10Q423.95 32.85 424.20 32.33Q424.45 31.80 424.65 31.45Q425.65 28.60 426.30 26.92Q426.95 25.25 427.65 24Q427.95 23.15 428.33 22.25Q428.70 21.35 429.10 20.85Q429.35 20.20 430.25 19.17Q431.15 18.15 432.15 17.17Q433.15 16.20 433.75 15.70Q434.85 15.15 435.50 14.95Q436.15 14.75 437.20 14.75Q438.15 14.75 438.48 14.98Q438.80 15.20 439.45 15.80Q440.15 16.55 440.25 16.80Q440.35 17.05 440.35 17.75Q440.25 18.40 439.83 19.42Q439.40 20.45 438.93 21.27Q438.45 22.10 438.15 22.15Q437.55 22.35 437.28 22.02Q437 21.70 437 20.95Q437 20.60 436.83 20.27Q436.65 19.95 436.65 19.95Q436.65 19.80 436.73 19.42Q436.80 19.05 437 18.70Q437.25 18.20 437.13 17.95Q437 17.70 436.45 17.85Q436.30 17.95 435.65 18.45Q435 18.95 434.28 19.57Q433.55 20.20 433 20.75Q432.45 21.30 432.45 21.45Q432.45 21.45 432.25 21.88Q432.05 22.30 431.50 22.95Q431.15 23.45 430.88 23.92Q430.60 24.40 430.60 24.50Q430.60 24.70 430.58 24.92Q430.55 25.15 430.30 25.15Q430.30 25.15 430.15 25.60Q430 26.05 429.60 26.75Q429.40 27.25 429.10 27.77Q428.80 28.30 428.60 28.50L428.65 28.50Q428.65 28.50 428.43 29.13Q428.20 29.75 427.95 30.43Q427.70 31.10 427.70 31.20Q427.70 31.40 428.43 31.40Q429.15 31.40 430.15 31.22Q431.15 31.05 431.95 30.85Q432.65 30.65 432.90 30.65Q433.15 30.65 433.90 30.85Q434.30 31.10 434.58 31.57Q434.85 32.05 434.98 32.48Q435.10 32.90 434.95 33.10Q434.90 33.30 433.85 33.65Q432.80 34 431.75 34.20Q430.85 34.40 429.55 34.65Q428.25 34.90 427.28 35.10Q426.30 35.30 426.30 35.45Q426.10 35.45 425.95 35.67Q425.80 35.90 425.80 36.05Q425.80 36.75 425.60 37.10Q425.50 37.40 425.25 38.30Q425 39.20 424.73 40.30Q424.45 41.40 424.28 42.30Q424.10 43.20 424.10 43.50Q423.80 43.85 423.75 44.38Q423.70 44.90 423.70 45.30Q423.50 45.70 423.45 46.02Q423.40 46.35 423.40 46.55Q423.40 46.60 423.40 46.75Q423.40 46.90 423.35 47.05Q423.30 47.55 423.23 48.38Q423.15 49.20 423.15 50L423 51.45Q422.95 52.10 422.85 52.58Q422.75 53.05 422.50 53.30ZM439.35 47.25Q438.70 47.25 438.33 47Q437.95 46.75 437.40 46.30Q436.45 45.30 436.05 44.38Q435.65 43.45 435.80 42.60Q435.95 42.20 435.93 41.83Q435.90 41.45 435.90 41.45Q435.65 41.20 435.75 41.13Q435.85 41.05 435.95 40.85Q436.25 40.85 436.15 40.30Q436.05 39.90 436.55 38.55Q437.05 37.20 437.80 36Q438.10 35.50 438.70 34.67Q439.30 33.85 440.03 33.02Q440.75 32.20 441.35 31.70Q442.60 30.65 443.55 30.15Q444.50 29.65 445.60 29.40Q446.70 29.15 447.13 29.15Q447.55 29.15 448.30 29.95Q449.45 30.45 449.98 31.15Q450.50 31.85 450.65 33.20Q450.80 34.70 450.43 36.63Q450.05 38.55 448.05 41.40Q446.80 43.20 445.75 44.08Q444.70 44.95 443.25 45.80Q442.20 46.50 441.35 46.83Q440.50 47.15 439.35 47.25M444.15 41.95Q445.35 40.60 446.08 39.40Q446.80 38.20 447.45 36.35Q447.65 35.80 447.70 34.98Q447.75 34.15 447.68 33.42Q447.60 32.70 447.30 32.60Q446.70 32.25 445.85 32.38Q445.00 32.50 444.00 33.35Q442.45 34.65 441.30 36.58Q440.15 38.50 439.05 40.95Q438.30 42.75 438.73 43.83Q439.15 44.90 440.58 44.58Q442.00 44.25 444.15 41.95ZM454.50 46.25Q454.05 45.90 453.88 45.55Q453.70 45.20 453.85 44.20Q454 42.80 454.25 41.73Q454.50 40.65 454.85 39.25Q454.95 38.65 455.43 37.20Q455.90 35.75 456.60 34.05Q457.30 32.35 458 30.82Q458.70 29.30 459.20 28.55Q459.60 28.25 460.18 28.30Q460.75 28.35 461.15 28.75Q461.70 29.20 461.32 30.32Q460.95 31.45 459.80 33.85Q459.20 35.20 458.90 35.88Q458.60 36.55 458.65 36.67Q458.70 36.80 459.10 36.55Q459.40 36 460.20 35.27Q461 34.55 461.90 33.85Q462.80 33.15 463.60 32.60Q464.40 32.05 464.70 31.90Q465.10 31.65 465.63 31.47Q466.15 31.30 466.35 31.20Q467.50 30.65 468.70 30.80Q469.90 30.95 470.20 31.70Q470.25 32.10 470.53 32.30Q470.80 32.50 470.80 32.50Q471 32.50 471.03 32.65Q471.05 32.80 471.05 32.80Q471.05 33.15 470.53 33.23Q470 33.30 469.20 33.35Q468.55 33.40 468.05 33.60Q467.55 33.80 466.85 34.10Q464.95 35.20 463.23 36.25Q461.50 37.30 459.90 39.05Q459.55 39.45 459.20 40Q458.85 40.55 458.45 41.20Q458.20 41.45 457.95 42.30Q457.70 43.15 457.53 43.92Q457.35 44.70 457.35 44.85Q457.35 44.85 457.20 45.33Q457.05 45.80 456.70 46.25Q456.10 47.05 455.70 47.05Q455.30 47.05 454.50 46.25ZM480.35 46.25Q479.30 47.15 477.93 47.30Q476.55 47.45 475.25 46.88Q473.95 46.30 473.10 45.10Q472.25 44 472 42.58Q471.75 41.15 471.95 38.85Q472.10 36.90 473.20 34.92Q474.30 32.95 475.88 31.40Q477.45 29.85 479 29.25Q479.75 28.75 480.28 28.77Q480.80 28.80 481.90 28.90Q483.05 29.05 483.63 29.35Q484.20 29.65 484.55 30.15Q485.30 30.90 485.55 31.63Q485.80 32.35 485.80 33.05Q485.60 34.15 484.32 35.73Q483.05 37.30 481 38.30Q479.90 38.65 478.60 38.60Q477.30 38.55 476.45 37.95Q475.50 37.55 475.20 38.08Q474.90 38.60 474.65 40.60Q474.45 42.50 474.95 43.38Q475.45 44.25 476.30 44.40Q477.30 44.60 477.88 44.67Q478.45 44.75 479.30 44.25Q480.10 43.75 480.30 43.67Q480.50 43.60 480.63 43.48Q480.75 43.35 481.25 42.85Q481.60 42.50 481.80 42.33Q482 42.15 482.25 42.15Q482.50 42.15 482.70 42.38Q482.90 42.60 483.10 42.70Q483.60 42.70 483.32 43.30Q483.05 43.90 482.25 44.73Q481.45 45.55 480.35 46.25M480.30 35.65Q480.85 35.40 481.45 34.92Q482.05 34.45 482.48 33.88Q482.90 33.30 482.90 32.90Q482.90 32.20 482.25 31.72Q481.60 31.25 480.30 31.60Q479.75 31.75 479.05 32.33Q478.35 32.90 477.73 33.60Q477.10 34.30 476.73 34.85Q476.35 35.40 476.45 35.50Q476.60 35.75 477.30 35.88Q478 36 478.88 35.95Q479.75 35.90 480.30 35.65ZM500.45 46.40Q500.05 46 499.88 45.40Q499.70 44.80 499.75 44.20Q499.80 43.60 500.00 43.20Q500.00 42.80 500.13 42.58Q500.25 42.35 500.20 42.15Q500.15 41.95 500.30 41.45Q500.45 40.95 500.60 40.50Q500.95 39.70 501.35 38.58Q501.75 37.45 502.10 36.35Q502.45 35.25 502.70 34.45Q502.95 33.65 503.00 33.45Q503.00 32.85 503.80 32.80Q504.40 32.60 504.70 32.77Q505.00 32.95 505.50 33.75Q505.90 34.15 505.80 34.95Q505.70 35.75 505.15 36.95Q504.95 37.35 504.68 38.10Q504.40 38.85 504.30 39.45Q504.10 39.85 503.83 40.58Q503.55 41.30 503.35 41.95Q503.25 42.20 503.15 42.67Q503.05 43.15 502.90 43.67Q502.75 44.20 502.50 44.60Q502.05 46.65 501.68 47Q501.30 47.35 500.45 46.40M505.30 26.10Q505.05 25.85 504.85 25.38Q504.65 24.90 504.60 24.47Q504.55 24.05 504.70 24.05Q505.10 24 505.65 23.20Q506.20 22.40 506.10 21.80Q506.10 21.60 506.25 21.42Q506.40 21.25 506.60 21.20Q507.20 20.80 507.78 21.07Q508.35 21.35 508.85 22.15Q509.30 23.10 509.10 23.72Q508.90 24.35 508.00 25.45Q507.25 26.45 506.63 26.55Q506.00 26.65 505.30 26.10ZM534.45 48.95Q533.80 49.10 533.38 48.77Q532.95 48.45 532.75 47.85Q532.35 46.70 532.18 45.33Q532 43.95 532.10 42.90L532.20 41.85L530.25 43.40Q528.55 44.90 526.98 45.55Q525.40 46.20 524.20 46.20Q523.65 46.10 523.10 45.80Q522.55 45.50 522.13 45.05Q521.70 44.60 521.45 44.10Q521.15 43.40 521.27 42.20Q521.40 41 521.88 39.58Q522.35 38.15 523.08 36.77Q523.80 35.40 524.75 34.35Q526.40 31.85 528.30 31.30Q530.20 30.75 532.05 31.85Q533.35 32.40 533.68 32.35Q534 32.30 534.25 31.20Q534.45 30.40 534.65 29.57Q534.85 28.75 535.30 27.35Q536.55 23.55 537.48 21.40Q538.40 19.25 539.15 17.65Q539.70 16.50 540.08 16.22Q540.45 15.95 540.85 16Q541.40 16 541.85 16.40Q542.30 16.80 542.55 17.50Q542.75 17.95 542.73 18.27Q542.70 18.60 542.40 19.15Q541.75 20.35 540.88 22.32Q540 24.30 539.13 26.65Q538.25 29 537.50 31.30Q536.75 33.60 536.25 35.35Q535.95 36.45 535.73 38.15Q535.50 39.85 535.35 41.63Q535.20 43.40 535.18 44.77Q535.15 46.15 535.25 46.55Q535.55 47.55 535.52 48.05Q535.50 48.55 535.25 48.73Q535 48.90 534.45 48.95M526 43.40Q526.70 43.25 527.38 42.85Q528.05 42.45 528.80 41.90Q530.30 40.75 531.40 39.80Q532.50 38.85 532.85 36.90Q532.95 35.95 532.68 35.38Q532.40 34.80 531.80 34.30Q531.20 33.90 530.18 33.98Q529.15 34.05 528.05 35.05Q526.85 36.15 525.73 38Q524.60 39.85 524.05 42.55Q523.95 43.05 524.35 43.35Q524.75 43.65 526 43.40ZM541.55 46.40Q541.15 46 540.98 45.40Q540.80 44.80 540.85 44.20Q540.90 43.60 541.10 43.20Q541.10 42.80 541.23 42.58Q541.35 42.35 541.30 42.15Q541.25 41.95 541.40 41.45Q541.55 40.95 541.70 40.50Q542.05 39.70 542.45 38.58Q542.85 37.45 543.20 36.35Q543.55 35.25 543.80 34.45Q544.05 33.65 544.10 33.45Q544.10 32.85 544.90 32.80Q545.50 32.60 545.80 32.77Q546.10 32.95 546.60 33.75Q547 34.15 546.90 34.95Q546.80 35.75 546.25 36.95Q546.05 37.35 545.77 38.10Q545.50 38.85 545.40 39.45Q545.20 39.85 544.92 40.58Q544.65 41.30 544.45 41.95Q544.35 42.20 544.25 42.67Q544.15 43.15 544 43.67Q543.85 44.20 543.60 44.60Q543.15 46.65 542.77 47Q542.40 47.35 541.55 46.40M546.40 26.10Q546.15 25.85 545.95 25.38Q545.75 24.90 545.70 24.47Q545.65 24.05 545.80 24.05Q546.20 24 546.75 23.20Q547.30 22.40 547.20 21.80Q547.20 21.60 547.35 21.42Q547.50 21.25 547.70 21.20Q548.30 20.80 548.88 21.07Q549.45 21.35 549.95 22.15Q550.40 23.10 550.20 23.72Q550 24.35 549.10 25.45Q548.35 26.45 547.73 26.55Q547.10 26.65 546.40 26.10ZM559.15 46.25Q558.10 47.15 556.73 47.30Q555.35 47.45 554.05 46.88Q552.75 46.30 551.90 45.10Q551.05 44 550.80 42.58Q550.55 41.15 550.75 38.85Q550.90 36.90 552 34.92Q553.10 32.95 554.68 31.40Q556.25 29.85 557.80 29.25Q558.55 28.75 559.08 28.77Q559.60 28.80 560.70 28.90Q561.85 29.05 562.43 29.35Q563 29.65 563.35 30.15Q564.10 30.90 564.35 31.63Q564.60 32.35 564.60 33.05Q564.40 34.15 563.13 35.73Q561.85 37.30 559.80 38.30Q558.70 38.65 557.40 38.60Q556.10 38.55 555.25 37.95Q554.30 37.55 554 38.08Q553.70 38.60 553.45 40.60Q553.25 42.50 553.75 43.38Q554.25 44.25 555.10 44.40Q556.10 44.60 556.68 44.67Q557.25 44.75 558.10 44.25Q558.90 43.75 559.10 43.67Q559.30 43.60 559.43 43.48Q559.55 43.35 560.05 42.85Q560.40 42.50 560.60 42.33Q560.80 42.15 561.05 42.15Q561.30 42.15 561.50 42.38Q561.70 42.60 561.90 42.70Q562.40 42.70 562.13 43.30Q561.85 43.90 561.05 44.73Q560.25 45.55 559.15 46.25M559.10 35.65Q559.65 35.40 560.25 34.92Q560.85 34.45 561.27 33.88Q561.70 33.30 561.70 32.90Q561.70 32.20 561.05 31.72Q560.40 31.25 559.10 31.60Q558.55 31.75 557.85 32.33Q557.15 32.90 556.52 33.60Q555.90 34.30 555.52 34.85Q555.15 35.40 555.25 35.50Q555.40 35.75 556.10 35.88Q556.80 36 557.68 35.95Q558.55 35.90 559.10 35.65Z"/></g></g></svg>